<?xml version="1.0" encoding="utf-8"?>
<!-- Generator: Adobe Illustrator 21.1.0, SVG Export Plug-In . SVG Version: 6.00 Build 0)  -->
<svg version="1.1" id="Livello_1" xmlns="http://www.w3.org/2000/svg" xmlns:xlink="http://www.w3.org/1999/xlink" x="0px" y="0px"
	 viewBox="0 0 304.5 276.6" style="enable-background:new 0 0 304.5 276.6;" xml:space="preserve">
<style type="text/css">
	.st0{fill:none;stroke:#222222;stroke-width:3;stroke-linecap:round;stroke-linejoin:round;stroke-miterlimit:10;}
	.st1{fill:none;}
	.st2{fill:#222222;}
</style>
<g>
	<path class="st1" d="M211.4,142.5c-2.4-2-5.5-3-8.6-2.7c-3.1,0.3-6,1.8-8,4.2c0,0-0.1,0.1-0.1,0.1l-21.5,21.4
		c-0.6,0.6-1.4,0.7-2.2,0.4c-0.7-0.3-1.2-1-1.2-1.8V57.3c0-7.7-6.3-13.9-13.9-13.9s-13.9,6.3-13.9,13.9v54.2c0,1.1-0.9,2-2,2
		c-1.1,0-2-0.9-2-2c0-7.7-6.3-13.9-13.9-13.9s-13.9,6.3-13.9,13.9l0.2,6.3c0,0.3,0,0.7,0,1c0,1.1-0.9,2-1.9,2c-1.1,0-2-0.8-2-1.9
		l0-0.9c-0.4-6.6-6-11.9-12.7-11.9c-7,0-12.7,5.7-12.7,12.7l0.2,6.8c0,0.3,0,0.6,0,0.9c0,1.1-0.9,2-1.9,2c0,0,0,0,0,0
		c-1.1,0-1.9-0.9-2-1.9l0-0.8c-0.4-6.4-5.7-11.6-12.3-11.6c-6.8,0-12.3,5.5-12.3,12.3v69c0,34.9,28.4,63.2,63.2,63.2
		c16.8,0,32.6-6.5,44.6-18.4l52.3-81c0-0.1,0.1-0.1,0.1-0.2C217,154.1,216.4,146.7,211.4,142.5z"/>
	<path class="st2" d="M268.4,51l-22.5-22.5c-0.8-0.8-2-0.8-2.8,0c-0.8,0.8-0.8,2,0,2.8l19.4,19.4h-63.8
		c-0.5-10.7-4.9-20.7-12.5-28.4c-8.1-8.1-18.9-12.6-30.4-12.6c-11.5,0-22.2,4.5-30.4,12.6c-7.6,7.6-12,17.7-12.5,28.4H48.5
		l19.4-19.4c0.8-0.8,0.8-2,0-2.8c-0.8-0.8-2-0.8-2.8,0L42.6,51c-0.4,0.4-0.6,1-0.6,1.5c0,0.1,0,0.1,0,0.2c0,0.9,0.5,1.6,1.3,1.9
		l22.3,22.3c0.4,0.4,0.9,0.6,1.4,0.6c0.5,0,1-0.2,1.4-0.6c0.8-0.8,0.8-2,0-2.8L49,54.7H113c0.5,10.7,4.9,20.7,12.5,28.4
		c0.8,0.8,2,0.8,2.8,0c0.8-0.8,0.8-2,0-2.8c-7.4-7.4-11.4-17.2-11.4-27.6s4.1-20.2,11.4-27.6c7.4-7.4,17.2-11.4,27.6-11.4
		c10.4,0,20.2,4.1,27.6,11.4c7.3,7.3,11.4,17.1,11.4,27.4c0,0,0,0.1,0,0.1c0,0,0,0.1,0,0.1c0,10.4-4.1,20.1-11.4,27.4
		c-0.8,0.8-0.8,2,0,2.8c0.4,0.4,0.9,0.6,1.4,0.6s1-0.2,1.4-0.6c7.6-7.6,12-17.7,12.5-28.4h63.2l-19.4,19.4c-0.8,0.8-0.8,2,0,2.8
		c0.4,0.4,0.9,0.6,1.4,0.6s1-0.2,1.4-0.6l22.3-22.3c0.8-0.3,1.3-1,1.3-1.9c0-0.1,0-0.1,0-0.2C269,52,268.8,51.5,268.4,51z"/>
	<path class="st2" d="M213.9,139.4c-3.2-2.7-7.3-4-11.5-3.6c-4.2,0.4-7.9,2.3-10.6,5.5l-18.1,18v-102c0-9.9-8-17.9-17.9-17.9
		s-17.9,8-17.9,17.9v43c-3.3-4.1-8.3-6.7-13.9-6.7c-8.7,0-16,6.2-17.6,14.5c-3.1-3.7-7.7-6-12.8-6c-8.2,0-15,6-16.4,13.8
		c-3-3.5-7.4-5.7-12.3-5.7c-9,0-16.2,7.3-16.2,16.2v69c0,37,30.1,67.2,67.2,67.2c17.9,0,34.8-7,47.5-19.7c0.1-0.1,0.2-0.2,0.3-0.3
		l52.4-81.1C221.4,154.9,220.5,145,213.9,139.4z M212.8,159.1c-0.1,0.1-0.1,0.1-0.1,0.2l-52.3,81c-11.9,11.8-27.7,18.4-44.6,18.4
		c-34.9,0-63.2-28.4-63.2-63.2v-69c0-6.8,5.5-12.3,12.3-12.3c6.5,0,11.9,5.1,12.3,11.6l0,0.8c0,1.1,0.9,1.9,2,1.9c0,0,0,0,0,0
		c1.1,0,1.9-0.9,1.9-2c0-0.3,0-0.6,0-0.9l-0.2-6.8c0-7,5.7-12.7,12.7-12.7c6.7,0,12.3,5.3,12.7,11.9l0,0.9c0,1.1,0.9,1.9,2,1.9
		c1.1,0,1.9-0.9,1.9-2c0-0.3,0-0.7,0-1l-0.2-6.3c0-7.7,6.3-13.9,13.9-13.9s13.9,6.3,13.9,13.9c0,1.1,0.9,2,2,2c1.1,0,2-0.9,2-2V57.3
		c0-7.7,6.3-13.9,13.9-13.9s13.9,6.3,13.9,13.9V164c0,0.8,0.5,1.5,1.2,1.8c0.7,0.3,1.6,0.1,2.2-0.4l21.5-21.4c0,0,0.1-0.1,0.1-0.1
		c2-2.4,4.9-3.9,8-4.2c3.1-0.3,6.2,0.7,8.6,2.7C216.4,146.7,217,154.1,212.8,159.1z"/>
</g>
</svg>
