<!-- Generator: Adobe Illustrator 21.1.0, SVG Export Plug-In  -->
<svg class="section__content--svg-big" version="1.1"
	 xmlns="http://www.w3.org/2000/svg" xmlns:xlink="http://www.w3.org/1999/xlink" xmlns:a="http://ns.adobe.com/AdobeSVGViewerExtensions/3.0/"
	 x="0px" y="0px" width="447px" height="408.8px" viewBox="0 0 447 408.8" style="enable-background:new 0 0 447 408.8;"
	 xml:space="preserve">
<style type="text/css">
	.st0{opacity:5.000000e-02;}
	.st1{fill:none;}
	.st2{fill:#231F20;}
	.st3{opacity:0.13;fill:#231F20;}
	.st4{fill:#464547;}
	.st5{fill:#979899;}
	.st6{fill:#D0D0D0;}
	.st7{fill:#FFFFFF;}
	.st8{fill:#E6E7E8;}
	.st9{fill:#FFFBD9;}
	.st10{fill:#F7A787;}
	.st11{fill:#F69531;}
	.st12{fill:#EF5B30;}
	.st13{fill:#2D2D2D;}
	.st14{fill:#424242;}
	.st15{fill:#F1F2F2;}
	.st16{fill:#ED495E;}
	.st17{fill:#FDF292;}
	.st18{fill:#69C3A5;}
	.st19{fill:#EC4564;}
	.st20{fill:#D4344D;}
	.st21{fill:#A62336;}
	.st22{fill:#981E30;}
	.st23{fill:#ED4558;}
	.st24{fill:#91132B;}
	.st25{fill:#3B3B3B;}
	.illustration__animation--stars{opacity: 0.6;fill:none;stroke:#E7E2C6;stroke-width:3;stroke-linejoin:round;stroke-miterlimit:10;}
</style>
<defs>
</defs>
<g class="st0 illustration__animation--shadow-float">
	<polygon class="st1" points="227.3,386.6 227.3,386.6 247.6,377.4 247.6,377.4 	"/>
	<polygon class="st1" points="148.3,341.3 148.3,341.3 168.7,332.2 168.7,332.2 	"/>
	<polygon class="st1" points="238.1,255.8 236.1,254.6 236.2,254.6 236.1,254.6 233.9,255.9 236.1,254.7 	"/>
	<polygon class="st1" points="167.4,296.9 167.4,296.9 238.1,255.8 	"/>
	<path class="st2" d="M182.9,320.1l-5.2-3l1.1-0.7l0,0l-10.1,5.8c0,0,0,0,0,0c0,0,0,0,0,0c0,0,0,0,0,0l-2.1,3.4l-18.6,15l0,0l0,0
		l-1.9,1.6l0.1,0l0,0l2.1-0.7l0,0l22.1-8.4l3,1.7c0,0,0,0,0,0c0,0,0,0,0,0c0,0,0,0,0,0c0,0,0,0,0,0l9.2-5.3l2.2-3.4L182.9,320.1z
		 M148.3,341.3L148.3,341.3l20.4-9.1l0,0L148.3,341.3z"/>
	<polygon class="st3" points="182.6,329.6 182.4,329.9 192.2,324.2 192,324.1 	"/>
	<polygon class="st2" points="178.8,316.5 177.6,317.1 182.9,320.1 184.8,326.2 182.6,329.6 192,324.1 	"/>
	<polygon class="st3" points="178.8,316.5 177.6,317.1 182.9,320.1 184.8,326.2 182.6,329.6 192,324.1 	"/>
	<path class="st2" d="M261.8,365.4l-5.2-3l1-0.6l0,0l-9.9,5.7c0,0,0,0,0,0c0,0,0,0,0,0c0,0,0,0,0,0l-2.1,3.4l-18.6,15l0,0l0,0
		l-1.9,1.6l0.1,0l0,0l2.1-0.7l0,0l22.1-8.4l3,1.7c0,0,0,0,0,0c0,0,0,0,0,0c0,0,0,0,0,0c0,0,0,0,0,0l9.2-5.3l2.2-3.4L261.8,365.4z
		 M227.3,386.6L227.3,386.6l20.4-9.1l0,0L227.3,386.6z"/>
	<polygon class="st3" points="261.5,374.8 261.4,375.1 270.9,369.5 270.8,369.4 	"/>
	<polygon class="st2" points="257.5,361.8 256.6,362.4 261.8,365.4 263.7,371.4 261.5,374.8 270.8,369.4 	"/>
	<polygon class="st3" points="257.5,361.8 256.6,362.4 261.8,365.4 263.7,371.4 261.5,374.8 270.8,369.4 	"/>
	<path class="st2" d="M170,307.7c0-0.1,0-0.1,0-0.2C170,307.6,170,307.7,170,307.7L170,307.7z"/>
	<path class="st2" d="M133.7,290.1l28.1,7.8l-3.1,1.8l8.8,4.7v-1.5l0,1.5l70.6-40.8v-7.3l14.5-8.4V245h0l-0.1,0.1L133.7,290.1
		L133.7,290.1l40.3,0.6l39.2-22.8L174,290.7l-40.1-0.7l35.5,3.4L133.7,290.1L133.7,290.1z M236.1,254.6l0.1-0.1L236.1,254.6l2.1,1.2
		L236.1,254.6l-2.1,1.3L236.1,254.6z M167.4,296.9l70.7-41.1L167.4,296.9L167.4,296.9z"/>
	<path class="st2" d="M377.7,317.8l-19.1,11.1l-59.1,34.4v0l59.1-34.4l-1.7-4v0l-0.5-0.3c0-0.1,0-0.2,0-0.3v-0.1v-1.9
		c0-0.1,0-0.1,0.1-0.2c0.1-0.2,0.1-0.4,0.1-0.5c0-0.3-0.1-0.5-0.2-0.7c0,0,0,0,0,0c0-0.1-0.1-0.2-0.1-0.3c0-0.1-0.1-0.1-0.1-0.2
		c-0.1-0.2-0.3-0.3-0.5-0.4l-104.1-59.9c-0.3-0.2-0.6-0.3-1-0.3c-0.3,0-0.7,0.1-1,0.3l-78.6,45.7c-0.5,0.3-0.9,1-0.9,1.7
		c0,0.1,0,0.1,0,0.2l0,0c0-0.1,0-0.1,0-0.2l0,2.5l0,0.1c0,0,0,0,0,0l0,0.1c0,0.7,0.4,1.3,1,1.6l7.9,4.5l0,0l13.2,7.6l0.1,0.1
		l27.3,15.7l38.1,21.9l0,0l13.3,7.6l0.1,0.1l4,2.3c0.3,0.2,0.7,0.3,1,0.3s0.7-0.1,1-0.3l4.4-2.6v1.8l10.8,6.2l3.9-2.3l6.8-3.9
		l-2.4-5.3l2.4,5.3l32.3,34.1L302.9,371l-6.8,4l-0.7,0.4l43.4,33.3l-0.1-0.1l-39-45.2l0-0.1l39.2,45.5L377.7,317.8z"/>
</g>
<line class="illustration__animation--stars illustration__animation--stars1" x1="429.4" y1="89.9" x2="389.8" y2="113.1"/>
<line class="illustration__animation--stars illustration__animation--stars2" x1="323.3" y1="72.3" x2="283.7" y2="95.4"/>
<line class="illustration__animation--stars illustration__animation--stars3" x1="224.4" y1="190.7" x2="184.7" y2="213.8"/>
<line class="illustration__animation--stars illustration__animation--stars4" x1="428.6" y1="28.1" x2="389" y2="51.2"/>
<line class="illustration__animation--stars illustration__animation--stars5" x1="375.4" y1="18.3" x2="335.8" y2="41.4"/>
<line class="illustration__animation--stars illustration__animation--stars6" x1="275.5" y1="6.7" x2="235.9" y2="29.9"/>
<line class="illustration__animation--stars illustration__animation--stars1" x1="144.4" y1="263" x2="104.8" y2="286.2"/>
<line class="illustration__animation--stars illustration__animation--stars2" x1="159.8" y1="186.3" x2="120.2" y2="209.5"/>
<line class="illustration__animation--stars illustration__animation--stars3" x1="300.2" y1="277.2" x2="260.6" y2="300.3"/>
<line class="illustration__animation--stars illustration__animation--stars4" x1="42.3" y1="89.9" x2="2.7" y2="113.1"/>
<line class="illustration__animation--stars illustration__animation--stars7" x1="65.7" y1="176.9" x2="26.1" y2="200.1"/>
<line class="illustration__animation--stars illustration__animation--stars8" x1="78.3" y1="223.9" x2="38.7" y2="247"/>
<g class="illustration__animation--solid-float">
	<g>
		<polygon class="st4" points="68.4,149.2 67.4,150.7 68.4,153.7 70.7,155 71.6,153.5 70.7,150.6 		"/>
		<polygon class="st4" points="71.1,159.9 71.5,159.2 66.1,156.1 64,149.5 63.5,150.3 65.5,156.7 		"/>
		<path class="st5" d="M71.5,159.2l2.1-3.3l-2.1-6.5l-5.6-3.2l-2,3.2l2.1,6.6L71.5,159.2z M70.7,155l-2.3-1.3l-0.9-3l0.9-1.5
			l2.3,1.3l0.9,3L70.7,155z"/>
		<path class="st6" d="M115.2,136l-38.1,22c0,0,0,0,0,0l0,0c0,0,0-0.1,0-0.1L73.7,147c0,0,0,0,0-0.1l0,0l-9.3-5.3c0,0-0.1,0-0.1,0
			c0,0,0,0-0.1,0l-4.2,6.6c0,0,0,0.1,0,0.1l3.4,10.8c0,0,0,0,0,0.1l9.3,5.4c0,0,0,0,0,0c0,0,0,0,0,0c0,0,0,0,0,0c0,0,0,0,0,0
			l38.1-22c0,0,0,0,0,0L115.2,136C115.2,136,115.2,136,115.2,136C115.2,136,115.2,136,115.2,136z M64,149.5l2-3.2l5.6,3.2l2.1,6.5
			l-2.1,3.3l-0.4,0.7l-5.6-3.2l-2.1-6.5L64,149.5z"/>
		<path class="st7" d="M64.3,141.6l9.3,5.3l38.1-22c0,0,0.1,0,0.1,0c0,0,0,0,0,0c0,0,0,0,0,0l-9.4-5.3c0,0-0.1,0-0.1,0L64.3,141.6
			C64.2,141.6,64.2,141.6,64.3,141.6C64.2,141.6,64.2,141.6,64.3,141.6C64.2,141.6,64.3,141.6,64.3,141.6z"/>
		<path class="st8" d="M111.7,124.9l-38.1,22l0,0c0,0,0,0,0,0.1l3.4,10.8c0,0,0,0.1,0,0.1l0,0c0,0,0,0,0,0l38.1-22c0,0,0,0,0,0
			c0,0,0.1-0.1,0-0.1l-3.3-10.9C111.9,125,111.9,124.9,111.7,124.9C111.8,124.9,111.8,124.9,111.7,124.9
			C111.8,124.9,111.8,124.9,111.7,124.9z"/>
	</g>
	<polyline class="st3" points="102.2,119.6 80.6,132.2 90.2,137.6 93.7,148.6 89.3,155.4 123.5,135.5 	"/>
	<g class="illustration__animation--fire2">
		<g>
			<polygon class="st9" points="68.4,148.6 64.1,146.2 37.7,167.5 37.8,167.6 			"/>
			<polygon class="st10" points="26.7,175.7 26.7,175.7 26.7,175.7 			"/>
			<polygon class="st10" points="22.8,178.2 22.8,178.2 22.8,178.2 			"/>
			<path class="st11" d="M22.8,178.2l4.1-1.8v0l0,0l0,0l0,0l44.7-20.1l0,0l-2.3-7.2l0,0l-42.6,26.6l0,0L22.8,178.2z M26.7,175.7
				L26.7,175.7L26.7,175.7L26.7,175.7z"/>
			<polygon class="st11" points="22.8,178.2 22.8,178.2 22.8,178.2 			"/>
			<polygon class="st12" points="26.9,176.4 26.9,176.4 26.9,176.4 26.9,176.4 22.8,178.2 22.8,178.2 22.8,178.2 22.8,178.2
				22.8,178.2 22.8,178.2 22.8,178.2 22.8,178.2 26.7,176.8 26.7,176.8 68.8,160.8 68.8,160.8 71.6,156.4 71.6,156.4 26.9,176.4
				26.9,176.4 			"/>
		</g>
		<polygon class="st1" points="64.1,146.2 37.7,167.5 37.8,167.6 68.3,148.6 		"/>
		<path class="st10" d="M69.4,149.2l-6.3-3.6l0,0l-37,29.8l0,0l0,0l-3.5,2.9l0.2-0.1l3.9-2.5l0,0l0,0L69.4,149.2L69.4,149.2z
			 M37.7,167.5l26.4-21.3l4.2,2.4L37.7,167.5L37.7,167.5z"/>
	</g>
	<g>
		<polygon class="st4" points="212.9,232 211.9,233.5 212.9,236.5 215.2,237.8 216.2,236.3 215.2,233.4 		"/>
		<polygon class="st4" points="215.6,242.7 216.1,242 210.6,238.9 208.5,232.3 208,233 210.1,239.5 		"/>
		<path class="st5" d="M216.1,242l2.1-3.3l-2.1-6.5l-5.6-3.2l-2,3.2l2.1,6.6L216.1,242z M215.2,237.8l-2.3-1.3l-0.9-3l0.9-1.5
			l2.3,1.3l0.9,3L215.2,237.8z"/>
		<path class="st6" d="M259.7,218.8l-38.1,22c0,0,0,0,0,0l0,0c0,0,0-0.1,0-0.1l-3.4-10.8c0,0,0,0,0-0.1l0,0l-9.3-5.3
			c0,0-0.1,0-0.1,0c0,0,0,0-0.1,0l-4.2,6.6c0,0,0,0.1,0,0.1l3.4,10.8c0,0,0,0,0,0.1l9.3,5.4c0,0,0,0,0,0c0,0,0,0,0,0c0,0,0,0,0,0
			c0,0,0,0,0,0l38.1-22c0,0,0,0,0,0L259.7,218.8C259.7,218.8,259.7,218.8,259.7,218.8C259.7,218.8,259.7,218.8,259.7,218.8z
			 M208.5,232.3l2-3.2l5.6,3.2l2.1,6.5l-2.1,3.3l-0.4,0.7l-5.6-3.2L208,233L208.5,232.3z"/>
		<path class="st7" d="M208.8,224.4l9.3,5.3l38.1-22c0,0,0.1,0,0.1,0c0,0,0,0,0,0c0,0,0,0,0,0l-9.4-5.3c0,0-0.1,0-0.1,0L208.8,224.4
			C208.8,224.4,208.8,224.4,208.8,224.4C208.8,224.4,208.8,224.4,208.8,224.4C208.8,224.4,208.8,224.4,208.8,224.4z"/>
		<path class="st8" d="M256.3,207.7l-38.1,22l0,0c0,0,0,0,0,0.1l3.4,10.8c0,0,0,0.1,0,0.1l0,0c0,0,0,0,0,0l38.1-22c0,0,0,0,0,0
			c0,0,0.1-0.1,0-0.1l-3.3-10.9C256.4,207.8,256.4,207.7,256.3,207.7C256.4,207.7,256.4,207.7,256.3,207.7
			C256.3,207.7,256.3,207.7,256.3,207.7z"/>
	</g>
	<polyline class="st3" points="246.7,202.4 225.1,215 234.7,220.4 238.2,231.4 233.9,238.2 268,218.3 	"/>
	<g>
		<path class="st1" d="M66.7,114.9c0-0.1-0.1-0.2-0.1-0.3C66.6,114.7,66.7,114.8,66.7,114.9L66.7,114.9z"/>
		<path class="st13" d="M407.5,147.1C407.5,147.1,407.5,147.1,407.5,147.1C407.5,147.1,407.5,147.1,407.5,147.1z"/>
		<path class="st13" d="M407.8,146.2C407.8,146.2,407.8,146.2,407.8,146.2C407.8,146.2,407.8,146.2,407.8,146.2z"/>
		<path class="st13" d="M395.5,149.9l1.2-0.8L395.5,149.9l-0.1-0.2l-133,77.5c-0.6,0.4-1.2,0.5-1.8,0.5c-0.2,0-0.4-0.1-0.6-0.1
			c-0.4-0.1-0.8-0.2-1.2-0.4l-97.1-55.9l-93.3-53.7c-1-0.5-1.6-1.6-1.7-2.7l0,0c0-0.1-0.1-0.2-0.1-0.4l-0.1,4.6l0,0.3c0,0,0,0,0,0
			l0,0.2c0,1.3,0.7,2.4,1.8,3l88.9,51.2l101.5,58.4c0.5,0.3,1.2,0.5,1.8,0.5s1.2-0.1,1.8-0.5l133.2-77.6V149.9z"/>
		<path class="st14" d="M407.2,138.1c0.1,0.1,0.2,0.2,0.3,0.3C407.4,138.4,407.3,138.3,407.2,138.1z"/>
		<path class="st14" d="M407.7,139C407.7,139,407.7,139,407.7,139C407.7,139,407.7,139,407.7,139z"/>
		<path class="st14" d="M68.4,117.6l93.3,53.7l97.1,55.9c0.4,0.2,0.8,0.3,1.2,0.4c0.2,0,0.4,0.1,0.6,0.1c0.6,0,1.2-0.1,1.8-0.5
			l133-77.5L197.8,36.2l1-0.6l13.5-7.8c0.5-0.3,1.1-0.5,1.7-0.5c-0.6,0-1.2,0.2-1.8,0.5L68.3,111.5c-1,0.6-1.7,1.8-1.7,3.1
			c0,0.1,0,0.2,0.1,0.3C66.9,116,67.4,117,68.4,117.6z"/>
		<path class="st6" d="M406.4,143.4l-2.1,1.2l-7.6,4.5l-1.2,0.8v4.8v0.1l1.5-0.9l9.2-5.4c0.5-0.3,1-0.8,1.3-1.4c0,0,0,0,0,0
			c0.1-0.3,0.2-0.5,0.3-0.8c0,0,0,0,0-0.1c0.1-0.3,0.1-0.6,0.1-0.9v-0.2v-3.5C407.7,142.4,407.1,143,406.4,143.4z"/>
		<path class="st8" d="M408.1,140.4c0-0.5-0.2-0.9-0.4-1.3c0,0,0-0.1,0-0.1c-0.1-0.2-0.2-0.3-0.3-0.5c-0.1-0.1-0.2-0.2-0.3-0.3
			c-0.2-0.3-0.5-0.6-0.9-0.8L215.7,27.8c-0.5-0.4-1.1-0.5-1.7-0.5c-0.6,0-1.2,0.2-1.7,0.5l-13.5,7.8l-1,0.6l197.6,113.5l0.1,0.1
			l1.2-0.7l7.6-4.5l2.1-1.2c0.7-0.4,1.2-1,1.5-1.7c0-0.1,0.1-0.2,0.1-0.3C408.1,141.1,408.1,140.7,408.1,140.4z M389,132.8
			c0-0.1,0-0.2,0.1-0.2l1.4-0.8c0,0,0.1,0,0.2,0l9.8,5.6c0.1,0,0.1,0.1,0.1,0.2s0,0.1,0,0.1s0,0.1-0.1,0.1l-1.4,0.8H399h0v0h0.1h0.1
			l1.4-0.8c0,0,0-0.1,0.1-0.2v1c0,0.1,0,0.2-0.1,0.2l-1.4,0.8h-0.1H399l-9.8-5.6c-0.1,0-0.1-0.1-0.1-0.2V133
			C389,133,389,132.9,389,132.8z M217.7,39.6c-1.6,0.1-2.9-0.5-2.9-1.3s1.2-1.5,2.8-1.6s2.9,0.5,2.9,1.3
			C220.5,38.8,219.3,39.5,217.7,39.6z M224.2,43.3c-1.6,0.1-2.9-0.5-2.9-1.3c0-0.8,1.2-1.5,2.8-1.6c1.6-0.1,2.9,0.5,2.9,1.3
			C227,42.5,225.8,43.2,224.2,43.3z M230.7,47c-1.6,0.1-2.9-0.5-2.9-1.3c0-0.8,1.2-1.5,2.8-1.6s2.9,0.5,2.9,1.3S232.2,46.9,230.7,47
			z M393.4,141.9L393.4,141.9v0.9c0,0.1,0,0.2-0.1,0.2l-1.4,0.8h-0.1h-0.1l-9.8-5.6c-0.1,0-0.1-0.1-0.1-0.2v-1c0,0.1,0,0.2,0.1,0.2
			l9.8,5.6h0.1h0.1v0h-0.1h-0.1l-9.8-5.6c-0.1,0-0.1-0.1-0.1-0.2s0-0.2,0.1-0.2l1.4-0.8c0,0,0.1,0,0.2,0l9.8,5.6
			C393.3,141.6,393.4,141.7,393.4,141.9C393.4,141.9,393.4,141.9,393.4,141.9z M385.5,136.1c-0.1,0-0.1-0.1-0.1-0.2v-1
			c0,0.1,0,0.2,0.1,0.2l9.8,5.6h0.1h0.1l0,0h-0.1h-0.1l-9.8-5.6c-0.1,0-0.1-0.1-0.1-0.2s0-0.2,0.1-0.2l1.4-0.8c0,0,0.1,0,0.2,0
			l9.8,5.6c0.1,0,0.1,0.1,0.1,0.2c0,0.1,0,0.1,0,0.1s0,0,0,0v0.9c0,0.1,0,0.2-0.1,0.2l-1.4,0.8h-0.1h-0.1L385.5,136.1z"/>
		<path class="st6" d="M393.3,142l-1.4,0.8l0,0v0h-0.1h-0.1l-9.8-5.6c-0.1,0-0.1-0.1-0.1-0.2v1c0,0.1,0,0.2,0.1,0.2l9.8,5.6h0.1h0.1
			l1.4-0.8c0.1,0,0.1-0.1,0.1-0.2v-0.9C393.4,141.9,393.4,142,393.3,142z"/>
		<path class="st6" d="M395.5,141.7l1.4-0.8c0.1,0,0.1-0.1,0.1-0.2v-0.9c0,0,0,0.1-0.1,0.1l-1.4,0.8l0,0l0,0h-0.1h-0.1l-9.8-5.6
			c-0.1,0-0.1-0.1-0.1-0.2v1c0,0.1,0,0.2,0.1,0.2l9.8,5.6h0.1H395.5z"/>
		<path class="st6" d="M389.2,134l9.8,5.6h0.1h0.1l1.4-0.8c0.1,0,0.1-0.1,0.1-0.2v-1c-0.1,0.1-0.1,0.2-0.1,0.2l-1.4,0.8h-0.1H399v0
			h-0.1l-9.8-5.6c0,0,0,0,0,0v0.8C389.1,133.9,389.1,134,389.2,134z"/>
		<path class="st15" d="M398.9,138.6L398.9,138.6h0.1h0.1l1.4-0.8c0.1,0,0.1-0.1,0.1-0.1s0,0,0-0.1s0-0.2-0.1-0.2l-9.8-5.6
			c-0.1,0-0.2,0-0.2,0l-1.4,0.8c-0.1,0-0.1,0.1-0.1,0.2c0,0.1,0,0.2,0.1,0.2c0,0,0,0,0,0L398.9,138.6z"/>
		<path class="st15" d="M396.9,139.9C397,139.9,397,139.8,396.9,139.9c0.1-0.1,0.1-0.1,0.1-0.1s0,0,0-0.1c0-0.1,0-0.2-0.1-0.2
			l-9.8-5.6c-0.1,0-0.2,0-0.2,0l-1.4,0.8c-0.1,0-0.1,0.1-0.1,0.2s0,0.2,0.1,0.2l9.8,5.6h0.1h0.1l0,0L396.9,139.9z"/>
		<path class="st15" d="M383.5,136c-0.1,0-0.2,0-0.2,0l-1.4,0.8c-0.1,0-0.1,0.1-0.1,0.2s0,0.2,0.1,0.2l9.8,5.6h0.1h0.1l0,0l1.4-0.8
			c0.1,0,0.1-0.1,0.1-0.1v0c0,0,0,0,0-0.1c0-0.1-0.1-0.2-0.1-0.2L383.5,136z"/>

			<ellipse transform="matrix(0.9984 -5.735002e-02 5.735002e-02 0.9984 -1.8303 12.5428)" class="st16" cx="217.6" cy="38.2" rx="2.9" ry="1.4"/>

			<ellipse transform="matrix(0.9984 -5.718189e-02 5.718189e-02 0.9984 -2.0274 12.8826)" class="st17" cx="224.1" cy="41.9" rx="2.9" ry="1.4"/>

			<ellipse transform="matrix(0.9984 -5.735002e-02 5.735002e-02 0.9984 -2.2342 13.2985)" class="st18" cx="230.6" cy="45.6" rx="2.9" ry="1.4"/>
	</g>
	<g class="illustration__animation--float-wings">
		<polygon class="st19" points="183.1,20.5 74.1,83.8 74.1,83.8 65.6,88.8 65.6,88.8 65.6,88.8 58.3,93.1 61.9,95 191.1,19.9
			187.6,17.9 		"/>
		<path class="st20" d="M217.9,0L217.9,0c-0.1,0-0.1,0-0.1,0l-0.2,0.1l0.2-0.1c0.1,0,0.1,0,0.2,0.1c0,0.1,0,0.1-0.1,0.2l-30.2,17.5
			l-0.1,0l3.5,2L61.9,95l0.2,0.1c0,0,0.1,0.1,0.1,0.1v13.6c0,0,0,0,0,0c0,0,0,0,0,0l129.3-74.6c0,0,0.1-0.1,0.1-0.1V20.8L218,5.4
			c0,0,0.1-0.1,0.1-0.1V0.1C218,0.1,218,0,217.9,0z"/>
		<path class="st21" d="M0,82.4C0,82.4,0,82.4,0,82.4C0,82.4,0,82.4,0,82.4C0,82.4,0,82.4,0,82.4z"/>
		<polygon class="st21" points="0.1,82.4 0.1,82.4 0.1,82.4 		"/>
		<path class="st21" d="M0,82.5C0,82.5,0,82.5,0,82.5C0,82.5,0,82.5,0,82.5C0,82.5,0,82.5,0,82.5C0,82.5,0,82.5,0,82.5z"/>
		<path class="st21" d="M74.1,83.8C74.1,83.9,74.1,83.9,74.1,83.8C74.1,83.9,74.1,83.9,74.1,83.8L3.3,82.7l62.2,5.9
			c0.1,0,0.1,0,0.1,0.1c0,0.1,0,0.1-0.1,0.1c0,0,0,0,0,0L74.1,83.8z"/>
		<path class="st22" d="M0.1,82.4C0.1,82.4,0.1,82.4,0.1,82.4C0.1,82.4,0,82.4,0.1,82.4C0,82.4,0,82.4,0.1,82.4
			C0,82.4,0,82.4,0.1,82.4C0,82.4,0.1,82.4,0.1,82.4z"/>
		<path class="st22" d="M57.9,93c0,0,0.1,0,0.1,0l0.2,0.1l7.3-4.3c0,0,0,0,0,0c0,0,0.1-0.1,0.1-0.1c0-0.1-0.1-0.1-0.1-0.1L3.3,82.7
			l-3.2-0.1c-0.1,0-0.1,0-0.1-0.1c0,0,0,0,0,0c0,0,0,0,0,0c0,0,0,0,0,0v0.1c0,0.1,0,0.1,0.1,0.1l51.2,14.2L57.9,93z"/>
		<path class="st23" d="M0,82.5c0,0.1,0.1,0.1,0.1,0.1l3.2,0.1L74,83.9c0,0,0,0,0,0c0,0,0,0,0.1,0c0,0,0,0,0,0l109-63.3l4.5-2.7
			l0.1,0l30.2-17.5c0.1,0,0.1-0.1,0.1-0.2c0-0.1-0.1-0.1-0.2-0.1l-0.2,0.1L0.1,82.4c0,0,0,0,0,0c0,0,0,0,0,0C0.1,82.4,0,82.4,0,82.5
			C0,82.4,0,82.4,0,82.5C0,82.4,0,82.5,0,82.5C0,82.5,0,82.5,0,82.5C0,82.5,0,82.5,0,82.5z"/>
		<path class="st24" d="M62.2,95.2c0,0,0-0.1-0.1-0.1L61.9,95l-3.7-1.9L58,93c0,0-0.1,0-0.1,0l-6.7,3.9l-5.4,3.2
			c0,0-0.1,0.1-0.1,0.1c0,0,0,0.1,0.1,0.1l16.1,8.6c0,0,0,0,0.1,0c0,0,0,0,0.1,0c0,0,0,0,0-0.1c0,0,0,0,0,0V95.2z"/>
	</g>
	<g class="illustration__animation--float-wings">
		<path class="st24" d="M375.6,300C375.6,300,375.6,300,375.6,300C375.6,300,375.6,300,375.6,300C375.6,300,375.5,300,375.6,300
			C375.5,300,375.5,300,375.6,300c-0.1,0.1-0.1,0.1-0.1,0.1c0,0,0,0,0,0s0,0,0,0s0,0,0,0c0,0,0,0-0.1,0c0,0,0,0,0,0l0,0c0,0,0,0,0,0
			l0,0l-65.5-69l-12.4,7.2L296,239l79.4,61.3c0,0,0,0,0.1,0c0,0,0,0,0.1,0c0,0,0.1-0.1,0.1-0.1L375.6,300L375.6,300z"/>
		<path class="st20" d="M290.1,242.4C290.2,242.4,290.2,242.4,290.1,242.4C290.2,242.4,290.2,242.4,290.1,242.4
			C290.1,242.4,290.1,242.4,290.1,242.4z"/>
		<path class="st20" d="M297.5,238.2l12.4-7.2l0,0c0,0,0,0,0,0l-6.3-14.1c0,0,0-0.1,0-0.1c0,0,0,0,0,0c0,0,0-0.1,0.1-0.1l108.2-62.9
			l0.1-0.1l-3.1-7.2c0,0,0,0,0,0c0,0,0,0.1,0,0.1c0,0,0,0.1-0.1,0.1l-129.4,75.2l10.9,20.4c0,0,0,0.1,0,0.1c0,0-0.1,0-0.1,0
			c0,0,0,0,0.1,0l5.8-3.4L297.5,238.2z"/>
		<path class="st21" d="M375.6,300C375.6,300,375.6,300,375.6,300C375.6,300,375.5,300,375.6,300C375.5,300,375.6,300,375.6,300z"/>
		<polygon class="st21" points="375.5,300 375.5,300 375.5,300 		"/>
		<path class="st21" d="M375.4,300C375.4,300,375.4,300,375.4,300C375.4,300,375.4,300,375.4,300L375.4,300z"/>
		<path class="st21" d="M303.5,216.8C303.5,216.8,303.5,216.7,303.5,216.8C303.5,216.8,303.5,216.8,303.5,216.8l6.3,14.1
			c0,0,0,0,0,0l0,0l65.5,69L303.5,216.8z"/>
		<path class="st23" d="M279.3,221.7C279.3,221.7,279.3,221.7,279.3,221.7l0.1,0.2l129.4-75.2c0,0,0.1-0.1,0.1-0.1c0,0,0-0.1,0-0.1
			c0,0,0,0,0,0l-8.7-5c0,0-0.1,0-0.1,0l-28.4,16.5l-101.2,58.7c0,0,0.1,0,0.1,0L279.3,221.7z"/>
		<path class="st24" d="M290.3,242.2l-10.9-20.4l-0.1-0.1c0,0,0,0,0,0l-8.8-5.1c0,0-0.1,0-0.1,0c0,0-0.1,0.1-0.1,0.1v14.2
			c0,0,0,0.1,0.1,0.1l19.8,11.4c0,0,0,0,0,0c0,0,0,0,0,0c0,0,0.1,0,0.1,0C290.3,242.3,290.3,242.3,290.3,242.2z"/>
		<path class="st23" d="M411.8,153.6l-108.2,62.9c0,0-0.1,0.1-0.1,0.1c0,0,0,0,0,0c0,0,0,0,0,0.1l71.8,83.2l0,0c0,0,0,0,0,0
			c0,0,0,0,0,0c0,0,0,0,0.1,0c0,0,0,0,0,0s0,0,0,0c0,0,0,0,0,0c0,0,0,0,0,0c0,0,0.1,0,0.1-0.1c0,0,0,0,0,0l0,0L447,133.4
			c0,0,0-0.1,0-0.1c0,0-0.1,0-0.1,0l-34.9,20.3L411.8,153.6z"/>
	</g>
	<g>
		<path class="st25" d="M240,92.8L240,92.8c-0.1-0.3-0.3-0.7-0.6-0.8l-48.7-28.3c-0.1,0-0.3-0.1-0.4-0.1c-0.1,0-0.2,0-0.4,0.1
			l-20.5,11.8c-0.3,0.1-0.5,0.4-0.5,0.7l0,0c0,0.4,0.1,0.6,0.4,0.8l48.7,28.3c0.3,0.1,0.6,0.1,0.9-0.1l20.5-11.8
			C239.8,93.2,239.9,92.9,240,92.8z"/>
		<path class="st25" d="M213.1,108.2L213.1,108.2c-0.1-0.3-0.3-0.7-0.6-0.8l-48.7-28.3c-0.1,0-0.3-0.1-0.4-0.1c-0.1,0-0.2,0-0.4,0.1
			l-10.9,6.3c-0.3,0.1-0.5,0.4-0.5,0.7l0,0c0,0.4,0.1,0.6,0.4,0.8l48.7,28.3c0.3,0.1,0.6,0.1,0.9-0.1l11-6.3
			C212.9,108.7,213.1,108.4,213.1,108.2z"/>
		<path class="st7" d="M213.3,88.5L213.3,88.5c-0.1-0.3-0.3-0.7-0.6-0.8L164,59.4c-0.1,0-0.3-0.1-0.4-0.1c-0.1,0-0.2,0-0.4,0.1
			l-10.9,6.3c-0.3,0.1-0.5,0.4-0.5,0.7l0,0c0,0.4,0.1,0.6,0.4,0.8l48.7,28.3c0.3,0.1,0.6,0.1,0.9-0.1l11-6.3
			C213.1,89,213.2,88.7,213.3,88.5z"/>
		<path class="st7" d="M240.1,73.1L240.1,73.1c-0.1-0.3-0.3-0.7-0.6-0.8L190.8,44c-0.1,0-0.3-0.1-0.4-0.1c-0.1,0-0.2,0-0.4,0.1
			l-20.5,11.8c-0.3,0.1-0.5,0.4-0.5,0.7l0,0c0,0.4,0.1,0.6,0.4,0.8l48.7,28.3c0.3,0.1,0.6,0.1,0.9-0.1l20.5-11.8
			C239.9,73.5,240.1,73.2,240.1,73.1z"/>
	</g>
	<g>
		<g>
			<path class="st25" d="M183.4,125.1L183.4,125.1c-0.1-0.3-0.3-0.7-0.6-0.8l-27-15.7c-0.1,0-0.3-0.1-0.4-0.1c-0.1,0-0.2,0-0.4,0.1
				l-10.9,6.3c-0.3,0.1-0.5,0.4-0.5,0.7l0,0c0,0.4,0.1,0.6,0.4,0.8l27,15.7c0.3,0.1,0.6,0.1,0.9-0.1l11-6.3
				C183.2,125.6,183.3,125.3,183.4,125.1z"/>
			<path class="st25" d="M166,135.1L166,135.1c-0.1-0.3-0.3-0.7-0.6-0.8l-48.7-28.2c-0.1,0-0.3-0.1-0.4-0.1c-0.1,0-0.2,0-0.4,0.1
				l-1.4,0.8c-0.3,0.1-0.5,0.4-0.5,0.7l0,0c0,0.4,0.1,0.6,0.4,0.8l48.7,28.2c0.3,0.1,0.6,0.1,0.9-0.1l1.5-0.8
				C165.8,135.6,166,135.3,166,135.1z"/>
			<path class="st25" d="M160,138.6L160,138.6c-0.1-0.3-0.3-0.7-0.6-0.8l-48.7-28.2c-0.1,0-0.3-0.1-0.4-0.1c-0.1,0-0.2,0-0.4,0.1
				l-1.4,0.8c-0.3,0.1-0.5,0.4-0.5,0.7l0,0c0,0.4,0.1,0.6,0.4,0.8l48.7,28.2c0.3,0.1,0.6,0.1,0.9-0.1l1.5-0.8
				C159.8,139.1,159.9,138.7,160,138.6z"/>
			<path class="st25" d="M153.9,142.1L153.9,142.1c-0.1-0.3-0.3-0.7-0.6-0.8l-28.5-16.4c-0.1,0-0.3-0.1-0.4-0.1
				c-0.1,0-0.2,0-0.4,0.1l-1.4,0.8c-0.3,0.1-0.5,0.4-0.5,0.7l0,0c0,0.4,0.1,0.6,0.4,0.8l28.5,16.4c0.3,0.1,0.6,0.1,0.9-0.1l1.5-0.8
				C153.7,142.6,153.9,142.2,153.9,142.1z"/>
		</g>
		<path class="st7" d="M183.5,105.3L183.5,105.3c-0.1-0.3-0.3-0.7-0.6-0.8l-27-15.7c-0.1,0-0.3-0.1-0.4-0.1c-0.1,0-0.2,0-0.4,0.1
			l-10.9,6.3c-0.3,0.1-0.5,0.4-0.5,0.7l0,0c0,0.4,0.1,0.6,0.4,0.8l27,15.7c0.3,0.1,0.6,0.1,0.9-0.1l11-6.3
			C183.3,105.8,183.4,105.5,183.5,105.3z"/>
		<path class="st7" d="M166.1,115.3L166.1,115.3c-0.1-0.3-0.3-0.7-0.6-0.8l-48.7-28.2c-0.1,0-0.3-0.1-0.4-0.1c-0.1,0-0.2,0-0.4,0.1
			l-1.4,0.8c-0.3,0.1-0.5,0.4-0.5,0.7l0,0c0,0.4,0.1,0.6,0.4,0.8l48.7,28.2c0.3,0.1,0.6,0.1,0.9-0.1l1.5-0.8
			C165.9,115.8,166.1,115.5,166.1,115.3z"/>
		<path class="st7" d="M160.1,118.8L160.1,118.8c-0.1-0.3-0.3-0.7-0.6-0.8l-48.7-28.2c-0.1,0-0.3-0.1-0.4-0.1c-0.1,0-0.2,0-0.4,0.1
			l-1.4,0.8c-0.3,0.1-0.5,0.4-0.5,0.7l0,0c0,0.4,0.1,0.6,0.4,0.8l48.7,28.2c0.3,0.1,0.6,0.1,0.9-0.1l1.5-0.8
			C159.9,119.3,160,119,160.1,118.8z"/>
		<path class="st7" d="M154,122.3L154,122.3c-0.1-0.3-0.3-0.7-0.6-0.8l-28.5-16.4c-0.1,0-0.3-0.1-0.4-0.1c-0.1,0-0.2,0-0.4,0.1
			l-1.4,0.8c-0.3,0.1-0.5,0.4-0.5,0.7l0,0c0,0.4,0.1,0.6,0.4,0.8l28.5,16.4c0.3,0.1,0.6,0.1,0.9-0.1l1.5-0.8
			C153.8,122.8,154,122.4,154,122.3z"/>
	</g>
	<g>
		<g>
			<path class="st25" d="M295.5,124.4L295.5,124.4c-0.1-0.3-0.3-0.7-0.6-0.8l-27-15.7c-0.1,0-0.3-0.1-0.4-0.1c-0.1,0-0.2,0-0.4,0.1
				l-10.9,6.3c-0.3,0.1-0.5,0.4-0.5,0.7l0,0c0,0.4,0.1,0.6,0.4,0.8l27,15.7c0.3,0.1,0.6,0.1,0.9-0.1l11-6.3
				C295.3,124.8,295.4,124.5,295.5,124.4z"/>
			<path class="st25" d="M278.1,134.4L278.1,134.4c-0.1-0.3-0.3-0.7-0.6-0.8l-48.7-28.2c-0.1,0-0.3-0.1-0.4-0.1
				c-0.1,0-0.2,0-0.4,0.1l-1.4,0.8c-0.3,0.1-0.5,0.4-0.5,0.7l0,0c0,0.4,0.1,0.6,0.4,0.8l48.7,28.2c0.3,0.1,0.6,0.1,0.9-0.1l1.5-0.8
				C277.9,134.8,278.1,134.5,278.1,134.4z"/>
			<path class="st25" d="M272.1,137.9L272.1,137.9c-0.1-0.3-0.3-0.7-0.6-0.8l-48.7-28.2c-0.1,0-0.3-0.1-0.4-0.1
				c-0.1,0-0.2,0-0.4,0.1l-1.4,0.8c-0.3,0.1-0.5,0.4-0.5,0.7l0,0c0,0.4,0.1,0.6,0.4,0.8l48.7,28.2c0.3,0.1,0.6,0.1,0.9-0.1l1.5-0.8
				C271.9,138.3,272,138,272.1,137.9z"/>
			<path class="st25" d="M266,141.3L266,141.3c-0.1-0.3-0.3-0.7-0.6-0.8l-28.5-16.4c-0.1,0-0.3-0.1-0.4-0.1c-0.1,0-0.2,0-0.4,0.1
				l-1.4,0.8c-0.3,0.1-0.5,0.4-0.5,0.7l0,0c0,0.4,0.1,0.6,0.4,0.8l28.5,16.4c0.3,0.1,0.6,0.1,0.9-0.1l1.5-0.8
				C265.8,141.8,266,141.5,266,141.3z"/>
		</g>
		<path class="st7" d="M295.6,104.6L295.6,104.6c-0.1-0.3-0.3-0.7-0.6-0.8l-27-15.7c-0.1,0-0.3-0.1-0.4-0.1c-0.1,0-0.2,0-0.4,0.1
			l-10.9,6.3c-0.3,0.1-0.5,0.4-0.5,0.7l0,0c0,0.4,0.1,0.6,0.4,0.8l27,15.7c0.3,0.1,0.6,0.1,0.9-0.1l11-6.3
			C295.4,105,295.5,104.7,295.6,104.6z"/>
		<path class="st7" d="M278.2,114.6L278.2,114.6c-0.1-0.3-0.3-0.7-0.6-0.8l-48.7-28.2c-0.1,0-0.3-0.1-0.4-0.1c-0.1,0-0.2,0-0.4,0.1
			l-1.4,0.8c-0.3,0.1-0.5,0.4-0.5,0.7l0,0c0,0.4,0.1,0.6,0.4,0.8l48.7,28.2c0.3,0.1,0.6,0.1,0.9-0.1l1.5-0.8
			C278,115,278.2,114.7,278.2,114.6z"/>
		<path class="st7" d="M272.2,118.1L272.2,118.1c-0.1-0.3-0.3-0.7-0.6-0.8l-48.7-28.2c-0.1,0-0.3-0.1-0.4-0.1s-0.2,0-0.4,0.1
			l-1.4,0.8c-0.3,0.1-0.5,0.4-0.5,0.7l0,0c0,0.4,0.1,0.6,0.4,0.8l48.7,28.2c0.3,0.1,0.6,0.1,0.9-0.1l1.5-0.8
			C272,118.5,272.1,118.2,272.2,118.1z"/>
		<path class="st7" d="M266.1,121.6L266.1,121.6c-0.1-0.3-0.3-0.7-0.6-0.8L237,104.4c-0.1,0-0.3-0.1-0.4-0.1c-0.1,0-0.2,0-0.4,0.1
			l-1.4,0.8c-0.3,0.1-0.5,0.4-0.5,0.7l0,0c0,0.4,0.1,0.6,0.4,0.8l28.5,16.4c0.3,0.1,0.6,0.1,0.9-0.1l1.5-0.8
			C265.9,122,266.1,121.7,266.1,121.6z"/>
	</g>
	<g>
		<path class="st25" d="M351.4,156.6L351.4,156.6c-0.1-0.3-0.3-0.7-0.6-0.8l-48.7-28.3c-0.1,0-0.3-0.1-0.4-0.1c-0.1,0-0.2,0-0.4,0.1
			l-20.5,11.8c-0.3,0.1-0.5,0.4-0.5,0.7l0,0c0,0.4,0.1,0.6,0.4,0.8l48.7,28.3c0.3,0.1,0.6,0.1,0.9-0.1l20.5-11.8
			C351.2,157,351.3,156.7,351.4,156.6z"/>
		<path class="st25" d="M324.5,172L324.5,172c-0.1-0.3-0.3-0.7-0.6-0.8l-48.7-28.3c-0.1,0-0.3-0.1-0.4-0.1c-0.1,0-0.2,0-0.4,0.1
			l-10.9,6.3c-0.3,0.1-0.5,0.4-0.5,0.7l0,0c0,0.4,0.1,0.6,0.4,0.8l48.7,28.3c0.3,0.1,0.6,0.1,0.9-0.1l11-6.3
			C324.3,172.5,324.5,172.2,324.5,172z"/>
		<path class="st7" d="M324.7,152.3L324.7,152.3c-0.1-0.3-0.3-0.7-0.6-0.8l-48.7-28.3c-0.1,0-0.3-0.1-0.4-0.1c-0.1,0-0.2,0-0.4,0.1
			l-10.9,6.3c-0.3,0.1-0.5,0.4-0.5,0.7l0,0c0,0.4,0.1,0.6,0.4,0.8l48.7,28.3c0.3,0.1,0.6,0.1,0.9-0.1l11-6.3
			C324.5,152.8,324.6,152.5,324.7,152.3z"/>
		<path class="st7" d="M351.5,136.9L351.5,136.9c-0.1-0.3-0.3-0.7-0.6-0.8l-48.7-28.3c-0.1,0-0.3-0.1-0.4-0.1c-0.1,0-0.2,0-0.4,0.1
			l-20.5,11.8c-0.3,0.1-0.5,0.4-0.5,0.7l0,0c0,0.4,0.1,0.6,0.4,0.8l48.7,28.3c0.3,0.1,0.6,0.1,0.9-0.1l20.5-11.8
			C351.3,137.3,351.5,137,351.5,136.9z"/>
	</g>
	<g>
		<path class="st25" d="M238.3,157.4L238.3,157.4c-0.1-0.3-0.3-0.7-0.6-0.8L189,128.3c-0.1,0-0.3-0.1-0.4-0.1c-0.1,0-0.2,0-0.4,0.1
			l-20.5,11.8c-0.3,0.1-0.5,0.4-0.5,0.7l0,0c0,0.4,0.1,0.6,0.4,0.8l48.7,28.3c0.3,0.1,0.6,0.1,0.9-0.1l20.5-11.8
			C238.1,157.8,238.2,157.5,238.3,157.4z"/>
		<path class="st25" d="M211.4,172.8L211.4,172.8c-0.1-0.3-0.3-0.7-0.6-0.8l-48.7-28.3c-0.1,0-0.3-0.1-0.4-0.1c-0.1,0-0.2,0-0.4,0.1
			l-10.9,6.3c-0.3,0.1-0.5,0.4-0.5,0.7l0,0c0,0.4,0.1,0.6,0.4,0.8l48.7,28.3c0.3,0.1,0.6,0.1,0.9-0.1l11-6.3
			C211.2,173.3,211.4,173,211.4,172.8z"/>
		<path class="st7" d="M211.6,153.1L211.6,153.1c-0.1-0.3-0.3-0.7-0.6-0.8L162.3,124c-0.1,0-0.3-0.1-0.4-0.1c-0.1,0-0.2,0-0.4,0.1
			l-10.9,6.3c-0.3,0.1-0.5,0.4-0.5,0.7l0,0c0,0.4,0.1,0.6,0.4,0.8l48.7,28.3c0.3,0.1,0.6,0.1,0.9-0.1l11-6.3
			C211.4,153.6,211.5,153.3,211.6,153.1z"/>
		<path class="st7" d="M238.4,137.7L238.4,137.7c-0.1-0.3-0.3-0.7-0.6-0.8l-48.7-28.3c-0.1,0-0.3-0.1-0.4-0.1c-0.1,0-0.2,0-0.4,0.1
			l-20.5,11.8c-0.3,0.1-0.5,0.4-0.5,0.7l0,0c0,0.4,0.1,0.6,0.4,0.8l48.7,28.3c0.3,0.1,0.6,0.1,0.9-0.1l20.5-11.8
			C238.2,138.1,238.4,137.8,238.4,137.7z"/>
	</g>
	<g>
		<g>
			<path class="st25" d="M294.8,188.8L294.8,188.8c-0.1-0.3-0.3-0.7-0.6-0.8l-27-15.7c-0.1,0-0.3-0.1-0.4-0.1c-0.1,0-0.2,0-0.4,0.1
				l-10.9,6.3c-0.3,0.1-0.5,0.4-0.5,0.7l0,0c0,0.4,0.1,0.6,0.4,0.8l27,15.7c0.3,0.1,0.6,0.1,0.9-0.1l11-6.3
				C294.6,189.3,294.7,189,294.8,188.8z"/>
			<path class="st25" d="M277.4,198.8L277.4,198.8c-0.1-0.3-0.3-0.7-0.6-0.8l-48.7-28.2c-0.1,0-0.3-0.1-0.4-0.1
				c-0.1,0-0.2,0-0.4,0.1l-1.4,0.8c-0.3,0.1-0.5,0.4-0.5,0.7l0,0c0,0.4,0.1,0.6,0.4,0.8l48.7,28.2c0.3,0.1,0.6,0.1,0.9-0.1l1.5-0.8
				C277.2,199.3,277.4,199,277.4,198.8z"/>
			<path class="st25" d="M271.4,202.3L271.4,202.3c-0.1-0.3-0.3-0.7-0.6-0.8l-48.7-28.2c-0.1,0-0.3-0.1-0.4-0.1
				c-0.1,0-0.2,0-0.4,0.1l-1.4,0.8c-0.3,0.1-0.5,0.4-0.5,0.7l0,0c0,0.4,0.1,0.6,0.4,0.8l48.7,28.2c0.3,0.1,0.6,0.1,0.9-0.1l1.5-0.8
				C271.2,202.8,271.3,202.4,271.4,202.3z"/>
			<path class="st25" d="M265.3,205.8L265.3,205.8c-0.1-0.3-0.3-0.7-0.6-0.8l-28.5-16.4c-0.1,0-0.3-0.1-0.4-0.1
				c-0.1,0-0.2,0-0.4,0.1l-1.4,0.8c-0.3,0.1-0.5,0.4-0.5,0.7l0,0c0,0.4,0.1,0.6,0.4,0.8l28.5,16.4c0.3,0.1,0.6,0.1,0.9-0.1l1.5-0.8
				C265.1,206.3,265.3,205.9,265.3,205.8z"/>
		</g>
		<path class="st7" d="M294.9,169L294.9,169c-0.1-0.3-0.3-0.7-0.6-0.8l-27-15.7c-0.1,0-0.3-0.1-0.4-0.1c-0.1,0-0.2,0-0.4,0.1
			l-10.9,6.3c-0.3,0.1-0.5,0.4-0.5,0.7l0,0c0,0.4,0.1,0.6,0.4,0.8l27,15.7c0.3,0.1,0.6,0.1,0.9-0.1l11-6.3
			C294.7,169.5,294.8,169.2,294.9,169z"/>
		<path class="st7" d="M277.5,179L277.5,179c-0.1-0.3-0.3-0.7-0.6-0.8L228.2,150c-0.1,0-0.3-0.1-0.4-0.1c-0.1,0-0.2,0-0.4,0.1
			l-1.4,0.8c-0.3,0.1-0.5,0.4-0.5,0.7l0,0c0,0.4,0.1,0.6,0.4,0.8l48.7,28.2c0.3,0.1,0.6,0.1,0.9-0.1l1.5-0.8
			C277.3,179.5,277.5,179.2,277.5,179z"/>
		<path class="st7" d="M271.5,182.5L271.5,182.5c-0.1-0.3-0.3-0.7-0.6-0.8l-48.7-28.2c-0.1,0-0.3-0.1-0.4-0.1c-0.1,0-0.2,0-0.4,0.1
			l-1.4,0.8c-0.3,0.1-0.5,0.4-0.5,0.7l0,0c0,0.4,0.1,0.6,0.4,0.8l48.7,28.2c0.3,0.1,0.6,0.1,0.9-0.1l1.5-0.8
			C271.3,183,271.4,182.7,271.5,182.5z"/>
		<path class="st7" d="M265.4,186L265.4,186c-0.1-0.3-0.3-0.7-0.6-0.8l-28.5-16.4c-0.1,0-0.3-0.1-0.4-0.1c-0.1,0-0.2,0-0.4,0.1
			l-1.4,0.8c-0.3,0.1-0.5,0.4-0.5,0.7l0,0c0,0.4,0.1,0.6,0.4,0.8l28.5,16.4c0.3,0.1,0.6,0.1,0.9-0.1l1.5-0.8
			C265.2,186.5,265.4,186.1,265.4,186z"/>
	</g>
	<g class="illustration__animation--fire1">
		<g>
			<polygon class="st9" points="212.9,231.4 208.6,229 182.2,250.3 182.3,250.4 			"/>
			<polygon class="st10" points="171.2,258.5 171.2,258.5 171.2,258.5 			"/>
			<polygon class="st10" points="167.3,261 167.3,261 167.3,261 			"/>
			<path class="st11" d="M167.3,261l4.1-1.8v0l0,0l0,0l0,0l44.7-20.1l0,0l-2.3-7.2l0,0l-42.6,26.6l0,0L167.3,261z M171.2,258.5
				L171.2,258.5L171.2,258.5L171.2,258.5z"/>
			<polygon class="st11" points="167.3,261 167.3,261 167.3,261 			"/>
			<polygon class="st12" points="171.5,259.2 171.5,259.2 171.5,259.2 171.5,259.2 167.3,261 167.3,261 167.3,261 167.3,261
				167.3,261 167.3,261 167.3,261 167.3,261 171.2,259.6 171.2,259.6 213.3,243.6 213.3,243.6 216.1,239.2 216.1,239.2 171.4,259.2
				171.4,259.2 			"/>
		</g>
		<polygon class="st1" points="208.6,229 182.2,250.3 182.3,250.4 212.8,231.4 		"/>
		<path class="st10" d="M213.9,232l-6.3-3.6l0,0l-37,29.8l0,0l0,0l-3.5,2.9l0.2-0.1l3.9-2.5l0,0l0,0L213.9,232L213.9,232z
			 M182.2,250.3l26.4-21.3l4.2,2.4L182.2,250.3L182.2,250.3z"/>
	</g>
</g>
<line class="st23" x1="366.1" y1="329.4" x2="437.5" y2="162.9"/>
</svg>
