<?xml version="1.0" encoding="utf-8"?>
<!-- Generator: Adobe Illustrator 21.1.0, SVG Export Plug-In . SVG Version: 6.00 Build 0)  -->
<svg version="1.1" id="Livello_1" xmlns="http://www.w3.org/2000/svg" xmlns:xlink="http://www.w3.org/1999/xlink" x="0px" y="0px"
	 viewBox="0 0 11.4 22.3" style="enable-background:new 0 0 11.4 22.3;" xml:space="preserve">
<style type="text/css">
	.st0{fill:#FFFFFF;}
</style>
<title>back-arrow</title>
<path class="st0" d="M11.1,5.2L6,0.1C5.8,0,5.5,0,5.3,0.1L0.2,5.2C0.1,5.3,0.1,5.4,0.1,5.6c0,0.1,0.1,0.3,0.1,0.4l0.7,0.7
	c0.2,0.2,0.5,0.2,0.7,0l3-3v18.3c0,0.3,0.2,0.5,0.5,0.5h1c0.3,0,0.5-0.2,0.5-0.5V3.6l3,3c0.2,0.2,0.5,0.2,0.7,0l0.7-0.7
	c0.1-0.1,0.1-0.2,0.1-0.4C11.3,5.4,11.2,5.3,11.1,5.2z"/>
</svg>
