<?xml version="1.0" encoding="utf-8"?>
<!-- Generator: Adobe Illustrator 21.1.0, SVG Export Plug-In . SVG Version: 6.00 Build 0)  -->
<svg version="1.1" id="Livello_1" xmlns="http://www.w3.org/2000/svg" xmlns:xlink="http://www.w3.org/1999/xlink" x="0px" y="0px"
	 viewBox="0 0 76.6 76.6" style="enable-background:new 0 0 76.6 76.6;" xml:space="preserve">
<style type="text/css">
	.logo-0{fill:#FFFFFF;}
	.logo-1{fill:#222222;}
</style>
<title>Risorsa 1</title>
<g id="Livello_2">
	<g id="Livello_1-2">
		<rect y="0" class="logo-0" width="76.6" height="76.6"/>
		<path class="logo-1" d="M17.6,48.4c0,0.9,0.3,1.9,1,2.5c1.2,1.3,3.2,1.4,4.5,0.2c0.1-0.1,0.2-0.2,0.2-0.2c0.7-0.7,1-1.6,1-2.5v-3.6
			h5.6v3.6c0.1,2.5-0.9,4.9-2.6,6.8c-3.1,3.5-8.5,3.7-11.9,0.6c-0.2-0.2-0.4-0.4-0.6-0.6C13,53.4,12,51,12,48.4V28.2
			c-0.1-2.5,0.9-4.9,2.6-6.8c3.1-3.5,8.5-3.7,11.9-0.6c0.2,0.2,0.4,0.4,0.6,0.6c1.7,1.8,2.7,4.3,2.6,6.8v3.6h-5.5v-3.6
			c0-0.9-0.3-1.9-1-2.5c-1.2-1.3-3.2-1.4-4.5-0.2c-0.1,0.1-0.2,0.2-0.2,0.2c-0.7,0.7-1,1.6-1,2.5L17.6,48.4z"/>
		<path class="logo-1 nav__logo--animated-dash" d="M42.5,36.4v3.8h-7v-3.8H42.5z"/>
		<path class="logo-1" d="M50.1,18.6h14.4v6h-8.9v11.9h6.7v6h-6.7V52h8.9v6H50.1V18.6z"/>
	</g>
</g>
</svg>
