<!-- Generator: Adobe Illustrator 21.1.0, SVG Export Plug-In  -->
<svg class="section__content--svg-big" version="1.1"
	 xmlns="http://www.w3.org/2000/svg" xmlns:xlink="http://www.w3.org/1999/xlink" xmlns:a="http://ns.adobe.com/AdobeSVGViewerExtensions/3.0/"
	 x="0px" y="0px" width="446.8px" height="408.5px" viewBox="0 0 446.8 408.5" style="enable-background:new 0 0 446.8 408.5;"
	 xml:space="preserve">
<style type="text/css">
	.intro-0{opacity:0.5;fill:none;}
	.intro-1{opacity:0.5;fill:#000000;}
	.intro-2{opacity:0.5;fill:#0D0D0D;enable-background:new    ;}
	.intro-3{opacity:0.3;fill:none;stroke:#E7E2C6;stroke-width:1;stroke-linejoin:round;stroke-miterlimit:10;}
	.intro-4{fill:#D0D0D0;}
	.intro-5{fill:#464547;}
	.intro-6{fill:#979899;}
	.intro-7{fill:#FFFFFF;}
	.intro-8{fill:#E6E7E8;}
	.intro-9{fill:#F69531;}
	.intro-10{fill:#FFFBD9;}
	.intro-11{fill:#F7A787;}
	.intro-12{fill:#EF5B30;}
	.intro-13{opacity:0.13;fill:#231F20;enable-background:new    ;}
	.intro-14{fill:#EDEDED;}
	.intro-15{fill:#E0E0E0;}
	.intro-16{fill:#BEBEBE;}
	.intro-17{fill:#981E30;}
	.intro-18{fill:#CCCCCC;}
	.intro-19{fill:#2D2D2D;}
	.intro-20{fill:#424242;}
	.intro-21{fill:#00C6A3;}
	.intro-22{fill:#00FFA3;}
	.intro-23{fill:#F1F2F2;}
	.intro-24{fill:#A6A8AA;}
</style>
<defs>
</defs>
<g>
	<g class="illustration__animation--shadow-float">
		<polygon class="intro-0" points="135.2,290 133.7,289.9 169.4,293.2 		"/>
		<polygon class="intro-0" points="302.8,370.7 302.7,370.8 335.1,404.8 		"/>
		<polygon class="intro-1" points="177.6,317 178.7,316.3 168.6,322.1 166.5,325.5 147.9,340.5 146,342.1 146.1,342.1 148.2,341.4
			170.3,333 173.3,334.7 182.5,329.4 184.7,326 182.8,320 		"/>
		<polygon class="intro-2" points="182.6,329.4 182.4,329.7 192.1,324 192,324 		"/>
		<polygon class="intro-1" points="178.8,316.3 177.6,317 182.8,320 184.7,326 182.6,329.4 192,324 		"/>
		<polygon class="intro-2" points="178.8,316.3 177.6,317 182.8,320 184.7,326 182.6,329.4 192,324 		"/>
		<polygon class="intro-1" points="263.7,371.2 261.8,365.2 256.6,362.2 257.6,361.6 247.7,367.3 245.6,370.7 227,385.7 225.1,387.3
			225.2,387.3 227.3,386.6 249.4,378.2 252.4,379.9 261.5,374.7 261.5,374.6 		"/>
		<polygon class="intro-2" points="261.7,374.6 261.6,374.6 261.5,374.7 261.3,375 270.9,369.4 270.8,369.3 		"/>
		<polygon class="intro-1" points="261.7,374.6 270.8,369.3 257.5,361.7 256.6,362.2 261.8,365.2 263.7,371.2 261.5,374.6 261.5,374.7
			261.6,374.6 		"/>
		<polygon class="intro-2" points="261.7,374.6 270.8,369.3 257.5,361.7 256.6,362.2 261.8,365.2 263.7,371.2 261.5,374.6 261.5,374.7
			261.6,374.6 		"/>
		<polygon class="intro-1" points="135.2,290 169.4,293.2 133.7,289.9 161.8,297.7 158.7,299.5 167.5,304.2 238.1,263.4 238.1,256.1
			252.6,247.7 252.6,244.9 252.5,245 134,289.8 133.9,289.8 134,289.8 133.7,289.9 		"/>
		<path class="intro-1" d="M299.6,363.2l39.1,45.4l39-90.8l-19.1,11.1l-1.7-4l-0.5-0.3c0-0.1,0-0.2,0-0.3v-0.1v-1.9c0-0.1,0-0.1,0.1-0.2
			c0.1-0.2,0.1-0.4,0.1-0.5c0-0.3-0.1-0.5-0.2-0.7c0-0.1-0.1-0.2-0.1-0.3c0-0.1-0.1-0.1-0.1-0.2c-0.1-0.2-0.3-0.3-0.5-0.4L251.6,260
			c-0.3-0.2-0.6-0.3-1-0.3c-0.3,0-0.7,0.1-1,0.3L171,305.7c-0.5,0.3-0.9,1-0.9,1.7l-0.1,2.5v0.1v0.1c0,0.7,0.4,1.3,1,1.6l7.9,4.5
			l13.2,7.6l0.1,0.1l27.3,15.7l38.1,21.9l13.2,7.6l0.1,0.1l4,2.3c0.3,0.2,0.7,0.3,1,0.3s0.7-0.1,1-0.3l4.4-2.6v1.8l10.8,6.2l3.9-2.3
			l2.8-1.6l-2.9,1.7l-0.7,0.4l43.4,33.3l-0.1-0.1L299.6,363.2l-0.1,0V363L299.6,363.2z M302.8,370.7l32.3,34.1L302.8,370.7
			L302.8,370.7z"/>
	</g>
	<g>
		<line class="intro-3 illustration__animation--stars1" x1="300.2" y1="277.1" x2="260.6" y2="300.3"/>
		<line class="intro-3 illustration__animation--stars2" x1="429.4" y1="89.9" x2="389.8" y2="113"/>
		<line class="intro-3 illustration__animation--stars3" x1="323.3" y1="72.2" x2="283.7" y2="95.4"/>
		<line class="intro-3 illustration__animation--stars4" x1="224.4" y1="190.6" x2="184.7" y2="213.8"/>
		<line class="intro-3 illustration__animation--stars5" x1="428.6" y1="28" x2="389" y2="51.2"/>
		<line class="intro-3 illustration__animation--stars6" x1="375.4" y1="18.2" x2="335.7" y2="41.4"/>
		<line class="intro-3 illustration__animation--stars7" x1="275.5" y1="6.7" x2="235.9" y2="29.8"/>
		<line class="intro-3 illustration__animation--stars8" x1="355.6" y1="311.3" x2="315.9" y2="334.4"/>
		<line class="intro-3 illustration__animation--stars1" x1="197.4" y1="315.3" x2="157.8" y2="338.4"/>
		<line class="intro-3 illustration__animation--stars2" x1="144.4" y1="263" x2="104.8" y2="286.1"/>
		<line class="intro-3 illustration__animation--stars3" x1="159.8" y1="186.3" x2="120.2" y2="209.4"/>
		<line class="intro-3 illustration__animation--stars4" x1="42.3" y1="89.9" x2="2.7" y2="113"/>
		<line class="intro-3 illustration__animation--stars5" x1="65.5" y1="285.2" x2="25.9" y2="308.4"/>
		<line class="intro-3 illustration__animation--stars6" x1="135" y1="320.5" x2="95.3" y2="343.7"/>
		<line class="intro-3 illustration__animation--stars7" x1="65.7" y1="176.9" x2="26.1" y2="200"/>
		<line class="intro-3 illustration__animation--stars8" x1="78.3" y1="223.8" x2="38.7" y2="247"/>
	</g>
	<g class="illustration__animation--solid-float-mobile">
		<g>
			<g>
				<path class="intro-4" d="M115.1,135.8C115.1,135.8,115.2,135.7,115.1,135.8l-3.3-11h0l-9.4-5.3h-0.1l-38,22h0c0,0,0,0-0.1,0
					l-4.2,6.6v0.1l3.4,10.8c0,0,0,0,0,0.1l9.3,5.4l38.1-22L115.1,135.8L115.1,135.8z"/>
				<g>
					<polygon class="intro-5" points="68.3,149.1 67.4,150.6 68.3,153.5 70.7,154.9 71.6,153.4 70.7,150.4 					"/>
					<polygon class="intro-5" points="71.1,159.8 71.5,159.1 66,156 63.9,149.4 63.4,150.1 65.5,156.6 					"/>
					<path class="intro-6" d="M71.5,159.1l2.1-3.3l-2.1-6.5l-5.6-3.2l-2,3.2l2.1,6.6L71.5,159.1z M70.7,154.9l-2.3-1.3l-0.9-3l0.9-1.5
						l2.3,1.3l0.9,3L70.7,154.9z"/>
					<path class="intro-4" d="M115.2,135.8l-38.1,22l0,0l0,0v-0.1l-3.4-10.8c0,0,0,0,0-0.1l0,0l-9.3-5.3h-0.1c0,0,0,0-0.1,0l-4.2,6.6
						v0.1l3.4,10.8c0,0,0,0,0,0.1l9.3,5.4l0,0l0,0l0,0l0,0l38.1-22l0,0L115.2,135.8L115.2,135.8L115.2,135.8z M63.9,149.4l2-3.2
						l5.6,3.2l2.1,6.5l-2.1,3.3l-0.4,0.7l-5.6-3.2l-2.1-6.5L63.9,149.4z"/>
					<path class="intro-7" d="M64.3,141.5l9.3,5.3l38.1-22h0.1l0,0l0,0l-9.4-5.3h-0.1L64.3,141.5C64.2,141.5,64.2,141.5,64.3,141.5
						C64.2,141.5,64.2,141.5,64.3,141.5C64.2,141.5,64.3,141.5,64.3,141.5z"/>
					<path class="intro-8" d="M111.7,124.8l-38.1,22l0,0c0,0,0,0,0,0.1l3.4,10.8v0.1l0,0l0,0l38.1-22l0,0c0,0,0.1-0.1,0-0.1l-3.3-10.9
						C111.9,124.8,111.8,124.8,111.7,124.8C111.8,124.8,111.8,124.8,111.7,124.8C111.8,124.8,111.7,124.8,111.7,124.8z"/>
				</g>
				<g class="illustration__animation--fire2">
					<polygon class="intro-9" points="69.3,149 26.7,175.6 22.8,178.1 26.6,176.7 68.8,160.7 71.5,156.3 71.6,156.2 					"/>
					<polygon class="intro-9" points="26,175.2 22.5,178.1 22.7,178 26.6,175.5 69.3,149 63,145.4 					"/>
				</g>
				<g class="illustration__animation--fire2">
					<g>
						<polygon class="intro-10" points="68.3,148.5 64.1,146.1 37.6,167.4 37.7,167.4 						"/>
						<path class="intro-11" d="M26.7,175.6L26.7,175.6L26.7,175.6z"/>
						<path class="intro-11" d="M22.7,178.1L22.7,178.1L22.7,178.1z"/>
						<path class="intro-9" d="M22.8,178.1l4.1-1.8l0,0l0,0l0,0l0,0l44.7-20.1l0,0l-2.3-7.2l0,0l-42.6,26.6l0,0L22.8,178.1z M26.7,175.6
							L26.7,175.6L26.7,175.6L26.7,175.6z"/>
						<path class="intro-9" d="M22.7,178.1L22.7,178.1L22.7,178.1z"/>
						<polygon class="intro-12" points="26.9,176.3 26.9,176.3 26.9,176.3 26.9,176.3 22.8,178.1 22.7,178.1 22.7,178.1 22.7,178.1
							22.7,178.1 22.7,178.1 22.7,178.1 22.8,178.1 26.6,176.7 26.6,176.7 68.8,160.7 68.8,160.7 71.5,156.3 71.6,156.2 						"/>
					</g>
					<polygon class="intro-0" points="64.1,146.1 37.7,167.4 37.7,167.4 68.3,148.5 					"/>
					<path class="intro-11" d="M69.3,149l-6.3-3.6l0,0l-37,29.8l0,0l0,0l-3.5,2.9l0.2-0.1l3.9-2.5l0,0l0,0L69.3,149L69.3,149z
						 M37.7,167.4l26.4-21.3l4.2,2.4L37.7,167.4L37.7,167.4z"/>
				</g>
			</g>
			<g>
				<g>
					<path class="intro-4" d="M259.6,218.6c0,0,0.1-0.1,0-0.1l-3.3-10.9l-9.4-5.3h-0.1l-38,22c0,0,0,0,0,0c0,0,0,0,0,0c0,0,0,0,0,0
						l-4.2,6.6v0.1l3.4,10.8c0,0,0,0,0,0.1l9.3,5.4l38.1-22L259.6,218.6"/>
					<g>
						<polygon class="intro-5" points="212.9,231.9 211.9,233.4 212.9,236.3 215.2,237.7 216.1,236.2 215.2,233.2 						"/>
						<polygon class="intro-5" points="215.6,242.6 216,241.9 210.6,238.8 208.5,232.2 208,232.9 210,239.4 						"/>
						<path class="intro-6" d="M216,241.9l2.1-3.3l-2.1-6.5l-5.6-3.2l-2,3.2l2.1,6.6L216,241.9z M215.2,237.7l-2.3-1.3l-0.9-3l0.9-1.5
							l2.3,1.3l0.9,3L215.2,237.7z"/>
						<path class="intro-4" d="M259.7,218.6l-38.1,22l0,0l0,0v-0.1l-3.4-10.8c0,0,0,0,0-0.1l0,0l-9.3-5.3h-0.1c0,0,0,0-0.1,0l-4.2,6.6
							v0.1l3.4,10.8c0,0,0,0,0,0.1l9.3,5.4l0,0l0,0l0,0l0,0l38.1-22l0,0L259.7,218.6L259.7,218.6L259.7,218.6z M208.5,232.2l2-3.2
							l5.6,3.2l2.1,6.5l-2.1,3.3l-0.4,0.7l-5.6-3.2L208,233L208.5,232.2z"/>
						<path class="intro-7" d="M208.8,224.3l9.3,5.3l38.1-22h0.1l0,0l0,0l-9.4-5.3h-0.1L208.8,224.3
							C208.7,224.3,208.7,224.3,208.8,224.3C208.7,224.3,208.7,224.3,208.8,224.3C208.7,224.3,208.8,224.3,208.8,224.3z"/>
						<path class="intro-8" d="M256.2,207.6l-38.1,22l0,0c0,0,0,0,0,0.1l3.4,10.8v0.1l0,0l0,0l38.1-22l0,0c0,0,0.1-0.1,0-0.1l-3.3-10.9
							C256.4,207.6,256.4,207.6,256.2,207.6C256.3,207.6,256.3,207.6,256.2,207.6C256.3,207.6,256.3,207.6,256.2,207.6z"/>
					</g>
					<polygon class="intro-9 illustration__animation--fire1" points="213.8,231.9 213.9,231.8 207.6,228.2 170.6,258 167.2,260.9 171.2,259.5 213.3,243.5 216.1,239.1
						216.1,239 					"/>
					<g class="intro-9 illustration__animation--fire1">
						<g>
							<polygon class="intro-10" points="212.9,231.3 208.6,228.9 182.2,250.2 182.3,250.2 							"/>
							<path class="intro-11" d="M171.2,258.4L171.2,258.4L171.2,258.4z"/>
							<path class="intro-11" d="M167.3,260.9L167.3,260.9L167.3,260.9z"/>
							<path class="intro-9" d="M167.3,260.9l4.1-1.8l0,0l0,0l0,0l0,0l44.7-20.1l0,0l-2.3-7.2l0,0l-42.6,26.6l0,0L167.3,260.9z
								 M171.2,258.4L171.2,258.4L171.2,258.4L171.2,258.4z"/>
							<path class="intro-9" d="M167.3,260.9L167.3,260.9L167.3,260.9z"/>
							<polygon class="intro-12" points="171.4,259.1 171.4,259.1 171.4,259.1 171.4,259.1 167.3,260.9 167.3,260.9 167.3,260.9
								167.3,260.9 167.3,260.9 167.3,260.9 167.3,260.9 167.3,260.9 171.2,259.5 171.2,259.5 213.3,243.5 213.3,243.5 216.1,239.1
								216.1,239 							"/>
						</g>
						<polygon class="intro-0" points="208.6,228.9 182.2,250.2 182.3,250.2 212.8,231.3 						"/>
						<path class="intro-11" d="M213.9,231.8l-6.3-3.6l0,0l-37,29.8l0,0l0,0l-3.5,2.9l0.2-0.1l3.9-2.5l0,0l0,0L213.9,231.8L213.9,231.8z
							 M182.2,250.2l26.4-21.3l4.2,2.4L182.2,250.2L182.2,250.2z"/>
					</g>
				</g>
				<polyline class="intro-13" points="102.2,119.4 80.6,132 90.1,137.5 93.6,148.5 89.2,155 123.4,135.1 				"/>
				<polyline class="intro-13" points="246.7,202.2 225.1,214.8 234.7,220.3 238.2,231.3 234.2,237.5 268.5,217.6 				"/>
			</g>
		</g>
		<g class="illustration__animation--float-wings">
			<path class="intro-0" d="M61.9,94.8l0.2,0.1c0.1,0,0.2,0.1,0.2,0.1l-0.1-0.1L61.9,94.8z"/>
			<path class="intro-14" d="M217.8,0l-0.2,0.1L0.1,82.3C0,82.3,0,82.4,0,82.4c0,0.1,0.1,0.1,0.1,0.1c0,0.1,0,0.1,0.1,0.1l50.9,14.1
				l-5.3,3.2l-0.1,0.1c0,0,0,0.1,0.1,0.1l16.1,8.6c0,0,0,0,0.1,0c0,0,0,0,0.1,0c0,0,0.2,0,0.2-0.1L191.6,34l0.1-0.1V20.6l26.5-15.4
				l0.1-0.1V0C218-0.1,217.9,0,217.8,0z M62.1,94.9l-0.2-0.1L62.1,94.9l0.2,0.1C62.3,95,62.2,94.9,62.1,94.9z"/>
		</g>
		<g class="illustration__animation--float-wings">
			<polygon class="intro-14" points="183.1,20.4 74.1,83.7 74.1,83.7 65.6,88.7 65.6,88.7 65.6,88.7 58.2,93 61.9,94.8 191,19.7
				187.5,17.7 			"/>
			<path class="intro-15" d="M217.8,0L217.8,0c-0.1,0,0.2,0.1,0.1,0.2l-30.2,17.5l-0.1,0.1l3.4,1.9L61.9,94.8l0.3,0.1l0.1,0.1v13.6l0,0
				l0,0L191.6,34l0.1-0.1V20.6l26.5-15.4l0.1-0.1V0C218-0.1,217.9,0,217.8,0z"/>
			<path class="intro-16" d="M0,82.3L0,82.3L0,82.3L0,82.3z"/>
			<path class="intro-16" d="M0,82.3L0,82.3L0,82.3z"/>
			<path class="intro-16" d="M74.1,83.7C74.1,83.7,74,83.7,74.1,83.7C74,83.7,74,83.7,74.1,83.7L3.3,82.6l62.2,5.8c0.1,0,0.1,0,0.1,0.1
				s0.1,0.2,0,0.2l0.2-0.1L74.1,83.7z"/>
			<path class="intro-17" d="M0,82.3L0,82.3L0,82.3L0,82.3L0,82.3L0,82.3z"/>
			<path class="intro-18" d="M57.9,92.9L57.9,92.9l0.3,0.1l7.4-4.3l0,0h0.1c0-0.1,0-0.3,0-0.3L3.4,82.6l-3.2-0.1c-0.1,0-0.1,0-0.1-0.1
				l0,0l0,0l0,0v0.1c0,0.1,0,0.1,0.1,0.1l51.2,14.2L57.9,92.9z"/>
			<path class="intro-14" d="M0,82.4C0,82.4,0,82.5,0,82.4c0,0.1,0.1,0.1,0.1,0.1l3.2,0.1L74,83.8l0,0c0,0,0,0,0.1,0l0,0l109-63.3
				l4.5-2.7h0.1l30.2-17.5c0.1,0,0.1-0.1,0.1-0.2S217.9,0,217.8,0l-0.2,0.1L0.1,82.3C0,82.3,0,82.4,0,82.4z"/>
			<path class="intro-18" d="M62.3,95c0,0-0.1-0.1-0.2-0.1l-0.2-0.1l-3.7-1.9L58,92.8h-0.1l-6.7,3.9l-5.4,3.2l-0.1,0.1
				c0,0,0,0.1,0.1,0.1l16.1,8.6c0,0,0,0,0.1,0c0,0,0,0,0.1,0c0,0,0.2,0,0.2-0.1v-0.3L62.3,95L62.3,95z"/>
		</g>
		<g>
			<g>
				<path class="intro-0" d="M66.7,114.8c0-0.1-0.1-0.2-0.1-0.3C66.6,114.5,66.6,114.7,66.7,114.8L66.7,114.8z"/>
				<path class="intro-19" d="M407.5,146.9C407.5,146.9,407.4,147,407.5,146.9C407.4,147,407.5,146.9,407.5,146.9z"/>
				<path class="intro-19" d="M407.8,146.1L407.8,146.1L407.8,146.1z"/>
				<path class="intro-20" d="M407.7,138.8C407.7,138.8,407.7,138.9,407.7,138.8C407.7,138.9,407.7,138.8,407.7,138.8z"/>
				<g>
					<path class="intro-0" d="M161.7,171.1l97.1,55.9c0.2,0.1,0.4,0.2,0.6,0.2c-0.2-0.1-0.4-0.1-0.6-0.2L161.7,171.1z"/>
					<path class="intro-0" d="M66.9,115.6c0.3,0.8,0.8,1.5,1.5,1.9l93.3,53.7l-93.3-53.7C67.7,117.1,67.1,116.4,66.9,115.6z"/>
					<path class="intro-0" d="M259.4,227.3c0.2,0.1,0.4,0.1,0.6,0.2c0.1,0,0.2,0,0.3,0c-0.1,0-0.2,0-0.3,0
						C259.8,227.4,259.6,227.3,259.4,227.3z"/>
					<path class="intro-21" d="M395.4,149.5L197.8,36L68.3,111.3c-1,0.6-1.7,1.8-1.7,3c0,0,0,0,0,0l-0.1,4.6v0.3v0.2
						c0,1.3,0.7,2.4,1.8,3l88.9,51.2L258.7,232c0.5,0.3,1.2,0.5,1.8,0.5s1.2-0.1,1.8-0.5l133.2-77.4v-4.9L395.4,149.5L395.4,149.5z"
						/>
				</g>
				<path class="intro-21" d="M395.5,149.7l0-0.3L262.4,227c-0.6,0.4-1.2,0.5-1.8,0.5c-0.2,0-0.4-0.1-0.6-0.1c-0.4-0.1-0.8-0.2-1.2-0.4
					l-97.1-55.9l-93.3-53.7c-1-0.5-1.6-1.6-1.7-2.7l0,0c0-0.1-0.1-0.2-0.1-0.4l-0.1,4.6v0.3l0,0v0.2c0,1.3,0.7,2.4,1.8,3l88.9,51.2
					L258.7,232c0.5,0.3,1.2,0.5,1.8,0.5s1.2-0.1,1.8-0.5l133.2-77.4L395.5,149.7L395.5,149.7"/>
				<path class="intro-22" d="M68.3,111.3c-1,0.6-1.7,1.8-1.7,3.1c0,0.1,0,0.2,0.1,0.3c0.1,1.1,0.7,2.2,1.7,2.7l93.3,53.7l97.1,55.9
					c0.4,0.2,0.8,0.3,1.2,0.4c0.2,0,0.4,0.1,0.6,0.1c0.6,0,1.2-0.1,1.8-0.5l133-77.5L197.8,36L68.3,111.3z"/>
				<path class="intro-4" d="M406.4,143.2l-2.1,1.2l-7.6,4.5l-1.2,0.6v5v0.1l1.5-0.9l9.2-5.4c0.5-0.3,1-0.8,1.3-1.4l0,0
					c0.1-0.3,0.2-0.5,0.3-0.8c0,0,0,0,0-0.1c0.1-0.3,0.1-0.6,0.1-0.9v-0.2v-3.5C407.6,142.3,407.1,142.9,406.4,143.2z"/>
				<path class="intro-8" d="M408.1,140.2c0-0.5-0.2-0.9-0.4-1.3v-0.1c-0.1-0.2-0.2-0.3-0.3-0.5c-0.1-0.1-0.2-0.2-0.3-0.3
					c-0.2-0.3-0.5-0.6-0.9-0.8L215.6,27.6c-0.5-0.4-1.1-0.5-1.7-0.5s-1.2,0.2-1.7,0.5l-13.5,7.8l-1,0.6l197.6,113.5l0.1,0.1l1.2-0.7
					l7.6-4.5l2.1-1.2c0.7-0.4,1.2-1,1.5-1.7c0-0.1,0.1-0.2,0.1-0.3C408.1,140.9,408.1,140.5,408.1,140.2z"/>
				<path class="intro-4" d="M393.3,141.8l-1.4,0.8l0,0l0,0h-0.1h-0.1l-9.8-5.6c-0.1,0-0.1-0.1-0.1-0.2v1c0,0.1,0,0.2,0.1,0.2l9.8,5.6
					h0.1h0.1l1.4-0.8c0.1,0,0.1-0.1,0.1-0.2v-0.9C393.4,141.7,393.4,141.8,393.3,141.8z"/>
				<path class="intro-4" d="M395.5,141.5l1.4-0.8c0.1,0,0.1-0.1,0.1-0.2v-0.9c0,0,0,0.1-0.1,0.1l-1.4,0.8l0,0l0,0h-0.1h-0.1l-9.8-5.6
					c-0.1,0-0.1-0.1-0.1-0.2v1c0,0.1,0,0.2,0.1,0.2l9.8,5.6h0.1L395.5,141.5L395.5,141.5z"/>
				<path class="intro-4" d="M389.2,133.8l9.8,5.6h0.1h0.1l1.4-0.8c0.1,0,0.1-0.1,0.1-0.2v-1c-0.1,0.1-0.1,0.2-0.1,0.2l-1.4,0.8h-0.1
					H399l0,0h-0.1l-9.8-5.6l0,0v0.8C389.1,133.7,389.1,133.8,389.2,133.8z"/>
				<path class="intro-23" d="M398.9,138.4L398.9,138.4h0.1h0.1l1.4-0.8c0.1,0,0.1-0.1,0.1-0.1s0,0,0-0.1s0-0.2-0.1-0.2l-9.8-5.6
					c-0.1,0-0.2,0-0.2,0l-1.4,0.8c-0.1,0-0.1,0.1-0.1,0.2s0,0.2,0.1,0.2l0,0L398.9,138.4z"/>
				<path class="intro-23" d="M396.9,139.7C397,139.7,397,139.6,396.9,139.7c0.1-0.1,0.1-0.1,0.1-0.1s0,0,0-0.1s0-0.2-0.1-0.2l-9.8-5.6
					c-0.1,0-0.2,0-0.2,0l-1.4,0.8c-0.1,0-0.1,0.1-0.1,0.2s0,0.2,0.1,0.2l9.8,5.6h0.1h0.1l0,0L396.9,139.7z"/>
				<path class="intro-23" d="M383.5,135.8c-0.1,0-0.2,0-0.2,0l-1.4,0.8c-0.1,0-0.1,0.1-0.1,0.2s0,0.2,0.1,0.2l9.8,5.6h0.1h0.1l0,0
					l1.4-0.8c0.1,0,0.1-0.1,0.1-0.1l0,0c0,0,0,0,0-0.1s-0.1-0.2-0.1-0.2L383.5,135.8z"/>

					<ellipse transform="matrix(0.9984 -5.733183e-02 5.733183e-02 0.9984 -1.8238 12.5434)" class="intro-24" cx="217.7" cy="38.1" rx="2.9" ry="1.4"/>

					<ellipse transform="matrix(0.9984 -5.716757e-02 5.716757e-02 0.9984 -2.0206 12.8791)" class="intro-24" cx="224.1" cy="41.8" rx="2.9" ry="1.4"/>

					<ellipse transform="matrix(0.9984 -5.733183e-02 5.733183e-02 0.9984 -2.2269 13.2952)" class="intro-24" cx="230.6" cy="45.5" rx="2.9" ry="1.4"/>
			</g>
			<g>
				<path class="intro-21" d="M240,92.7L240,92.7c-0.1-0.3-0.3-0.7-0.6-0.8l-48.7-28.3c-0.1,0-0.3-0.1-0.4-0.1s-0.2,0-0.4,0.1
					l-20.5,11.8c-0.3,0.1-0.5,0.4-0.5,0.7l0,0c0,0.4,0.1,0.6,0.4,0.8l48.7,28.3c0.3,0.1,0.6,0.1,0.9-0.1l20.5-11.8
					C239.8,93.1,239.9,92.8,240,92.7z"/>
				<path class="intro-21" d="M213.1,108.1L213.1,108.1c-0.1-0.3-0.3-0.7-0.6-0.8L163.8,79c-0.1,0-0.3-0.1-0.4-0.1s-0.2,0-0.4,0.1
					l-10.9,6.3c-0.3,0.1-0.5,0.4-0.5,0.7l0,0c0,0.4,0.1,0.6,0.4,0.8l48.7,28.3c0.3,0.1,0.6,0.1,0.9-0.1l11-6.3
					C212.9,108.6,213.1,108.3,213.1,108.1z"/>
				<path class="intro-7" d="M213.3,88.4L213.3,88.4c-0.1-0.3-0.3-0.7-0.6-0.8L164,59.3c-0.1,0-0.3-0.1-0.4-0.1s-0.2,0-0.4,0.1
					l-10.9,6.3c-0.3,0.1-0.5,0.4-0.5,0.7l0,0c0,0.4,0.1,0.6,0.4,0.8l48.7,28.3c0.3,0.1,0.6,0.1,0.9-0.1l11-6.3
					C213.1,88.9,213.2,88.6,213.3,88.4z"/>
				<path class="intro-7" d="M240.1,73L240.1,73c-0.1-0.3-0.3-0.7-0.6-0.8l-48.7-28.3c-0.1,0-0.3-0.1-0.4-0.1s-0.2,0-0.4,0.1l-20.5,11.8
					c-0.3,0.1-0.5,0.4-0.5,0.7l0,0c0,0.4,0.1,0.6,0.4,0.8l48.7,28.3c0.3,0.1,0.6,0.1,0.9-0.1l20.5-11.8
					C239.9,73.4,240.1,73.1,240.1,73z"/>
			</g>
			<g>
				<g>
					<path class="intro-21" d="M183.4,125L183.4,125c-0.1-0.3-0.3-0.7-0.6-0.8l-27-15.7c-0.1,0-0.3-0.1-0.4-0.1s-0.2,0-0.4,0.1
						l-10.9,6.3c-0.3,0.1-0.5,0.4-0.5,0.7l0,0c0,0.4,0.1,0.6,0.4,0.8l27,15.7c0.3,0.1,0.6,0.1,0.9-0.1l11-6.3
						C183.2,125.5,183.3,125.2,183.4,125z"/>
					<path class="intro-21" d="M166,135L166,135c-0.1-0.3-0.3-0.7-0.6-0.8L116.7,106c-0.1,0-0.3-0.1-0.4-0.1s-0.2,0-0.4,0.1l-1.4,0.8
						c-0.3,0.1-0.5,0.4-0.5,0.7l0,0c0,0.4,0.1,0.6,0.4,0.8l48.7,28.2c0.3,0.1,0.6,0.1,0.9-0.1l1.5-0.8
						C165.8,135.5,166,135.2,166,135z"/>
					<path class="intro-21" d="M160,138.5L160,138.5c-0.1-0.3-0.3-0.7-0.6-0.8l-48.7-28.2c-0.1,0-0.3-0.1-0.4-0.1s-0.2,0-0.4,0.1
						l-1.4,0.8c-0.3,0.1-0.5,0.4-0.5,0.7l0,0c0,0.4,0.1,0.6,0.4,0.8l48.7,28.2c0.3,0.1,0.6,0.1,0.9-0.1l1.5-0.8
						C159.8,139,159.9,138.6,160,138.5z"/>
					<path class="intro-21" d="M153.9,142L153.9,142c-0.1-0.3-0.3-0.7-0.6-0.8l-28.5-16.4c-0.1,0-0.3-0.1-0.4-0.1s-0.2,0-0.4,0.1
						l-1.4,0.8c-0.3,0.1-0.5,0.4-0.5,0.7l0,0c0,0.4,0.1,0.6,0.4,0.8l28.5,16.4c0.3,0.1,0.6,0.1,0.9-0.1l1.5-0.8
						C153.7,142.5,153.9,142.1,153.9,142z"/>
				</g>
				<path class="intro-7" d="M183.5,105.2L183.5,105.2c-0.1-0.3-0.3-0.7-0.6-0.8l-27-15.7c-0.1,0-0.3-0.1-0.4-0.1s-0.2,0-0.4,0.1
					L144.2,95c-0.3,0.1-0.5,0.4-0.5,0.7l0,0c0,0.4,0.1,0.6,0.4,0.8l27,15.7c0.3,0.1,0.6,0.1,0.9-0.1l11-6.3
					C183.3,105.7,183.4,105.4,183.5,105.2z"/>
				<path class="intro-7" d="M166.1,115.2L166.1,115.2c-0.1-0.3-0.3-0.7-0.6-0.8l-48.7-28.2c-0.1,0-0.3-0.1-0.4-0.1s-0.2,0-0.4,0.1
					l-1.4,0.8c-0.3,0.1-0.5,0.4-0.5,0.7l0,0c0,0.4,0.1,0.6,0.4,0.8l48.7,28.2c0.3,0.1,0.6,0.1,0.9-0.1l1.5-0.8
					C165.9,115.7,166.1,115.4,166.1,115.2z"/>
				<path class="intro-7" d="M160.1,118.7L160.1,118.7c-0.1-0.3-0.3-0.7-0.6-0.8l-48.7-28.2c-0.1,0-0.3-0.1-0.4-0.1s-0.2,0-0.4,0.1
					l-1.4,0.8c-0.3,0.1-0.5,0.4-0.5,0.7l0,0c0,0.4,0.1,0.6,0.4,0.8l48.7,28.2c0.3,0.1,0.6,0.1,0.9-0.1l1.5-0.8
					C159.9,119.2,160,118.9,160.1,118.7z"/>
				<path class="intro-7" d="M154,122.2L154,122.2c-0.1-0.3-0.3-0.7-0.6-0.8L124.9,105c-0.1,0-0.3-0.1-0.4-0.1s-0.2,0-0.4,0.1l-1.4,0.8
					c-0.3,0.1-0.5,0.4-0.5,0.7l0,0c0,0.4,0.1,0.6,0.4,0.8l28.5,16.4c0.3,0.1,0.6,0.1,0.9-0.1l1.5-0.8
					C153.8,122.7,154,122.3,154,122.2z"/>
			</g>
			<g>
				<g>
					<path class="intro-21" d="M295.5,124.3L295.5,124.3c-0.1-0.3-0.3-0.7-0.6-0.8l-27-15.7c-0.1,0-0.3-0.1-0.4-0.1s-0.2,0-0.4,0.1
						l-10.9,6.3c-0.3,0.1-0.5,0.4-0.5,0.7l0,0c0,0.4,0.1,0.6,0.4,0.8l27,15.7c0.3,0.1,0.6,0.1,0.9-0.1l11-6.3
						C295.3,124.7,295.4,124.4,295.5,124.3z"/>
					<path class="intro-21" d="M278.1,134.3L278.1,134.3c-0.1-0.3-0.3-0.7-0.6-0.8l-48.7-28.2c-0.1,0-0.3-0.1-0.4-0.1s-0.2,0-0.4,0.1
						l-1.4,0.8c-0.3,0.1-0.5,0.4-0.5,0.7l0,0c0,0.4,0.1,0.6,0.4,0.8l48.7,28.2c0.3,0.1,0.6,0.1,0.9-0.1l1.5-0.8
						C277.9,134.7,278.1,134.4,278.1,134.3z"/>
					<path class="intro-21" d="M272.1,137.8L272.1,137.8c-0.1-0.3-0.3-0.7-0.6-0.8l-48.7-28.2c-0.1,0-0.3-0.1-0.4-0.1s-0.2,0-0.4,0.1
						l-1.4,0.8c-0.3,0.1-0.5,0.4-0.5,0.7l0,0c0,0.4,0.1,0.6,0.4,0.8l48.7,28.2c0.3,0.1,0.6,0.1,0.9-0.1l1.5-0.8
						C271.9,138.2,272,137.9,272.1,137.8z"/>
					<path class="intro-21" d="M266,141.2L266,141.2c-0.1-0.3-0.3-0.7-0.6-0.8L236.9,124c-0.1,0-0.3-0.1-0.4-0.1s-0.2,0-0.4,0.1
						l-1.4,0.8c-0.3,0.1-0.5,0.4-0.5,0.7l0,0c0,0.4,0.1,0.6,0.4,0.8l28.5,16.4c0.3,0.1,0.6,0.1,0.9-0.1l1.5-0.8
						C265.8,141.7,266,141.4,266,141.2z"/>
				</g>
				<path class="intro-7" d="M295.6,104.5L295.6,104.5c-0.1-0.3-0.3-0.7-0.6-0.8L268,88c-0.1,0-0.3-0.1-0.4-0.1s-0.2,0-0.4,0.1
					l-10.9,6.3c-0.3,0.1-0.5,0.4-0.5,0.7l0,0c0,0.4,0.1,0.6,0.4,0.8l27,15.7c0.3,0.1,0.6,0.1,0.9-0.1l11-6.3
					C295.4,104.9,295.5,104.6,295.6,104.5z"/>
				<path class="intro-7" d="M278.2,114.5L278.2,114.5c-0.1-0.3-0.3-0.7-0.6-0.8l-48.7-28.2c-0.1,0-0.3-0.1-0.4-0.1s-0.2,0-0.4,0.1
					l-1.4,0.8c-0.3,0.1-0.5,0.4-0.5,0.7l0,0c0,0.4,0.1,0.6,0.4,0.8l48.7,28.2c0.3,0.1,0.6,0.1,0.9-0.1l1.5-0.8
					C278,114.9,278.2,114.6,278.2,114.5z"/>
				<path class="intro-7" d="M272.2,118L272.2,118c-0.1-0.3-0.3-0.7-0.6-0.8L222.9,89c-0.1,0-0.3-0.1-0.4-0.1s-0.2,0-0.4,0.1l-1.4,0.8
					c-0.3,0.1-0.5,0.4-0.5,0.7l0,0c0,0.4,0.1,0.6,0.4,0.8l48.7,28.2c0.3,0.1,0.6,0.1,0.9-0.1l1.5-0.8
					C272,118.4,272.1,118.1,272.2,118z"/>
				<path class="intro-7" d="M266.1,121.5L266.1,121.5c-0.1-0.3-0.3-0.7-0.6-0.8L237,104.3c-0.1,0-0.3-0.1-0.4-0.1s-0.2,0-0.4,0.1
					l-1.4,0.8c-0.3,0.1-0.5,0.4-0.5,0.7l0,0c0,0.4,0.1,0.6,0.4,0.8l28.5,16.4c0.3,0.1,0.6,0.1,0.9-0.1l1.5-0.8
					C265.9,121.9,266.1,121.6,266.1,121.5z"/>
			</g>
			<g>
				<path class="intro-21" d="M351.4,156.4L351.4,156.4c-0.1-0.3-0.3-0.7-0.6-0.8l-48.7-28.3c-0.1,0-0.3-0.1-0.4-0.1s-0.2,0-0.4,0.1
					l-20.5,11.8c-0.3,0.1-0.5,0.4-0.5,0.7l0,0c0,0.4,0.1,0.6,0.4,0.8l48.7,28.3c0.3,0.1,0.6,0.1,0.9-0.1l20.5-11.8
					C351.2,156.8,351.3,156.5,351.4,156.4z"/>
				<path class="intro-21" d="M324.5,171.8L324.5,171.8c-0.1-0.3-0.3-0.7-0.6-0.8l-48.7-28.3c-0.1,0-0.3-0.1-0.4-0.1s-0.2,0-0.4,0.1
					l-10.9,6.3c-0.3,0.1-0.5,0.4-0.5,0.7l0,0c0,0.4,0.1,0.6,0.4,0.8l48.7,28.3c0.3,0.1,0.6,0.1,0.9-0.1l11-6.3
					C324.3,172.3,324.5,172,324.5,171.8z"/>
				<path class="intro-7" d="M324.7,152.1L324.7,152.1c-0.1-0.3-0.3-0.7-0.6-0.8L275.4,123c-0.1,0-0.3-0.1-0.4-0.1s-0.2,0-0.4,0.1
					l-10.9,6.3c-0.3,0.1-0.5,0.4-0.5,0.7l0,0c0,0.4,0.1,0.6,0.4,0.8l48.7,28.3c0.3,0.1,0.6,0.1,0.9-0.1l11-6.3
					C324.5,152.6,324.6,152.3,324.7,152.1z"/>
				<path class="intro-7" d="M351.5,136.7L351.5,136.7c-0.1-0.3-0.3-0.7-0.6-0.8l-48.7-28.3c-0.1,0-0.3-0.1-0.4-0.1s-0.2,0-0.4,0.1
					l-20.5,11.8c-0.3,0.1-0.5,0.4-0.5,0.7l0,0c0,0.4,0.1,0.6,0.4,0.8l48.7,28.3c0.3,0.1,0.6,0.1,0.9-0.1l20.5-11.8
					C351.3,137.1,351.5,136.8,351.5,136.7z"/>
			</g>
			<g>
				<path class="intro-21" d="M238.3,157.2L238.3,157.2c-0.1-0.3-0.3-0.7-0.6-0.8L189,128.1c-0.1,0-0.3-0.1-0.4-0.1s-0.2,0-0.4,0.1
					l-20.5,11.8c-0.3,0.1-0.5,0.4-0.5,0.7l0,0c0,0.4,0.1,0.6,0.4,0.8l48.7,28.3c0.3,0.1,0.6,0.1,0.9-0.1l20.5-11.8
					C238.1,157.6,238.2,157.3,238.3,157.2z"/>
				<path class="intro-21" d="M211.4,172.6L211.4,172.6c-0.1-0.3-0.3-0.7-0.6-0.8l-48.7-28.3c-0.1,0-0.3-0.1-0.4-0.1s-0.2,0-0.4,0.1
					l-10.9,6.3c-0.3,0.1-0.5,0.4-0.5,0.7l0,0c0,0.4,0.1,0.6,0.4,0.8l48.7,28.3c0.3,0.1,0.6,0.1,0.9-0.1l11-6.3
					C211.2,173.1,211.4,172.8,211.4,172.6z"/>
				<path class="intro-7" d="M211.6,152.9L211.6,152.9c-0.1-0.3-0.3-0.7-0.6-0.8l-48.7-28.3c-0.1,0-0.3-0.1-0.4-0.1s-0.2,0-0.4,0.1
					l-10.9,6.3c-0.3,0.1-0.5,0.4-0.5,0.7l0,0c0,0.4,0.1,0.6,0.4,0.8l48.7,28.3c0.3,0.1,0.6,0.1,0.9-0.1l11-6.3
					C211.4,153.4,211.5,153.1,211.6,152.9z"/>
				<path class="intro-7" d="M238.4,137.5L238.4,137.5c-0.1-0.3-0.3-0.7-0.6-0.8l-48.7-28.3c-0.1,0-0.3-0.1-0.4-0.1s-0.2,0-0.4,0.1
					l-20.5,11.8c-0.3,0.1-0.5,0.4-0.5,0.7l0,0c0,0.4,0.1,0.6,0.4,0.8l48.7,28.3c0.3,0.1,0.6,0.1,0.9-0.1l20.5-11.8
					C238.2,137.9,238.4,137.6,238.4,137.5z"/>
			</g>
			<g>
				<g>
					<path class="intro-21" d="M294.8,188.7L294.8,188.7c-0.1-0.3-0.3-0.7-0.6-0.8l-27-15.7c-0.1,0-0.3-0.1-0.4-0.1s-0.2,0-0.4,0.1
						l-10.9,6.3c-0.3,0.1-0.5,0.4-0.5,0.7l0,0c0,0.4,0.1,0.6,0.4,0.8l27,15.7c0.3,0.1,0.6,0.1,0.9-0.1l11-6.3
						C294.6,189.2,294.7,188.9,294.8,188.7z"/>
					<path class="intro-21" d="M277.4,198.7L277.4,198.7c-0.1-0.3-0.3-0.7-0.6-0.8l-48.7-28.2c-0.1,0-0.3-0.1-0.4-0.1s-0.2,0-0.4,0.1
						l-1.4,0.8c-0.3,0.1-0.5,0.4-0.5,0.7l0,0c0,0.4,0.1,0.6,0.4,0.8l48.7,28.2c0.3,0.1,0.6,0.1,0.9-0.1l1.5-0.8
						C277.2,199.2,277.4,198.9,277.4,198.7z"/>
					<path class="intro-21" d="M271.4,202.2L271.4,202.2c-0.1-0.3-0.3-0.7-0.6-0.8l-48.7-28.2c-0.1,0-0.3-0.1-0.4-0.1s-0.2,0-0.4,0.1
						l-1.4,0.8c-0.3,0.1-0.5,0.4-0.5,0.7l0,0c0,0.4,0.1,0.6,0.4,0.8l48.7,28.2c0.3,0.1,0.6,0.1,0.9-0.1l1.5-0.8
						C271.2,202.7,271.3,202.3,271.4,202.2z"/>
					<path class="intro-21" d="M265.3,205.7L265.3,205.7c-0.1-0.3-0.3-0.7-0.6-0.8l-28.5-16.4c-0.1,0-0.3-0.1-0.4-0.1s-0.2,0-0.4,0.1
						l-1.4,0.8c-0.3,0.1-0.5,0.4-0.5,0.7l0,0c0,0.4,0.1,0.6,0.4,0.8l28.5,16.4c0.3,0.1,0.6,0.1,0.9-0.1l1.5-0.8
						C265.1,206.2,265.3,205.8,265.3,205.7z"/>
				</g>
				<path class="intro-7" d="M294.9,168.9L294.9,168.9c-0.1-0.3-0.3-0.7-0.6-0.8l-27-15.7c-0.1,0-0.3-0.1-0.4-0.1s-0.2,0-0.4,0.1
					l-10.9,6.3c-0.3,0.1-0.5,0.4-0.5,0.7l0,0c0,0.4,0.1,0.6,0.4,0.8l27,15.7c0.3,0.1,0.6,0.1,0.9-0.1l11-6.3
					C294.7,169.4,294.8,169.1,294.9,168.9z"/>
				<path class="intro-7" d="M277.5,178.9L277.5,178.9c-0.1-0.3-0.3-0.7-0.6-0.8l-48.7-28.2c-0.1,0-0.3-0.1-0.4-0.1s-0.2,0-0.4,0.1
					l-1.4,0.8c-0.3,0.1-0.5,0.4-0.5,0.7l0,0c0,0.4,0.1,0.6,0.4,0.8l48.7,28.2c0.3,0.1,0.6,0.1,0.9-0.1l1.5-0.8
					C277.3,179.4,277.5,179.1,277.5,178.9z"/>
				<path class="intro-7" d="M271.5,182.4L271.5,182.4c-0.1-0.3-0.3-0.7-0.6-0.8l-48.7-28.2c-0.1,0-0.3-0.1-0.4-0.1s-0.2,0-0.4,0.1
					l-1.4,0.8c-0.3,0.1-0.5,0.4-0.5,0.7l0,0c0,0.4,0.1,0.6,0.4,0.8l48.7,28.2c0.3,0.1,0.6,0.1,0.9-0.1l1.5-0.8
					C271.3,182.9,271.4,182.6,271.5,182.4z"/>
				<path class="intro-7" d="M265.4,185.9L265.4,185.9c-0.1-0.3-0.3-0.7-0.6-0.8l-28.5-16.4c-0.1,0-0.3-0.1-0.4-0.1s-0.2,0-0.4,0.1
					l-1.4,0.8c-0.3,0.1-0.5,0.4-0.5,0.7l0,0c0,0.4,0.1,0.6,0.4,0.8l28.5,16.4c0.3,0.1,0.6,0.1,0.9-0.1l1.5-0.8
					C265.2,186.4,265.4,186,265.4,185.9z"/>
			</g>
		</g>
		<g class="illustration__animation--float-wings">
			<path class="intro-0" d="M408.8,146.4L408.8,146.4C408.8,146.5,408.8,146.4,408.8,146.4z"/>
			<polygon class="intro-0" points="270.5,216.5 279.2,221.6 279.2,221.5 			"/>
			<polygon class="intro-0" points="303.5,216.7 305.3,220.8 303.6,216.8 			"/>
			<polygon class="intro-14" points="309.9,230.9 309.8,230.8 374.5,299 			"/>
			<path class="intro-14" d="M446.8,133.1L446.8,133.1l-34.9,20.3l-3.1-7.1v0l-8.7-5H400l-28.4,16.5l-101.2,58.7h0l-0.1,0.1v14.2
				c0,0,0,0.1,0.1,0.1l19.8,11.4h0.1c0-0.1,0-0.1,0-0.2l5.7-3.3l1.4-0.8l12.4-7.2l0.1,0.1l64.6,68.1l-64.7-68.2l-13.9,8.1l79.5,61.4
				c0,0,0,0,0.1,0c0,0,0,0,0.1,0l71.2-166.7V133.1l-71.4,166.5L446.8,133.1z M408.8,146.4C408.8,146.4,408.8,146.5,408.8,146.4
				L408.8,146.4z M270.5,216.5l8.7,5l0,0.1L270.5,216.5z M303.5,216.7l0.1,0.1l1.7,4L303.5,216.7z"/>
		</g>
		<g class="illustration__animation--float-wings">
			<g>
				<path class="intro-15" d="M290.1,242.3L290.1,242.3L290.1,242.3L290.1,242.3z"/>
				<path class="intro-15" d="M297.4,238l12.4-7.2l0,0l0,0l-6.3-14.1v-0.1l0,0c0,0,0-0.1,0.1-0.1l108.2-62.9l0.1-0.1l-3.1-7.2l0,0v0.1
					c0,0,0,0.1-0.1,0.1l-129.4,75.2l10.9,20.4v0.1h-0.1c0,0,0,0,0.1,0l5.8-3.4L297.4,238z"/>
				<path class="intro-14" d="M279.2,221.5C279.2,221.5,279.3,221.5,279.2,221.5l0.1,0.2l129.4-75.2l0.1-0.1v-0.1l0,0l-8.7-5H400
					l-28.4,16.5l-101.2,58.7h0.1L279.2,221.5z"/>
				<path class="intro-18" d="M290.3,242.1l-10.9-20.4l-0.1-0.1l0,0l-8.8-5.1h-0.1l-0.1,0.1v14.2c0,0,0,0.1,0.1,0.1l19.8,11.4l0,0l0,0
					h0.1C290.3,242.2,290.3,242.1,290.3,242.1z"/>
			</g>
			<g>
				<polygon class="intro-0" points="375.4,299.6 375.3,299.8 375.2,299.7 375.3,299.8 				"/>
				<polygon class="intro-0" points="309.9,230.9 309.8,230.8 375.3,299.8 				"/>
				<polygon class="intro-16" points="375.3,299.8 375.2,299.7 303.6,216.8 309.4,230.2 309.8,230.8 309.9,230.9 				"/>
				<path class="intro-14" d="M446.8,133.1h-0.1l-35,20.4l-108.2,62.9l-0.1,0.1c0,0,0,0,0,0.1l0.2,0.2l71.6,82.9l0.1,0.1l0.1-0.2
					L446.8,133.1L446.8,133.1L446.8,133.1L446.8,133.1z"/>
				<path class="intro-18" d="M309.8,230.8l-13.9,8.1l79.5,61.4c0,0,0,0,0.1,0c0,0,0,0,0.1,0l-0.3-0.5L309.8,230.8z"/>
			</g>
		</g>
	</g>
</g>
</svg>
