<!-- Generator: Adobe Illustrator 21.1.0, SVG Export Plug-In  -->
<svg class="section__content--svg-small" version="1.1"
	 xmlns="http://www.w3.org/2000/svg" xmlns:xlink="http://www.w3.org/1999/xlink" xmlns:a="http://ns.adobe.com/AdobeSVGViewerExtensions/3.0/"
	 x="0px" y="0px" width="436.1px" height="480.7px" viewBox="0 0 436.1 480.7" style="enable-background:new 0 0 436.1 480.7;"
	 xml:space="preserve">
<style type="text/css">
	.about0{opacity:0.3;fill:#231F20;enable-background:new    ;}
	.about1{fill:#372067;}
	.about2{fill:#CCCCCC;}
	.about3{fill:#EDEDED;}
	.about4{fill:#00FFA3;}
	.about5{fill:#00C6A3;}
	.about6{fill:#00E794;}
	.about7{fill:#2E2E2E;}
	.about8{fill:#FFFFFF;}
</style>
<defs>
	<filter id="dropshadow" height="130%">
	<feGaussianBlur in="SourceAlpha" stdDeviation="3"/> <!-- stdDeviation is how much to blur-->
	<feOffset dx="2" dy="2" result="offsetblur"/> <!-- how much to offset-->
	<feMerge>
		<feMergeNode/> <!-- this contains the offset blurred image-->
		<feMergeNode in="SourceGraphic"/> <!-- this contains the element that the filter is applied to-->
	</feMerge>
</filter>
</defs>
<path class="about0" d="M4.7,301.2l131.5-76.1c1.6-0.9,3.6-0.9,5.4,0l291.9,169.5c1.6,0.9,2.6,2.8,2.6,4.6l0,0c0,1.9-1.1,3.6-2.6,4.6
	L302,479.9c-0.8,0.5-1.6,0.8-2.6,0.8s-1.9-0.4-2.6-0.8L4.9,310.3c-1.6-0.9-2.6-2.8-2.6-4.6l0,0C2,303.9,3,302.1,4.7,301.2z"/>
<g>
	<g>
		<path class="about1" d="M433.9,330L433.9,330L433.9,330z"/>
		<path class="about2" d="M2.7,241.1l291.9,169.5c0.8,0.5,1.6,0.8,2.6,0.8c0.9,0,1.9-0.4,2.6-0.8l131.4-76c1.6-0.9,2.6-2.8,2.6-4.6v7.6
			l0,0l0,0c0,1.9-1.1,3.6-2.6,4.6l-131.4,76.1c-0.8,0.5-1.6,0.8-2.6,0.8c-0.9,0-1.9-0.4-2.6-0.8L2.7,248.8c-1.6-0.9-2.6-2.8-2.6-4.6
			l0,0l0,0v-7.6C0,238.3,1,240,2.7,241.1z"/>
		<path class="about1" d="M0,236.3L0,236.3L0,236.3z"/>
		<path class="about3" d="M2.7,231.8l131.5-76.1c1.6-0.9,3.6-0.9,5.4,0l291.9,169.5c1.6,0.9,2.6,2.8,2.6,4.6l0,0c0,1.9-1.1,3.6-2.6,4.6
			L300,410.5c-0.8,0.5-1.6,0.8-2.6,0.8s-1.9-0.4-2.6-0.8L2.9,240.9c-1.6-0.9-2.6-2.8-2.6-4.6l0,0C0,234.5,1,232.7,2.7,231.8z"/>
	</g>
	<path class="about4" d="M138.9,173.2l29.7,17.1l20.7-12.3l-9.6-5.6c-0.2-0.1-0.2-0.4-0.2-0.5v-6l-13.5-8c-0.2-0.1-0.4-0.1-0.6,0
		L138.6,173c-0.1,0.1-0.2,0.2-0.2,0.4l0.1-0.1C138.6,173.1,138.8,173.1,138.9,173.2z"/>
	<path class="about5" d="M243.9,158.5v0.1c0,0.2-0.1,0.4-0.2,0.5l-26.1,15v19.4c0,0.2-0.1,0.4-0.4,0.5h-0.1h0.1c0.1,0,0.2,0,0.2-0.1
		l26.2-15.1c0.2-0.1,0.2-0.4,0.2-0.5v-19.7C244,158.7,244,158.6,243.9,158.5z"/>
	<path class="about5" d="M350.7,305l-26.1,15.6v31.1c0,0.2-0.1,0.4-0.4,0.5h-0.1h0.1c0.1,0,0.2,0,0.4-0.1l26.3-15.6
		c0.2-0.1,0.2-0.4,0.2-0.5v-31.3c0-0.1-0.1-0.2-0.2-0.4v0.1C351.1,304.8,350.9,305,350.7,305z"/>
	<path class="about4" d="M180.3,151.8l37,21.7c0.2,0.1,0.2,0.4,0.2,0.5v0.1l26.1-15c0.2-0.1,0.2-0.4,0.2-0.5v-0.1
		c0-0.1-0.1-0.2-0.2-0.4l-37-21.7c-0.2-0.1-0.4-0.1-0.6,0l-26.2,15.2c-0.1,0.1-0.2,0.2-0.2,0.4l0.1-0.1
		C179.9,151.7,180.1,151.7,180.3,151.8z"/>
	<path class="about5" d="M109.1,53.5H109c-0.2,0-0.6,0.2-0.7,0.4l-0.1,0.1c-3.1,1.3-4.8,4.9-4.8,9.7l0.5,108.1c0,4.1,1.3,10.8,5,16.1
		c6.7,10.8,16.6,17.1,23.5,15.1h0.1c0.2,0,0.6-0.2,0.7-0.4l0.1-0.1c3.1-1.3,4.8-4.9,4.8-9.7v-16.7c-0.1-0.2-0.4-0.4-0.5-0.6
		c-0.8-1.1-1.6-2.1-2.3-3.4c-3.8-5.3-5-12-5-16.1l-0.5-91.4C123.3,56.4,115.1,51.7,109.1,53.5z"/>
	<path class="about4" d="M98.1,15.3c16.9,0,38.7,15.1,53.1,37c0.5,0.7,1.1,1.6,1.5,2.5c0.6,0.9,1.1,1.9,1.5,2.6
		c9,14.6,14.3,31.7,13.9,44.6v19.1c0,0.2-0.1,0.4-0.4,0.5h-0.1h0.1c0.1,0,0.2,0,0.2-0.1l26.2-15.1c0.2-0.1,0.2-0.4,0.2-0.5V86.6
		c0.5-12.9-4.8-30.1-13.9-44.6c-0.5-0.7-0.9-1.6-1.5-2.6c-0.5-0.8-1.1-1.8-1.5-2.5C159.1,9.1,129.9-6.5,113.6,2.6L89.4,16.5
		c-0.1,0.1-0.2,0.2-0.2,0.4C92,15.9,94.9,15.3,98.1,15.3z"/>
	<path class="about5" d="M303.6,163.4l-0.1-0.1c0,0-0.1,0-0.1-0.1l-25.6-15v61.7l25.8-15.4c0.2-0.1,0.4-0.1,0.6,0l0.1,0.1v-30.9
		L303.6,163.4z"/>
	<path class="about5" d="M350.7,128.6l-26.1,15v31.1c0,0.2-0.1,0.4-0.4,0.5h-0.1h0.1c0.1,0,0.2,0,0.2-0.1l26.3-15.1
		c0.2-0.1,0.2-0.4,0.2-0.5v-31.3c0-0.1-0.1-0.2-0.2-0.4v0.1C351.1,128.2,350.9,128.5,350.7,128.6z"/>
	<path class="about4" d="M248.7,98.2l75.7,44.7c0.2,0.1,0.2,0.4,0.2,0.5v0.1l26.1-15c0.2-0.1,0.2-0.4,0.2-0.5v-0.1
		c0-0.1-0.1-0.2-0.2-0.4L275,82.8c-0.2-0.1-0.4-0.1-0.6,0l-26.3,15.1c-0.1,0.1-0.2,0.2-0.2,0.4l0.1-0.1
		C248.2,98.1,248.5,98.1,248.7,98.2z"/>
	<path class="about5" d="M189.3,178l-20.7,12.3l0.1,0.1c0.2,0.1,0.2,0.4,0.2,0.5v19.3c0.5,11.6-3.2,20.8-10.2,26.1c0.1,0,0.1,0,0.2,0
		c0.1,0,0.2,0,0.2-0.1l22.4-12.7c0.1,0,0.2,0,0.4,0c0.1-0.1,0.2-0.2,0.2-0.4c9.3-4.8,14.2-14.9,13.6-28.3v-12.9L189.3,178z"/>
	<path class="about5" d="M277.7,243v48.9l25.8-15.4c0.2-0.1,0.5-0.1,0.6,0l0.1,0.1v-18L277.7,243z"/>
	<path class="about4" d="M303.5,194.5l-25.8,15.4v0.5l35.2,20.7l26.1-15.5c0.2-0.1,0.4-0.1,0.6,0l0.1,0.1c0-0.1-0.1-0.2-0.2-0.4
		l-35.3-20.7l-0.1-0.1C303.9,194.4,303.7,194.4,303.5,194.5z"/>
	<path class="about4" d="M303.5,276.7l-25.8,15.4v0.5l46.6,27.4c0.2,0.1,0.2,0.4,0.2,0.5v0.1l26.1-15.6c0.2-0.1,0.2-0.4,0.2-0.5v-0.1
		c0-0.1-0.1-0.2-0.2-0.4l-46.5-27.4l-0.1-0.1C304,276.6,303.7,276.6,303.5,276.7z"/>
	<path class="about5" d="M339.1,215.6L313,231.1l0.1,0.1c0.2,0.1,0.2,0.4,0.2,0.5V263c0,0.2-0.1,0.4-0.4,0.5h-0.1h0.1
		c0.1,0,0.2,0,0.4-0.1l26.3-15.6c0.2-0.1,0.2-0.4,0.2-0.5V216c0-0.1-0.1-0.2-0.2-0.4l-0.1-0.1C339.4,215.4,339.3,215.4,339.1,215.6z
		"/>
	<path class="about6" d="M217.5,193.6v-19.4v-0.1c0-0.2-0.1-0.4-0.2-0.5l-37-21.7c-0.2-0.1-0.4-0.1-0.6,0l-0.1,0.1
		c-0.1,0.1-0.2,0.2-0.2,0.4V166v6c0,0.2,0.1,0.4,0.2,0.5l9.6,5.6l6.8,4l20.5,12.1c0.1,0,0.2,0.1,0.4,0.1h0.1h0.1
		C217.4,194,217.5,193.8,217.5,193.6z"/>
	<path class="about6" d="M313.5,263v-31.4c0-0.2-0.1-0.4-0.2-0.5l-0.1-0.1L278,210.3v-0.5v-61.7l25.6,15c0,0,0.1,0,0.1,0.1l0.1,0.1
		l0.6,0.4l19.5,11.5c0.1,0.1,0.2,0.1,0.5,0h0.1c0.2-0.1,0.4-0.4,0.4-0.5v-31.1l0,0c0-0.2-0.1-0.4-0.2-0.5l-75.9-44.7
		c-0.2-0.1-0.4-0.1-0.6,0l-0.1,0.1c-0.1,0.1-0.2,0.2-0.2,0.4v208.4c0,0.2,0.1,0.4,0.2,0.5l75.7,44.7c0.1,0,0.2,0.1,0.4,0.1h0.1h0.1
		c0.2-0.1,0.4-0.4,0.4-0.5V321v-0.1c0-0.2-0.1-0.4-0.2-0.5L278,293v-0.4v-49l26.5,15.5l8.3,4.8c0.1,0.1,0.2,0.1,0.5,0h0.1
		C313.4,263.3,313.5,263.2,313.5,263z"/>
	<path class="about6" d="M169.1,210.2v-19.3c0-0.2-0.1-0.4-0.2-0.5l-0.1-0.1l-29.7-17.1c-0.2-0.1-0.4-0.1-0.6,0l-0.1,0.1
		c-0.1,0.1-0.2,0.2-0.2,0.4v2.5v16.7c0,4.9-1.8,8.5-4.8,9.7c-0.1,0-0.1,0.1-0.1,0.1c-0.1,0.1-0.5,0.4-0.7,0.4h-0.1
		c-6.9,2-16.8-4.3-23.5-15.1c-3.8-5.3-5-12-5-16.1l-0.5-108.1c0-4.9,1.8-8.5,4.8-9.7c0.1,0,0.1-0.1,0.1-0.1c0.1-0.1,0.5-0.4,0.7-0.4
		h0.1c6-1.8,14.3,2.8,20.7,11.2c0.9,1.3,1.9,2.6,2.8,4c3.8,5.3,5,12,5,16.1v19.3c0,0.2,0.1,0.4,0.2,0.5l29.3,17.1
		c0.1,0.1,0.2,0.1,0.5,0h0.1c0.2-0.1,0.4-0.4,0.4-0.5v-19.1c0.5-12.9-4.8-30.1-13.9-44.6c-0.5-0.7-0.9-1.6-1.5-2.6
		c-0.5-0.8-1.1-1.8-1.5-2.5c-14.3-21.7-36.2-37-53.1-37c-3.2,0-6.1,0.6-8.7,1.6c-0.7,0.4-1.4,0.6-2.1,0.9
		c-9.5,4.8-14.6,14.9-14,28.4V154c0,14,5.3,30.1,14.9,45.2c0.5,0.8,1.1,1.6,1.5,2.6c0.5,0.8,1.1,1.8,1.5,2.6
		c14.8,22.4,36.6,37,53.1,37c4,0,7.6-0.8,10.7-2.6c1.4-0.7,2.6-1.5,3.8-2.3C165.8,230.9,169.5,221.8,169.1,210.2z"/>
	<g>
		<path class="about6" d="M268.1,146.5L268.1,146.5L268.1,146.5z"/>
		<path class="about7" d="M274.3,141.4c-0.1-0.1-0.4-0.1-0.5,0l-6.6,3.8l0,0c0.1,0,0.2,0,0.4,0c0.4,0.2,0.5,0.6,0.5,0.9
			c0,0.1,0,0.2-0.1,0.4l6.6-3.9l0,0c0.1-0.1,0.1-0.2,0.1-0.4C274.8,142.1,274.5,141.6,274.3,141.4z"/>
		<path d="M268.2,146.2c0-0.4-0.2-0.7-0.5-0.9c-0.1-0.1-0.2-0.1-0.4,0c-0.1,0-0.1,0.2-0.1,0.4c0,0.4,0.2,0.8,0.5,0.9
			c0.1,0.1,0.2,0.1,0.4,0l0,0l0,0C268.2,146.4,268.2,146.3,268.2,146.2z"/>
	</g>
	<g>
		<path class="about6" d="M176.7,161.8L176.7,161.8L176.7,161.8z"/>
		<path class="about7" d="M183,156.7c-0.1-0.1-0.4-0.1-0.5,0l-6.6,3.8l0,0c0.1,0,0.2,0,0.4,0c0.4,0.2,0.5,0.6,0.5,0.9
			c0,0.1,0,0.2-0.1,0.4l6.6-3.9l0,0c0.1-0.1,0.1-0.2,0.1-0.4C183.5,157.3,183.3,156.9,183,156.7z"/>
		<path d="M177,161.4c0-0.4-0.2-0.7-0.5-0.9c-0.1-0.1-0.2-0.1-0.4,0c-0.1,0-0.1,0.2-0.1,0.4c0,0.4,0.2,0.8,0.5,0.9
			c0.1,0.1,0.2,0.1,0.4,0l0,0l0,0C176.9,161.8,177,161.7,177,161.4z"/>
	</g>
	<g>
		<path class="about6" d="M158.3,120.2L158.3,120.2L158.3,120.2z"/>
		<path class="about7" d="M164.5,115.2c-0.1-0.1-0.4-0.1-0.5,0l-6.6,3.8l0,0c0.1,0,0.2,0,0.4,0c0.4,0.2,0.5,0.6,0.5,0.9
			c0,0.1,0,0.2-0.1,0.4l6.6-3.9l0,0c0.1-0.1,0.1-0.2,0.1-0.4C165,115.8,164.9,115.4,164.5,115.2z"/>
		<path d="M158.4,120c0-0.4-0.2-0.7-0.5-0.9c-0.1-0.1-0.2-0.1-0.4,0c-0.1,0-0.1,0.2-0.1,0.4c0,0.4,0.2,0.8,0.5,0.9
			c0.1,0.1,0.2,0.1,0.4,0l0,0l0,0C158.4,120.2,158.4,120.1,158.4,120z"/>
	</g>
	<g>
		<path class="about6" d="M149.3,71.3h0.1H149.3z"/>
		<path class="about7" d="M155.5,66.1c-0.1-0.1-0.4-0.1-0.5,0l-6.6,3.8l0,0c0.1,0,0.2,0,0.4,0c0.4,0.2,0.5,0.6,0.5,0.9
			c0,0.1,0,0.2-0.1,0.4l6.6-3.9l0,0c0.1-0.1,0.1-0.2,0.1-0.4C156.1,66.7,155.8,66.4,155.5,66.1z"/>
		<path d="M149.5,70.9c0-0.4-0.2-0.7-0.5-0.9c-0.1-0.1-0.2-0.1-0.4,0c-0.1,0-0.1,0.2-0.1,0.4c0,0.4,0.2,0.8,0.5,0.9
			c0.1,0.1,0.2,0.1,0.4,0l0,0l0,0C149.4,71.2,149.5,71.1,149.5,70.9z"/>
	</g>
	<g>
		<path class="about6" d="M149.3,239.4h0.1H149.3z"/>
		<path class="about7" d="M155.5,234.2c-0.1-0.1-0.4-0.1-0.5,0l-6.6,3.8l0,0c0.1,0,0.2,0,0.4,0c0.4,0.2,0.5,0.6,0.5,0.9
			c0,0.1,0,0.2-0.1,0.4l6.6-3.9l0,0c0.1-0.1,0.1-0.2,0.1-0.4C156.1,234.9,155.8,234.5,155.5,234.2z"/>
		<path d="M149.5,239c0-0.4-0.2-0.7-0.5-0.9c-0.1-0.1-0.2-0.1-0.4,0c-0.1,0-0.1,0.2-0.1,0.4c0,0.4,0.2,0.8,0.5,0.9
			c0.1,0.1,0.2,0.1,0.4,0l0,0l0,0C149.4,239.3,149.5,239.2,149.5,239z"/>
	</g>
	<g>
		<path class="about6" d="M107.2,26.8L107.2,26.8L107.2,26.8z"/>
		<path class="about7" d="M113.5,21.6c-0.1-0.1-0.4-0.1-0.5,0l-6.6,3.8l0,0c0.1,0,0.2,0,0.4,0c0.4,0.2,0.5,0.6,0.5,0.9
			c0,0.1,0,0.2-0.1,0.4l6.6-3.9l0,0c0.1-0.1,0.1-0.2,0.1-0.4C113.9,22.3,113.7,21.9,113.5,21.6z"/>
		<path d="M107.4,26.5c0-0.4-0.2-0.7-0.5-0.9c-0.1-0.1-0.2-0.1-0.4,0c-0.1,0-0.1,0.2-0.1,0.4c0,0.4,0.2,0.8,0.5,0.9
			c0.1,0.1,0.2,0.1,0.4,0l0,0l0,0C107.4,26.7,107.4,26.6,107.4,26.5z"/>
	</g>
	<g>
		<path class="about6" d="M107.2,228.7L107.2,228.7L107.2,228.7z"/>
		<path class="about7" d="M113.5,223.5c-0.1-0.1-0.4-0.1-0.5,0l-6.6,3.8l0,0c0.1,0,0.2,0,0.4,0c0.4,0.2,0.5,0.6,0.5,0.9
			c0,0.1,0,0.2-0.1,0.4l6.6-3.9l0,0c0.1-0.1,0.1-0.2,0.1-0.4C113.9,224.2,113.7,223.8,113.5,223.5z"/>
		<path d="M107.4,228.4c0-0.4-0.2-0.7-0.5-0.9c-0.1-0.1-0.2-0.1-0.4,0c-0.1,0-0.1,0.2-0.1,0.4c0,0.4,0.2,0.8,0.5,0.9
			c0.1,0.1,0.2,0.1,0.4,0l0,0l0,0C107.4,228.6,107.4,228.5,107.4,228.4z"/>
	</g>
	<g>
		<path class="about6" d="M73,35.8L73,35.8L73,35.8z"/>
		<path class="about7" d="M79.2,30.8c-0.1-0.1-0.4-0.1-0.5,0l-6.6,3.8l0,0c0.1,0,0.2,0,0.4,0c0.4,0.2,0.5,0.6,0.5,0.9
			c0,0.1,0,0.2-0.1,0.4l6.6-3.9l0,0c0.1-0.1,0.1-0.2,0.1-0.4C79.8,31.4,79.5,30.9,79.2,30.8z"/>
		<path d="M73.2,35.5c0-0.4-0.2-0.7-0.5-0.9c-0.1-0.1-0.2-0.1-0.4,0c-0.1,0-0.1,0.2-0.1,0.4c0,0.4,0.2,0.8,0.5,0.9
			c0.1,0.1,0.2,0.1,0.4,0l0,0l0,0C73.1,35.8,73.2,35.7,73.2,35.5z"/>
	</g>
	<g>
		<path class="about6" d="M73,175.5L73,175.5L73,175.5z"/>
		<path class="about7" d="M79.2,170.5c-0.1-0.1-0.4-0.1-0.5,0l-6.6,3.8l0,0c0.1,0,0.2,0,0.4,0c0.4,0.2,0.5,0.6,0.5,0.9
			c0,0.1,0,0.2-0.1,0.4l6.6-3.9l0,0c0.1-0.1,0.1-0.2,0.1-0.4C79.8,171.1,79.5,170.6,79.2,170.5z"/>
		<path d="M73.2,175.2c0-0.4-0.2-0.7-0.5-0.9c-0.1-0.1-0.2-0.1-0.4,0c-0.1,0-0.1,0.2-0.1,0.4c0,0.4,0.2,0.8,0.5,0.9
			c0.1,0.1,0.2,0.1,0.4,0l0,0l0,0C73.1,175.5,73.2,175.4,73.2,175.2z"/>
	</g>
	<g>
		<path class="about6" d="M71,77.3L71,77.3L71,77.3z"/>
		<path class="about7" d="M77.2,72.1c-0.1-0.1-0.4-0.1-0.5,0l-6.6,3.8l0,0c0.1,0,0.2,0,0.4,0c0.4,0.2,0.5,0.6,0.5,0.9
			c0,0.1,0,0.2-0.1,0.4l6.6-3.9l0,0c0.1-0.1,0.1-0.2,0.1-0.4C77.7,72.8,77.4,72.4,77.2,72.1z"/>
		<path d="M71.1,76.9c0-0.4-0.2-0.7-0.5-0.9c-0.1-0.1-0.2-0.1-0.4,0c-0.1,0-0.1,0.2-0.1,0.4c0,0.4,0.2,0.8,0.5,0.9
			c0.1,0.1,0.2,0.1,0.4,0l0,0l0,0C71.1,77.2,71.1,77,71.1,76.9z"/>
	</g>
	<g>
		<path class="about6" d="M71,147.7L71,147.7L71,147.7z"/>
		<path class="about7" d="M77.2,142.5c-0.1-0.1-0.4-0.1-0.5,0l-6.6,3.8l0,0c0.1,0,0.2,0,0.4,0c0.4,0.2,0.5,0.6,0.5,0.9
			c0,0.1,0,0.2-0.1,0.4l6.6-3.9l0,0c0.1-0.1,0.1-0.2,0.1-0.4C77.7,143.3,77.4,142.8,77.2,142.5z"/>
		<path d="M71.1,147.4c0-0.4-0.2-0.7-0.5-0.9c-0.1-0.1-0.2-0.1-0.4,0c-0.1,0-0.1,0.2-0.1,0.4c0,0.4,0.2,0.8,0.5,0.9
			c0.1,0.1,0.2,0.1,0.4,0l0,0l0,0C71.1,147.6,71.1,147.5,71.1,147.4z"/>
	</g>
	<g>
		<path class="about6" d="M107,54.3L107,54.3L107,54.3z"/>
		<path class="about7" d="M113.2,49.1c-0.1-0.1-0.4-0.1-0.5,0l-6.6,3.8l0,0c0.1,0,0.2,0,0.4,0c0.4,0.2,0.5,0.6,0.5,0.9
			c0,0.1,0,0.2-0.1,0.4l6.6-3.9l0,0c0.1-0.1,0.1-0.2,0.1-0.4C113.8,49.8,113.6,49.3,113.2,49.1z"/>
		<path d="M107.2,53.9c0-0.4-0.2-0.7-0.5-0.9c-0.1-0.1-0.2-0.1-0.4,0c-0.1,0-0.1,0.2-0.1,0.4c0,0.4,0.2,0.8,0.5,0.9
			c0.1,0.1,0.2,0.1,0.4,0l0,0l0,0C107.1,54.2,107.2,54,107.2,53.9z"/>
	</g>
	<g>
		<path class="about6" d="M107,203.4L107,203.4L107,203.4z"/>
		<path class="about7" d="M113.2,198.3c-0.1-0.1-0.4-0.1-0.5,0l-6.6,3.8l0,0c0.1,0,0.2,0,0.4,0c0.4,0.2,0.5,0.6,0.5,0.9
			c0,0.1,0,0.2-0.1,0.4l6.6-3.9l0,0c0.1-0.1,0.1-0.2,0.1-0.4C113.8,198.9,113.6,198.4,113.2,198.3z"/>
		<path d="M107.2,203c0-0.4-0.2-0.7-0.5-0.9c-0.1-0.1-0.2-0.1-0.4,0c-0.1,0-0.1,0.2-0.1,0.4c0,0.4,0.2,0.8,0.5,0.9
			c0.1,0.1,0.2,0.1,0.4,0l0,0l0,0C107.1,203.4,107.2,203.2,107.2,203z"/>
	</g>
	<g>
		<path class="about6" d="M135.2,106.7L135.2,106.7L135.2,106.7z"/>
		<path class="about7" d="M141.4,101.6c-0.1-0.1-0.4-0.1-0.5,0l-6.6,3.8l0,0c0.1,0,0.2,0,0.4,0c0.4,0.2,0.5,0.6,0.5,0.9
			c0,0.1,0,0.2-0.1,0.4l6.6-3.9l0,0c0.1-0.1,0.1-0.2,0.1-0.4C141.9,102.3,141.6,101.8,141.4,101.6z"/>
		<path d="M135.3,106.4c0-0.4-0.2-0.7-0.5-0.9c-0.1-0.1-0.2-0.1-0.4,0c-0.1,0-0.1,0.2-0.1,0.4c0,0.4,0.2,0.8,0.5,0.9
			c0.1,0.1,0.2,0.1,0.4,0l0,0l0,0C135.3,106.6,135.3,106.5,135.3,106.4z"/>
	</g>
	<g>
		<path class="about6" d="M158.9,197L158.9,197L158.9,197z"/>
		<path class="about7" d="M165.1,192c-0.1-0.1-0.4-0.1-0.5,0l-6.6,3.8l0,0c0.1,0,0.2,0,0.4,0c0.4,0.2,0.5,0.6,0.5,0.9
			c0,0.1,0,0.2-0.1,0.4l6.6-3.9l0,0c0.1-0.1,0.1-0.2,0.1-0.4C165.6,192.6,165.4,192.2,165.1,192z"/>
		<path d="M159,196.8c0-0.4-0.2-0.7-0.5-0.9c-0.1-0.1-0.2-0.1-0.4,0c-0.1,0-0.1,0.2-0.1,0.4c0,0.4,0.2,0.8,0.5,0.9
			c0.1,0.1,0.2,0.1,0.4,0l0,0l0,0C159,197,159,196.9,159,196.8z"/>
	</g>
	<g>
		<path class="about6" d="M135.7,183.5h0.1H135.7z"/>
		<path class="about7" d="M141.9,178.3c-0.1-0.1-0.4-0.1-0.5,0l-6.6,3.8l0,0c0.1,0,0.2,0,0.4,0c0.4,0.2,0.5,0.6,0.5,0.9
			c0,0.1,0,0.2-0.1,0.4l6.6-3.9l0,0c0.1-0.1,0.1-0.2,0.1-0.4C142.5,179.1,142.2,178.6,141.9,178.3z"/>
		<path d="M135.9,183.2c0-0.4-0.2-0.7-0.5-0.9c-0.1-0.1-0.2-0.1-0.4,0c-0.1,0-0.1,0.2-0.1,0.4c0,0.4,0.2,0.8,0.5,0.9
			c0.1,0.1,0.2,0.1,0.4,0l0,0l0,0C135.8,183.4,135.9,183.3,135.9,183.2z"/>
	</g>
	<g>
		<path class="about6" d="M176.7,174.7L176.7,174.7L176.7,174.7z"/>
		<path class="about7" d="M183,169.7c-0.1-0.1-0.4-0.1-0.5,0l-6.6,3.8l0,0c0.1,0,0.2,0,0.4,0c0.4,0.2,0.5,0.6,0.5,0.9
			c0,0.1,0,0.2-0.1,0.4l6.6-3.9l0,0c0.1-0.1,0.1-0.2,0.1-0.4C183.5,170.2,183.3,169.9,183,169.7z"/>
		<path d="M177,174.4c0-0.4-0.2-0.7-0.5-0.9c-0.1-0.1-0.2-0.1-0.4,0c-0.1,0-0.1,0.2-0.1,0.4c0,0.4,0.2,0.8,0.5,0.9
			c0.1,0.1,0.2,0.1,0.4,0l0,0l0,0C176.9,174.7,177,174.6,177,174.4z"/>
	</g>
	<g>
		<path class="about6" d="M207.6,180L207.6,180L207.6,180z"/>
		<path class="about7" d="M213.7,174.8c-0.1-0.1-0.4-0.1-0.5,0l-6.6,3.8l0,0c0.1,0,0.2,0,0.4,0c0.4,0.2,0.5,0.6,0.5,0.9
			c0,0.1,0,0.2-0.1,0.4l6.6-3.9l0,0c0.1-0.1,0.1-0.2,0.1-0.4C214.3,175.4,214.1,175.1,213.7,174.8z"/>
		<path d="M207.7,179.6c0-0.4-0.2-0.7-0.5-0.9c-0.1-0.1-0.2-0.1-0.4,0c-0.1,0-0.1,0.2-0.1,0.4c0,0.4,0.2,0.8,0.5,0.9
			c0.1,0.1,0.2,0.1,0.4,0l0,0l0,0C207.6,179.9,207.7,179.8,207.7,179.6z"/>
	</g>
	<g>
		<path class="about6" d="M207.6,192.9L207.6,192.9L207.6,192.9z"/>
		<path class="about7" d="M213.7,187.7c-0.1-0.1-0.4-0.1-0.5,0l-6.6,3.8l0,0c0.1,0,0.2,0,0.4,0c0.4,0.2,0.5,0.6,0.5,0.9
			c0,0.1,0,0.2-0.1,0.4l6.6-3.9l0,0c0.1-0.1,0.1-0.2,0.1-0.4C214.3,188.4,214.1,188,213.7,187.7z"/>
		<path d="M207.7,192.6c0-0.4-0.2-0.7-0.5-0.9c-0.1-0.1-0.2-0.1-0.4,0c-0.1,0-0.1,0.2-0.1,0.4c0,0.4,0.2,0.8,0.5,0.9
			c0.1,0.1,0.2,0.1,0.4,0l0,0l0,0C207.6,192.8,207.7,192.7,207.7,192.6z"/>
	</g>
	<g>
		<path class="about6" d="M245.3,309.3L245.3,309.3L245.3,309.3z"/>
		<path class="about7" d="M251.5,304.2c-0.1-0.1-0.4-0.1-0.5,0l-6.6,3.8l0,0c0.1,0,0.2,0,0.4,0c0.4,0.2,0.5,0.6,0.5,0.9
			c0,0.1,0,0.2-0.1,0.4l6.6-3.9l0,0c0.1-0.1,0.1-0.2,0.1-0.4C252.1,304.9,251.9,304.4,251.5,304.2z"/>
		<path d="M245.5,309c0-0.4-0.2-0.7-0.5-0.9c-0.1-0.1-0.2-0.1-0.4,0c-0.1,0-0.1,0.2-0.1,0.4c0,0.4,0.2,0.8,0.5,0.9
			c0.1,0.1,0.2,0.1,0.4,0l0,0l0,0C245.4,309.2,245.5,309.1,245.5,309z"/>
	</g>
	<g>
		<path class="about6" d="M245.3,215.4L245.3,215.4L245.3,215.4z"/>
		<path class="about7" d="M251.5,210.3c-0.1-0.1-0.4-0.1-0.5,0l-6.6,3.8l0,0c0.1,0,0.2,0,0.4,0c0.4,0.2,0.5,0.6,0.5,0.9
			c0,0.1,0,0.2-0.1,0.4l6.6-3.9l0,0c0.1-0.1,0.1-0.2,0.1-0.4C252.1,211,251.9,210.5,251.5,210.3z"/>
		<path d="M245.5,215.1c0-0.4-0.2-0.7-0.5-0.9c-0.1-0.1-0.2-0.1-0.4,0c-0.1,0-0.1,0.2-0.1,0.4c0,0.4,0.2,0.8,0.5,0.9
			c0.1,0.1,0.2,0.1,0.4,0l0,0l0,0C245.4,215.3,245.5,215.2,245.5,215.1z"/>
	</g>
	<g>
		<path class="about6" d="M245.3,108.6L245.3,108.6L245.3,108.6z"/>
		<path class="about7" d="M251.5,103.5c-0.1-0.1-0.4-0.1-0.5,0l-6.6,3.8l0,0c0.1,0,0.2,0,0.4,0c0.4,0.2,0.5,0.6,0.5,0.9
			c0,0.1,0,0.2-0.1,0.4l6.6-3.9l0,0c0.1-0.1,0.1-0.2,0.1-0.4C252.1,104.2,251.9,103.7,251.5,103.5z"/>
		<path d="M245.5,108.3c0-0.4-0.2-0.7-0.5-0.9c-0.1-0.1-0.2-0.1-0.4,0c-0.1,0-0.1,0.2-0.1,0.4c0,0.4,0.2,0.8,0.5,0.9
			c0.1,0.1,0.2,0.1,0.4,0l0,0l0,0C245.4,108.5,245.5,108.4,245.5,108.3z"/>
	</g>
	<g>
		<path class="about6" d="M314.8,149.6L314.8,149.6L314.8,149.6z"/>
		<path class="about7" d="M321,144.4c-0.1-0.1-0.4-0.1-0.5,0l-6.6,3.8l0,0c0.1,0,0.2,0,0.4,0c0.4,0.2,0.5,0.6,0.5,0.9
			c0,0.1,0,0.2-0.1,0.4l6.6-3.9l0,0c0.1-0.1,0.1-0.2,0.1-0.4C321.5,145,321.2,144.7,321,144.4z"/>
		<path d="M314.9,149.2c0-0.4-0.2-0.7-0.5-0.9c-0.1-0.1-0.2-0.1-0.4,0c-0.1,0-0.1,0.2-0.1,0.4c0,0.4,0.2,0.8,0.5,0.9
			c0.1,0.1,0.2,0.1,0.4,0l0,0l0,0C314.9,149.5,314.9,149.4,314.9,149.2z"/>
	</g>
	<g>
		<path class="about6" d="M314.9,173.7L314.9,173.7L314.9,173.7z"/>
		<path class="about7" d="M321.1,168.5c-0.1-0.1-0.4-0.1-0.5,0l-6.6,3.8l0,0c0.1,0,0.2,0,0.4,0c0.4,0.2,0.5,0.6,0.5,0.9
			c0,0.1,0,0.2-0.1,0.4l6.6-3.9l0,0c0.1-0.1,0.1-0.2,0.1-0.4C321.6,169.2,321.4,168.7,321.1,168.5z"/>
		<path d="M315,173.3c0-0.4-0.2-0.7-0.5-0.9c-0.1-0.1-0.2-0.1-0.4,0c-0.1,0-0.1,0.2-0.1,0.4c0,0.4,0.2,0.8,0.5,0.9
			c0.1,0.1,0.2,0.1,0.4,0l0,0l0,0C315,173.5,315,173.4,315,173.3z"/>
	</g>
	<g>
		<path class="about6" d="M314.8,326.8L314.8,326.8L314.8,326.8z"/>
		<path class="about7" d="M321,321.7c-0.1-0.1-0.4-0.1-0.5,0l-6.6,3.8l0,0c0.1,0,0.2,0,0.4,0c0.4,0.2,0.5,0.6,0.5,0.9
			c0,0.1,0,0.2-0.1,0.4l6.6-3.9l0,0c0.1-0.1,0.1-0.2,0.1-0.4C321.5,322.3,321.2,321.9,321,321.7z"/>
		<path d="M314.9,326.5c0-0.4-0.2-0.7-0.5-0.9c-0.1-0.1-0.2-0.1-0.4,0c-0.1,0-0.1,0.2-0.1,0.4c0,0.4,0.2,0.8,0.5,0.9
			c0.1,0.1,0.2,0.1,0.4,0l0,0l0,0C314.9,326.7,314.9,326.6,314.9,326.5z"/>
	</g>
	<g>
		<path class="about6" d="M314.9,350.9L314.9,350.9L314.9,350.9z"/>
		<path class="about7" d="M321.1,345.7c-0.1-0.1-0.4-0.1-0.5,0l-6.6,3.8l0,0c0.1,0,0.2,0,0.4,0c0.4,0.2,0.5,0.6,0.5,0.9
			c0,0.1,0,0.2-0.1,0.4l6.6-3.9l0,0c0.1-0.1,0.1-0.2,0.1-0.4C321.6,346.4,321.4,346,321.1,345.7z"/>
		<path d="M315,350.5c0-0.4-0.2-0.7-0.5-0.9c-0.1-0.1-0.2-0.1-0.4,0c-0.1,0-0.1,0.2-0.1,0.4c0,0.4,0.2,0.8,0.5,0.9
			c0.1,0.1,0.2,0.1,0.4,0l0,0l0,0C315,350.8,315,350.7,315,350.5z"/>
	</g>
	<g>
		<path class="about6" d="M303.7,238L303.7,238L303.7,238z"/>
		<path class="about7" d="M309.9,232.8c-0.1-0.1-0.4-0.1-0.5,0l-6.6,3.8l0,0c0.1,0,0.2,0,0.4,0c0.4,0.2,0.5,0.6,0.5,0.9
			c0,0.1,0,0.2-0.1,0.4l6.6-3.9l0,0c0.1-0.1,0.1-0.2,0.1-0.4C310.4,233.5,310.2,233,309.9,232.8z"/>
		<path d="M303.9,237.6c0-0.4-0.2-0.7-0.5-0.9c-0.1-0.1-0.2-0.1-0.4,0c-0.1,0-0.1,0.2-0.1,0.4c0,0.4,0.2,0.8,0.5,0.9
			c0.1,0.1,0.2,0.1,0.4,0l0,0l0,0C303.7,237.9,303.9,237.7,303.9,237.6z"/>
	</g>
	<g>
		<path class="about6" d="M303.6,262.4L303.6,262.4L303.6,262.4z"/>
		<path class="about7" d="M309.9,257.2c-0.1-0.1-0.4-0.1-0.5,0l-6.6,3.8l0,0c0.1,0,0.2,0,0.4,0c0.4,0.2,0.5,0.6,0.5,0.9
			c0,0.1,0,0.2-0.1,0.4l6.6-3.9l0,0c0.1-0.1,0.1-0.2,0.1-0.4S310.1,257.5,309.9,257.2z"/>
		<path d="M303.7,262c0-0.4-0.2-0.7-0.5-0.9c-0.1-0.1-0.2-0.1-0.4,0c-0.1,0-0.1,0.2-0.1,0.4c0,0.4,0.2,0.8,0.5,0.9
			c0.1,0.1,0.2,0.1,0.4,0l0,0l0,0C303.7,262.3,303.7,262.2,303.7,262z"/>
	</g>
	<g>
		<path class="about6" d="M268.1,241.7L268.1,241.7L268.1,241.7z"/>
		<path class="about7" d="M274.3,236.7c-0.1-0.1-0.4-0.1-0.5,0l-6.6,3.8l0,0c0.1,0,0.2,0,0.4,0c0.4,0.2,0.5,0.6,0.5,0.9
			c0,0.1,0,0.2-0.1,0.4l6.6-3.9l0,0c0.1-0.1,0.1-0.2,0.1-0.4C274.8,237.3,274.5,236.9,274.3,236.7z"/>
		<path d="M268.2,241.4c0-0.4-0.2-0.7-0.5-0.9c-0.1-0.1-0.2-0.1-0.4,0c-0.1,0-0.1,0.2-0.1,0.4c0,0.4,0.2,0.8,0.5,0.9
			c0.1,0.1,0.2,0.1,0.4,0l0,0l0,0C268.2,241.7,268.2,241.6,268.2,241.4z"/>
	</g>
	<g>
		<path class="about6" d="M268.1,216.5L268.1,216.5L268.1,216.5z"/>
		<path class="about7" d="M274.3,211.4c-0.1-0.1-0.4-0.1-0.5,0l-6.6,3.8l0,0c0.1,0,0.2,0,0.4,0c0.4,0.2,0.5,0.6,0.5,0.9
			c0,0.1,0,0.2-0.1,0.4l6.6-3.9l0,0c0.1-0.1,0.1-0.2,0.1-0.4C274.8,212,274.5,211.7,274.3,211.4z"/>
		<path d="M268.2,216.3c0-0.4-0.2-0.7-0.5-0.9c-0.1-0.1-0.2-0.1-0.4,0c-0.1,0-0.1,0.2-0.1,0.4c0,0.4,0.2,0.8,0.5,0.9
			c0.1,0.1,0.2,0.1,0.4,0l0,0l0,0C268.2,216.5,268.2,216.4,268.2,216.3z"/>
	</g>
	<g>
		<path class="about6" d="M268.1,298.5L268.1,298.5L268.1,298.5z"/>
		<path class="about7" d="M274.3,293.5c-0.1-0.1-0.4-0.1-0.5,0l-6.6,3.8l0,0c0.1,0,0.2,0,0.4,0c0.4,0.2,0.5,0.6,0.5,0.9
			c0,0.1,0,0.2-0.1,0.4l6.6-3.9l0,0c0.1-0.1,0.1-0.2,0.1-0.4C274.8,294.1,274.5,293.6,274.3,293.5z"/>
		<path d="M268.2,298.2c0-0.4-0.2-0.7-0.5-0.9c-0.1-0.1-0.2-0.1-0.4,0c-0.1,0-0.1,0.2-0.1,0.4c0,0.4,0.2,0.8,0.5,0.9
			c0.1,0.1,0.2,0.1,0.4,0l0,0l0,0C268.2,298.5,268.2,298.4,268.2,298.2z"/>
	</g>
	<g>
		<g>
			<path class="about8" style="filter: url(#dropshadow)" d="M245.4,109.8l67.5,39.9v21.7l-13.4-7.9h-0.1l-0.6-0.6l-0.8-0.1l-25.1-14.7l-7-4.1v8.2v61.7v0.5v2.7l2.3,1.4
				l33.3,19.6v21.7l-2.1-1.3L272.9,243l-7-4.1v8.2V296v0.5v2.7l2.3,1.4l44.6,26.2v21.7l-67.5-39.9v-199 M241.3,101.9
				c-0.1,0-0.2,0-0.2,0.1l-0.1,0.1c-0.1,0.1-0.2,0.2-0.2,0.4v208.4c0,0.2,0.1,0.4,0.2,0.5l75.7,44.7c0.1,0,0.2,0.1,0.4,0.1h0.1h0.1
				c0.2-0.1,0.4-0.4,0.4-0.5v-31.2v-0.1c0-0.2-0.1-0.4-0.2-0.5l-46.7-27.3v-0.5v-48.9l26.5,15.5l8.3,4.8c0.1,0,0.1,0.1,0.2,0.1h0.1
				h0.1c0.2-0.1,0.4-0.4,0.4-0.5v-31.3c0-0.2-0.1-0.4-0.2-0.5l-0.1-0.1l-35.2-20.7V214v-61.7l25.6,15c0,0,0.1,0,0.1,0.1l0.1,0.1
				l0.6,0.4l19.5,11.5c0.1,0,0.1,0.1,0.2,0.1s0.1,0,0.2,0h0.1c0.2-0.1,0.4-0.4,0.4-0.5v-31.1v-0.1c0-0.2-0.1-0.4-0.2-0.5l-75.7-44.7
				C241.5,102,241.4,101.9,241.3,101.9L241.3,101.9z"/>
		</g>
	</g>
	<g>
		<g>
			<g>
				<path class="about8" style="filter: url(#dropshadow)" style="filter: url(#dropshadow)" d="M177.1,163.4l28.8,16.9v10l-14.3-8.5l-6.8-4l-7.5-4.5v-3.6v-6.3 M173,155.7c-0.1,0-0.2,0-0.2,0.1l-0.1,0.1
					c-0.1,0.1-0.2,0.2-0.2,0.4v13.6v6c0,0.2,0.1,0.4,0.2,0.5l9.6,5.6l6.8,4l20.5,12.1c0.1,0,0.2,0.1,0.4,0.1h0.1h0.1
					c0.2-0.1,0.4-0.4,0.4-0.5v-19.4v-0.1c0-0.2-0.1-0.4-0.2-0.5l-37-21.7C173.1,155.7,173,155.7,173,155.7L173,155.7z"/>
			</g>
		</g>
	</g>
	<g>
		<g>
			<path class="about8" style="filter: url(#dropshadow)" d="M90.8,24.3c15.1,0,35.8,14.7,49.2,34.9c0.5,0.6,0.9,1.4,1.4,2.3c0.6,0.9,1.1,1.9,1.6,2.7
				c8.6,13.9,13.6,29.9,13.1,41.9v0.1v0.1v12L135,106V89.1c0-4.9-1.5-12.4-5.8-18.7c-0.9-1.4-1.9-2.9-2.9-4.2
				c-6.5-8.3-14.6-13.4-21.7-13.4c-1.3,0-2.5,0.1-3.5,0.5c-1.1,0.1-1.9,0.6-2.5,1.1c-4.5,2.2-7,7.3-7,13.9l0.5,108.1
				c0,5,1.5,12.4,5.8,18.7c6.7,10.7,16.3,17.6,24.8,17.6c1.3,0,2.5-0.1,3.6-0.5c1.1-0.1,1.9-0.6,2.5-1.1c4.5-2.2,7-7.3,7-13.9v-12
				l21.6,12.4v17v0.1v0.1c0.4,10.1-2.6,17.7-8.3,22.2c-0.9,0.7-2,1.4-3.1,1.9h-0.1h-0.1c-2.3,1.3-5.2,2-8.5,2
				c-15.1,0-35.8-14.7-49.2-34.9c-0.5-0.6-0.9-1.4-1.4-2.2c-0.5-0.9-1.1-1.9-1.6-2.8C75.9,186.6,71,171.5,71,158.4V50.8v-0.2v-0.1
				c-0.5-11.6,3.6-20.2,11.4-24.1h0.1h0.1c0.5-0.2,0.9-0.5,1.5-0.7C86,24.7,88.3,24.3,90.8,24.3 M90.8,19.6c-3.2,0-6.1,0.6-8.7,1.6
				c-0.7,0.4-1.4,0.6-2.1,0.9C70.5,26.9,65.4,37,66,50.5v107.6c0,14,5.3,30.1,14.9,45.2c0.5,0.8,1.1,1.6,1.5,2.6
				c0.5,0.8,1.1,1.8,1.5,2.6c14.8,22.4,36.6,37,53.1,37l0,0c4,0,7.6-0.8,10.7-2.6c1.4-0.7,2.6-1.5,3.8-2.3
				c7-5.4,10.7-14.4,10.2-26.1v-19.3c0-0.2-0.1-0.4-0.2-0.5l-0.1-0.1l-29.7-17c-0.1,0-0.2-0.1-0.2-0.1s-0.2,0-0.2,0.1l-0.1,0.1
				c-0.1,0.1-0.2,0.2-0.2,0.4v2.5v16.7c0,4.9-1.8,8.5-4.8,9.7c-0.1,0-0.1,0.1-0.1,0.1c-0.1,0.1-0.5,0.4-0.7,0.4h-0.1
				c-0.8,0.2-1.8,0.4-2.7,0.4c-6.7,0-15-6.1-20.8-15.5c-3.8-5.3-5-12-5-16.1L96.3,68.2c0-4.9,1.8-8.5,4.8-9.7c0.1,0,0.1-0.1,0.1-0.1
				c0.1-0.1,0.5-0.4,0.7-0.4h0.1c0.8-0.2,1.8-0.4,2.7-0.4c5.6,0,12.6,4.3,18.1,11.5c0.9,1.3,1.9,2.6,2.8,4c3.8,5.3,5,12,5,16.1v19.3
				c0,0.2,0.1,0.4,0.2,0.5l29.3,17.1c0.1,0,0.1,0.1,0.2,0.1c0.1,0,0.1,0,0.2,0h0.1c0.2-0.1,0.4-0.4,0.4-0.5v-19.1
				c0.5-12.9-4.8-30.1-13.9-44.6c-0.5-0.7-0.9-1.6-1.5-2.6c-0.5-0.8-1.1-1.8-1.5-2.5C129.5,34.8,107.7,19.6,90.8,19.6L90.8,19.6z"/>
		</g>
	</g>
</g>
</svg>
