<!-- Generator: Adobe Illustrator 21.1.0, SVG Export Plug-In  -->
<svg class="section__content--svg-small" version="1.1"
	 xmlns="http://www.w3.org/2000/svg" xmlns:xlink="http://www.w3.org/1999/xlink" xmlns:a="http://ns.adobe.com/AdobeSVGViewerExtensions/3.0/"
	 x="0px" y="0px" width="429px" height="349.6px" viewBox="0 0 429 349.6" style="enable-background:new 0 0 429 349.6;"
	 xml:space="preserve">
<style type="text/css">
	.skills0{opacity: 0.2;fill:#050000;enable-background:new    ;}
	.skills1{fill:#D0D0D0;}
	.skills2{fill:#BEBEBE;}
	.skills3{fill:#EBEBEB;}
	.skills4{fill:#00C6A3;}
	.skills5{fill:#00FFA3;}
	.skills6{fill:#FFFFFF;}
	.skills7{fill:#EBEBEB;}
	.skills8{fill:none;}
</style>
<defs>
</defs>
<path class="skills0" d="M425.5,137.7l0.2-0.3l-15.3-8.8c1.8-4.2,2.6-6.9,3.1-7.7c0.5-0.9,0.6-2.2,0.3-3.5c1.5-4.5-4.8-13.7-17.6-15
	c0,0-19.7-1.4-54.4,6.1l-18.6-10.7c3.6-8.5,3.5-16.5-0.4-19.4l0.2-0.3l-28.3-16.3c-5.2-3.1-14.4,3-20.5,13.5
	c-6.1,10.6-6.8,21.6-1.5,24.6l-0.2-0.1l26.5,15.3c0.4,0.4,0.8,0.8,1.3,1c4.5,2.6,11.9-1.5,17.8-9.4l9,5.2
	c-19.7,5.1-43.2,12.9-69.9,24.7c-59,26.2-134.6,82.7-185.5,127.5l-17.6-10.2c3.6-8.5,3.6-16.5-0.4-19.4l0.2-0.3l-28.3-16.3
	c-5.2-3.1-14.4,3-20.5,13.5C-1,242-1.7,253,3.6,256l-0.2-0.1L30,271.3c0.4,0.4,0.8,0.7,1.2,1c4.5,2.6,11.9-1.5,17.8-9.4l14.6,8.4
	c-19,17.2-33.8,32.2-41.7,42.3c0,0-12.9,18.1-11.3,25c-0.3,1.6-0.2,2.9,0.3,3.9c3.3,6,12.7,10.3,37.3,3.8c9.4-2.5,36.1-11,70.5-23.8
	l14,8.1c0.4,0.4,0.8,0.8,1.3,1c5.3,3,14.5-3,20.5-13.6c2.2-3.8,3.6-7.6,4.4-11.1c49.6-20,106.1-45.7,149.7-73.5
	c38.8-24.7,63.3-48.3,78.8-67.5l14.5,8.4c0.4,0.4,0.8,0.8,1.3,1.1c5.3,3,14.5-3,20.5-13.6C429.4,151.7,430.2,141.1,425.5,137.7z"/>
<g>
	<rect x="413.1" y="54.9" class="skills1" width="1.4" height="3"/>
	<rect x="10.8" y="276.6" class="skills1" width="1.4" height="3"/>
	<path class="skills2" d="M396.7,44.3c0,0-53.3-3.7-139,34.3s-206.3,140-235.3,177c0,0-14.3,20-11,26s12.7,10.3,37.3,3.8
		C73.4,278.9,219,229.9,309,172.6S411.9,63.9,414,59.9C416.3,55.7,410,45.6,396.7,44.3z"/>
	<path class="skills3" d="M396.7,41.4c0,0-53.3-3.7-139,34.3s-206.3,140-235.3,177c0,0-14.3,20-11,26s12.7,10.3,37.3,3.8
		C73.4,276,219,227,309,169.7S412.2,60.3,414,57C416.4,52.8,410.1,42.7,396.7,41.4z"/>
	<path class="skills4" d="M250.5,133.7l-1.8-0.7c-8.1-4.8-20.7-4.8-28.8,0l0,0c-8.1,4.4-8.1,11.8,0,16.2l1.8,0.7
		c8.1,4.4,20.7,4.4,28.8,0l0,0C258.6,145.9,258.6,138.2,250.5,133.7z"/>
	<path class="skills4" d="M223.3,182.9l-0.2-0.1c-1-0.6-2.4-0.6-3.4,0l0,0c-1,0.5-1,1.4,0,1.9l0.2,0.1c1,0.5,2.4,0.5,3.4,0l0,0
		C224.3,184.3,224.3,183.4,223.3,182.9z"/>
	<path class="skills4" d="M119.4,194.5l-0.9-0.4c-4.1-2.4-10.5-2.4-14.6,0l0,0c-4.1,2.2-4.1,6,0,8.2l0.9,0.4c4.1,2.2,10.5,2.2,14.6,0
		l0,0C123.5,200.7,123.5,196.7,119.4,194.5z"/>
	<path class="skills4" d="M259.3,128.4c-14.8-8.3-34.4-8-48,0l0,0c-8.5,4.6-11.6,11.1-9.5,17.2c0,0,2,20-14.9,5.3s-20.7-21.6-20.7-21.6
		l10.4-7.1c0,0,19.2,36.2,18,22.2S186,116,186,116s25.2-17,44.8-27c0,0,62.3-6.7,94.7,36.6c32.3,43.3-21.3-15.6-45-22.4
		c-23.7-6.8,80,70.3,23.9,39.4c-12.4-6.8-56.3-42.4-47.6-30.3C271.6,133.2,276.2,137.9,259.3,128.4z"/>
	<path class="skills4" d="M215,157.6c12.3,6.7,30.5,7.6,44.3,2.6c0,0,28.7-11,13.4,3.2c-15.3,14.2,7.2,23.5,12.7,20.4
		c0,0-5,2.9-13.4,7.4c-7.5,4.1-15.4,8.1-15.4,8.1s-24.9,2.1-21.4-11.4c3.5-13.6,8.7-15.6-7.9-15.6s-48-3.6-21.3,11.5
		s26.2,27.5,26.2,27.5s-7,3.3-9.3,4.4c-3.3,1.5-13.2,6-13.2,6s7.6-20.7-14-28.4s-88.1-28.1-49.9-29.9
		C184,161.6,210.1,166.1,215,157.6z"/>
	<path class="skills1" d="M379.2,112.2c0,0-6.5-5.1-23.1-1.5c0,0-0.7,1,5.3,1.9c0,0-5.7,1.9-11.6-3c-6-4.9-22-0.5-28.4-5
		c0,0,7.8,4.6,14.2,5.2s10.6,8,23.8,8.3c13.1,0.4,13.5,0.7,13.5,0.7s2.6-2.5,3.4-3.4C377,114.7,379.2,112.2,379.2,112.2z"/>
	<path class="skills4" d="M18.3,284.2c0,0,21.9-12.6,36.5-27.7c14.6-15.1,5.8-0.8,4,4.8c-1.8,5.6,0.6,5,6.4,0.4
		c5.7-4.6,33.4-31.3,33.4-31.3l6.5-14.8c0,0-22.3,26-32.2,34.2c-9.9,8.2-1.8-1.6-4.4-3.5s-4.7-4.2-12,2.9
		c-7.2,7.1-38.1,29.2-45.2,29.4C11.3,278.6,14,283.4,18.3,284.2z"/>
	<path class="skills4" d="M169,190.6c0,0-0.5,2.2-9.4-2.4c-9-4.6-14.9-5.6-27.2-3.1c0,0,5.1,1.9,9.5,2.4c0,0-8.7,2.9-14.4-0.3
		c-5.6-3.2-21.4-0.7-24.3,1.2c0,0,7.7-2.3,15.2-0.8s8,8.1,22.4,6.5C155.2,192.3,167.3,193.8,169,190.6z"/>
	<path class="skills4" d="M408.9,46.5c-7.8-1.7-16-1.3-28,1.1c0,0,8.2,3.1,15.2,3.8c0,0-14,4.6-23-0.6c-9-5.2-34.2-1.2-38.9,1.9
		c0,0,12.4-3.7,24.3-1.3s12.9,12.9,35.9,10.3c6.6-0.7,12.9-1,18.1-1.2c0,0,3-4.2,1.6-8.1C412.7,48.6,408.9,46.5,408.9,46.5z"/>
	<polygon class="skills4" points="210.8,221.1 209.7,221.7 209.7,219.7 210.8,219.2 	"/>
	<polygon class="skills4" points="232.3,211.2 231.1,211.8 231.1,209.8 232.2,209.3 	"/>
	<polygon class="skills4" points="285.4,181.8 285.4,183.8 279.6,187 279,185.2 	"/>
	<polygon class="skills4" points="11.3,278.6 11.3,276.6 12.9,278.6 	"/>
	<polygon class="skills4" points="105.1,215.5 105.1,213.5 103.3,217.8 	"/>
	<polygon class="skills4" points="58.2,261.8 58.2,264.3 60.9,264.3 	"/>
	<path class="skills5" d="M18.3,282.2c0,0,21.9-12.6,36.5-27.7c14.6-15.1,5.8-0.8,4,4.8c-1.8,5.6,0.6,5,6.4,0.4
		c5.7-4.6,33.4-31.3,33.4-31.3l6.5-14.8c0,0-22.3,26-32.2,34.2c-9.9,8.2-1.8-1.6-4.4-3.5s-4.7-4.2-12,2.9
		c-7.2,7.1-38.1,29.2-45.2,29.4C11.3,276.6,14,281.4,18.3,282.2z"/>
	<g>
		<g>
			<g>
				<path class="skills1" d="M112.1,234.3l-37.6,21.8c-0.8,0.5-1.8,0.5-2.6,0l-25.8-14.9v0.9h-1.5c0.1,0.8,0.5,1.5,1.3,2l26.1,15
					c0.8,0.5,1.8,0.5,2.6,0l37.9-22c0.8-0.5,1.3-1.3,1.3-2.2h-1.6v-0.6L112.1,234.3L112.1,234.3z"/>
				<path class="skills1" d="M46.1,241.2l-0.3-0.2c-0.8-0.5-1.2-1.2-1.3-2l0,0v2.7v0.2v0.2l0,0H46v-0.9L46.1,241.2L46.1,241.2z"/>
				<path class="skills1" d="M113.7,231.8L113.7,231.8L113.7,231.8z"/>
				<path class="skills1" d="M112.4,234.1l-0.3,0.2v0.6h1.6l0,0v-3.1C113.7,232.7,113.2,233.6,112.4,234.1z"/>
				<path class="skills6" d="M112.4,229.6l-26.8-15.4c-0.8-0.5-1.8-0.5-2.6,0l-37.2,22.3c-0.9,0.6-1.3,1.5-1.2,2.5
					c0.1,0.8,0.5,1.6,1.3,2l0.3,0.2L72,256.1c0.8,0.5,1.8,0.5,2.6,0l37.6-21.8l0.3-0.2c0.9-0.5,1.3-1.4,1.3-2.3l0,0
					C113.7,231,113.2,230.1,112.4,229.6z"/>
			</g>
			<g>
				<path class="skills1" d="M90.5,214.6c0,0.1-0.1,0.2-0.1,0.3c-0.1,0.1-0.2,0.3-0.3,0.4l-0.1,0.1h-0.1h-0.1l-3.9,2.2l-4,2.3
					c-0.2,0.1-0.4,0.2-0.6,0.2s-0.4-0.1-0.6-0.2l-12.4-7.1l-0.1-0.1c-0.4-0.2-0.6-0.6-0.6-1l-5,24.4c0,0.4,0.2,0.7,0.6,0.9l12.5,7.2
					c0.4,0.2,0.9,0.2,1.2,0L95,233.7c0.4-0.2,0.6-0.6,0.6-1.1l0,0l-5.1-18.4C90.5,214.4,90.5,214.5,90.5,214.6z"/>
				<path class="skills6" d="M89.9,213.2l-12.8-7.4c-0.4-0.2-0.9-0.2-1.3,0l-7.6,4.8c-0.4,0.3-0.6,0.7-0.6,1.2c0,0.4,0.2,0.8,0.6,1
					l0.1,0.1l12.4,7.1c0.2,0.1,0.4,0.2,0.6,0.2s0.4-0.1,0.6-0.2l4-2.3l3.9-2.2h0.1H90c0.1,0,0.1-0.1,0.1-0.1
					c0.1-0.1,0.3-0.2,0.3-0.4c0.1-0.1,0.1-0.2,0.1-0.3s0-0.2,0-0.3l0,0C90.5,213.9,90.3,213.5,89.9,213.2z"/>
			</g>
		</g>
		<g>
			<path class="skills5" d="M32.1,211.3L3.9,195l0.2,0.1c-5.3-3-4.6-14,1.5-24.6c6.1-10.5,15.3-16.6,20.5-13.5l0,0l28.3,16.3"/>
			<ellipse transform="matrix(0.5 -0.866 0.866 0.5 -145.3207 133.1695)" class="skills7" cx="42.7" cy="192.4" rx="22" ry="11"/>
			<ellipse transform="matrix(0.5 -0.866 0.866 0.5 -145.6866 134.5352)" class="skills4" cx="43.7" cy="193.4" rx="15.6" ry="7.8"/>
			<path class="skills6" d="M106.3,234.7l-65.2-37.5l-0.3-0.2c-1.2-0.7-1.1-3.3,0.3-5.8s3.6-3.9,4.8-3.2l0,0l65.6,37.8"/>
			<path class="skills5" d="M134.8,270.6l-28.2-16.3l0.2,0.1c-5.3-3-4.6-14,1.5-24.6c6.1-10.5,15.3-16.6,20.5-13.5l0,0l28.3,16.3"/>
			<ellipse transform="matrix(0.5 -0.866 0.866 0.5 -145.3167 251.7578)" class="skills7" cx="145.4" cy="251.7" rx="22" ry="11"/>
			<ellipse transform="matrix(0.5 -0.866 0.866 0.5 -145.6827 253.1236)" class="skills4" cx="146.4" cy="252.7" rx="15.6" ry="7.8"/>
		</g>
	</g>
	<path class="skills4" d="M169,188.6v2c0,0-0.2,0.6-1.6,1.2c-0.3,0.1-4-1.2-4-1.2S168.2,190.1,169,188.6z"/>
	<path class="skills5" d="M169,188.6c0,0-0.5,2.2-9.4-2.4c-9-4.6-14.9-5.6-27.2-3.1c0,0,5.1,1.9,9.5,2.4c0,0-8.7,2.9-14.4-0.3
		c-5.6-3.2-21.4-0.7-24.3,1.2c0,0,7.7-2.3,15.2-0.8s8,8.1,22.4,6.5C155.2,190.3,167.8,191.9,169,188.6z"/>
	<path class="skills4" d="M132.3,183.1v2l2.1,0.5l2.1-1.1C136.6,184.4,133.7,183.6,132.3,183.1z"/>
	<path class="skills4" d="M103.2,186.2v2c0,0,3.1-1,4.1-1.3s11.5-1.4,11.5-1.4s-2.8-1-9.7-0.4C104.1,185.6,103.2,186.2,103.2,186.2z"/>
	<rect x="100.7" y="196.4" class="skills4" width="0.3" height="2"/>
	<rect x="122.1" y="196.7" class="skills4" width="0.3" height="2"/>
	<rect x="219" y="181.8" class="skills4" width="5" height="2"/>
	<path class="skills5" d="M119.4,192.5l-0.9-0.4c-4.1-2.4-10.5-2.4-14.6,0l0,0c-4.1,2.2-4.1,6,0,8.2l0.9,0.4c4.1,2.2,10.5,2.2,14.6,0
		l0,0C123.5,198.7,123.5,194.7,119.4,192.5z"/>
	<g>
		<path class="skills4" d="M134.6,198.5l-0.4-0.2c-2-1.2-5-1.2-6.9,0l0,0c-2,1.1-2,2.8,0,3.9l0.4,0.2c2,1.1,5,1.1,6.9,0l0,0
			C136.6,201.4,136.6,199.5,134.6,198.5z"/>
		<rect x="125.8" y="198.3" class="skills4" width="0.5" height="2"/>
		<rect x="135.6" y="198.3" class="skills4" width="0.5" height="2"/>
		<path class="skills5" d="M134.6,196.5l-0.4-0.2c-2-1.2-5-1.2-6.9,0l0,0c-2,1.1-2,2.8,0,3.9l0.4,0.2c2,1.1,5,1.1,6.9,0l0,0
			C136.6,199.4,136.6,197.5,134.6,196.5z"/>
	</g>
	<g>
		<path class="skills4" d="M271.4,142.5l-0.4-0.2c-2-1.2-5-1.2-6.9,0l0,0c-2,1.1-2,2.8,0,3.9l0.4,0.2c2,1.1,5,1.1,6.9,0l0,0
			C273.3,145.4,273.3,143.5,271.4,142.5z"/>
		<rect x="262.5" y="142.3" class="skills4" width="0.5" height="2"/>
		<rect x="272.3" y="142.3" class="skills4" width="0.5" height="2"/>
		<path class="skills5" d="M271.4,140.5l-0.4-0.2c-2-1.2-5-1.2-6.9,0l0,0c-2,1.1-2,2.8,0,3.9l0.4,0.2c2,1.1,5,1.1,6.9,0l0,0
			C273.3,143.4,273.3,141.5,271.4,140.5z"/>
	</g>
	<g>
		<path class="skills4" d="M146.1,199.4l-0.2-0.1c-1-0.6-2.5-0.6-3.5,0l0,0c-1,0.5-1,1.4,0,2l0.2,0.1c1,0.5,2.5,0.5,3.5,0l0,0
			C147.1,200.8,147.1,199.9,146.1,199.4z"/>
		<rect x="141.7" y="198.3" class="skills4" width="1.2" height="2"/>
		<rect x="145.7" y="198.3" class="skills4" width="1.2" height="2"/>
		<path class="skills5" d="M146.1,197.4l-0.2-0.1c-1-0.6-2.5-0.6-3.5,0l0,0c-1,0.5-1,1.4,0,2l0.2,0.1c1,0.5,2.5,0.5,3.5,0l0,0
			C147.1,198.8,147.1,197.9,146.1,197.4z"/>
	</g>
	<g>
		<path class="skills4" d="M284,148.6l-0.2-0.1c-1-0.6-2.5-0.6-3.5,0l0,0c-1,0.5-1,1.4,0,2l0.2,0.1c1,0.5,2.5,0.5,3.5,0l0,0
			C285,150.1,285,149.1,284,148.6z"/>
		<rect x="279.6" y="147.5" class="skills4" width="1.2" height="2"/>
		<rect x="283.6" y="147.5" class="skills4" width="1.2" height="2"/>
		<path class="skills5" d="M284,146.6l-0.2-0.1c-1-0.6-2.5-0.6-3.5,0l0,0c-1,0.5-1,1.4,0,2l0.2,0.1c1,0.5,2.5,0.5,3.5,0l0,0
			C285,148.1,285,147.1,284,146.6z"/>
	</g>
	<g>
		<path class="skills4" d="M293.5,168.5l-0.2-0.1c-1-0.6-2.5-0.6-3.5,0l0,0c-1,0.5-1,1.4,0,2l0.2,0.1c1,0.5,2.5,0.5,3.5,0l0,0
			C294.5,169.9,294.5,169,293.5,168.5z"/>
		<rect x="289.1" y="167.4" class="skills4" width="1.2" height="2"/>
		<rect x="293.1" y="167.4" class="skills4" width="1.2" height="2"/>
		<path class="skills5" d="M293.5,166.5l-0.2-0.1c-1-0.6-2.5-0.6-3.5,0l0,0c-1,0.5-1,1.4,0,2l0.2,0.1c1,0.5,2.5,0.5,3.5,0l0,0
			C294.5,167.9,294.5,167,293.5,166.5z"/>
	</g>
	<g>
		<path class="skills4" d="M153.2,197.9L153.2,197.9c-0.6-0.3-1.3-0.3-1.8,0l0,0c-0.5,0.3-0.5,0.7,0,1h0.1c0.5,0.3,1.2,0.3,1.7,0l0,0
			C153.7,198.6,153.7,198.2,153.2,197.9z"/>
		<rect x="151" y="196.4" class="skills4" width="2.6" height="2"/>
		<path class="skills5" d="M153.2,195.9L153.2,195.9c-0.6-0.3-1.3-0.3-1.8,0l0,0c-0.5,0.3-0.5,0.7,0,1h0.1c0.5,0.3,1.2,0.3,1.7,0l0,0
			C153.7,196.6,153.7,196.2,153.2,195.9z"/>
	</g>
	<path class="skills5" d="M223.3,180.9l-0.2-0.1c-1-0.6-2.4-0.6-3.4,0l0,0c-1,0.5-1,1.4,0,1.9l0.2,0.1c1,0.5,2.4,0.5,3.4,0l0,0
		C224.3,182.3,224.3,181.4,223.3,180.9z"/>
	<rect x="134.1" y="164.8" class="skills4" width="5" height="2"/>
	<rect x="272.1" y="155.5" class="skills4" width="5" height="2"/>
	<path class="skills5" d="M215,155.6c12.3,6.7,30.5,7.6,44.3,2.6c0,0,28.7-11,13.4,3.2c-15.3,14.2,7.2,23.5,12.7,20.4l-28.8,15.5
		c0,0-24.9,2.1-21.4-11.4c3.5-13.6,8.7-15.6-7.9-15.6s-48-3.6-21.3,11.5s26.2,27.5,26.2,27.5l-22.6,10.4c0,0,7.6-20.7-14-28.4
		s-88.1-28.1-49.9-29.9C184,159.6,210.1,164.1,215,155.6z"/>
	<rect x="213.8" y="139.2" class="skills4" width="5" height="2"/>
	<rect x="251.5" y="140.2" class="skills4" width="5" height="2"/>
	<path class="skills5" d="M250.5,131.7l-1.8-0.7c-8.1-4.8-20.7-4.8-28.8,0l0,0c-8.1,4.4-8.1,11.8,0,16.2l1.8,0.7
		c8.1,4.4,20.7,4.4,28.8,0l0,0C258.6,143.9,258.6,136.2,250.5,131.7z"/>
	<rect x="267.7" y="130.4" class="skills4" width="2.4" height="2"/>
	<rect x="318.7" y="147.4" class="skills4" width="2.4" height="2"/>
	<rect x="333.9" y="138.9" class="skills4" width="1.5" height="2"/>
	<rect x="344.6" y="61.3" class="skills4" width="1.5" height="2.1"/>
	<g>
		<path class="skills4" d="M388.1,77.4c0,0-24.1-6.1-45.1-5.2c-21,0.9-4.8-3.4,0.3-6.2c5.1-2.8,3-4.1-4.3-4.7
			c-7.3-0.6-45.8-0.4-45.8-0.4s-8.3,3.2-10.7,4.2c-1.3,0.5-3.9,1.9-3.9,1.9s33.8-3.3,46.6-2.4c12.8,0.9,0.2,2.4,0.8,5.6
			c0.6,3.2,0.6,6.3,10.7,6.1s46.9-0.2,52.2,4.5"/>

			<rect x="326.2" y="68.2" transform="matrix(9.992037e-03 -1 1 9.992037e-03 255.0512 395.4564)" class="skills4" width="2" height="1.5"/>
		<polygon class="skills4" points="280.2,66.9 278.5,67 278.3,65.2 283.7,64.6 		"/>
		<path class="skills5" d="M388.1,75.4c0,0-24.1-6.1-45.1-5.2c-21,0.9-4.8-3.4,0.3-6.2c5.1-2.8,3-4.1-4.3-4.7
			c-7.3-0.6-45.8-0.4-45.8-0.4l-14.9,6.2c0,0,34.1-3.5,46.9-2.6s0.2,2.4,0.8,5.6c0.6,3.2,0.6,6.3,10.7,6.1s46.9-0.2,52.2,4.5"/>
	</g>
	<rect x="380.9" y="45.2" class="skills4" width="5.2" height="2.5"/>
	<rect x="342.7" y="47.7" class="skills4" width="13.3" height="2.5"/>
	<path class="skills5" d="M408.9,44.1c-7.8-1.7-16-1.3-28,1.1c0,0,8.2,3.1,15.2,3.8c0,0-14,4.6-23-0.6c-9-5.2-34.2-1.2-38.9,1.9
		c0,0,12.4-3.7,24.3-1.3s12.9,12.9,35.9,10.3c6.6-0.7,12.9-1,18.1-1.2c0,0,3-4.2,1.6-8.1C412.7,46.2,408.9,44.1,408.9,44.1z"/>
	<rect x="166.2" y="127.4" class="skills4" width="1.1" height="2"/>
	<rect x="185.9" y="114" class="skills4" width="1.1" height="2"/>
	<path class="skills5" d="M259.3,126.4c-14.8-8.3-34.4-8-48,0l0,0c-8.5,4.6-11.6,11.1-9.5,17.2c0,0,2,20-14.9,5.3s-20.7-21.6-20.7-21.6
		l10.4-7.1c0,0,19.2,36.2,18,22.2S186,114,186,114s25.2-17,44.8-27c0,0,62.3-6.7,94.7,36.6c32.3,43.3-21.3-15.6-45-22.4
		c-23.7-6.8,80,70.3,23.9,39.4c-12.4-6.8-56.3-42.4-47.6-30.3C271.6,131.2,276.2,135.9,259.3,126.4z"/>
	<polygon class="skills1" points="100.4,263.5 100.4,265.6 96.9,266.8 96.3,264.9 	"/>
	<g>
		<path class="skills1" d="M193.2,205l-0.5-0.2c-2.1-1.2-5.2-1.2-7.3,0l0,0c-2.1,1.1-2.1,3,0,4.1l0.5,0.2c2.1,1.1,5.2,1.1,7.3,0l0,0
			C195.3,208.1,195.3,206.1,193.2,205z"/>
		<rect x="183.9" y="204.6" class="skills1" width="10.8" height="2.3"/>
		<path class="skills6" d="M193.2,203l-0.5-0.2c-2.1-1.2-5.2-1.2-7.3,0l0,0c-2.1,1.1-2.1,3,0,4.1l0.5,0.2c2.1,1.1,5.2,1.1,7.3,0l0,0
			C195.3,206.1,195.3,204.1,193.2,203z"/>
	</g>
	<g>
		<path class="skills1" d="M273.9,81.9l-0.5-0.2c-2.1-1.2-5.2-1.2-7.3,0l0,0c-2.1,1.1-2.1,3,0,4.1l0.5,0.2c2.1,1.1,5.2,1.1,7.3,0l0,0
			C276,85,276,83,273.9,81.9z"/>
		<rect x="264.6" y="81.5" class="skills1" width="10.8" height="2.3"/>
		<path class="skills6" d="M273.9,79.9l-0.5-0.2c-2.1-1.2-5.2-1.2-7.3,0l0,0c-2.1,1.1-2.1,3,0,4.1l0.5,0.2c2.1,1.1,5.2,1.1,7.3,0l0,0
			C276,83,276,81,273.9,79.9z"/>
	</g>
	<g>
		<path class="skills1" d="M340.5,117.9l-0.5-0.2c-2.1-1.2-5.2-1.2-7.3,0l0,0c-2.1,1.1-2.1,3,0,4.1l0.5,0.2c2.1,1.1,5.2,1.1,7.3,0l0,0
			C342.6,121,342.6,119,340.5,117.9z"/>
		<rect x="331.2" y="117.5" class="skills1" width="10.8" height="2.3"/>
		<path class="skills6" d="M340.5,115.9l-0.5-0.2c-2.1-1.2-5.2-1.2-7.3,0l0,0c-2.1,1.1-2.1,3,0,4.1l0.5,0.2c2.1,1.1,5.2,1.1,7.3,0l0,0
			C342.6,119,342.6,117,340.5,115.9z"/>
	</g>
	<path class="skills1" d="M321.9,102.6l-0.5,2c0,0,3,2.2,6.4,3.1c3.4,0.9,4.6-0.6,4.6-0.6S325,104.6,321.9,102.6z"/>
	<g>
		<path class="skills1" d="M260.3,82.9l-0.2-0.1c-1-0.6-2.4-0.6-3.4,0l0,0c-1,0.5-1,1.4,0,1.9l0.2,0.1c1,0.5,2.4,0.5,3.4,0l0,0
			C261.3,84.3,261.3,83.4,260.3,82.9z"/>
		<rect x="256" y="81.8" class="skills1" width="5" height="2.1"/>
		<path class="skills6" d="M260.3,80.9l-0.2-0.1c-1-0.6-2.4-0.6-3.4,0l0,0c-1,0.5-1,1.4,0,1.9l0.2,0.1c1,0.5,2.4,0.5,3.4,0l0,0
			C261.3,82.3,261.3,81.4,260.3,80.9z"/>
	</g>
	<g>
		<path class="skills1" d="M346.4,125l-0.2-0.1c-1-0.6-2.4-0.6-3.4,0l0,0c-1,0.5-1,1.4,0,1.9l0.2,0.1c1,0.5,2.4,0.5,3.4,0l0,0
			C347.3,126.4,347.3,125.5,346.4,125z"/>
		<rect x="342" y="123.9" class="skills1" width="5" height="2.1"/>
		<path class="skills6" d="M346.4,123l-0.2-0.1c-1-0.6-2.4-0.6-3.4,0l0,0c-1,0.5-1,1.4,0,1.9l0.2,0.1c1,0.5,2.4,0.5,3.4,0l0,0
			C347.3,124.4,347.3,123.5,346.4,123z"/>
	</g>
	<g>
		<path class="skills1" d="M179,209.4l-0.2-0.1c-1-0.6-2.4-0.6-3.4,0l0,0c-1,0.5-1,1.4,0,1.9l0.2,0.1c1,0.5,2.4,0.5,3.4,0l0,0
			C180,210.8,180,209.9,179,209.4z"/>
		<rect x="174.7" y="208.3" class="skills1" width="5" height="2.1"/>
		<path class="skills6" d="M179,207.4l-0.2-0.1c-1-0.6-2.4-0.6-3.4,0l0,0c-1,0.5-1,1.4,0,1.9l0.2,0.1c1,0.5,2.4,0.5,3.4,0l0,0
			C180,208.8,180,207.9,179,207.4z"/>
	</g>
	<g>
		<path class="skills1" d="M252.6,82.9l-0.1-0.1c-0.6-0.4-1.5-0.4-2.1,0l0,0c-0.6,0.3-0.6,0.9,0,1.2l0.1,0.1c0.6,0.3,1.5,0.3,2.1,0l0,0
			C253.2,83.8,253.2,83.2,252.6,82.9z"/>
		<rect x="249.9" y="81.8" class="skills1" width="3.2" height="1.6"/>
		<path class="skills6" d="M252.6,81.2l-0.1-0.1c-0.6-0.4-1.5-0.4-2.1,0l0,0c-0.6,0.3-0.6,0.9,0,1.2l0.1,0.1c0.6,0.3,1.5,0.3,2.1,0l0,0
			C253.2,82.1,253.2,81.6,252.6,81.2z"/>
	</g>
	<g>
		<path class="skills1" d="M353,128.6l-0.1-0.1c-0.6-0.4-1.5-0.4-2.1,0l0,0c-0.6,0.3-0.6,0.9,0,1.2l0.1,0.1c0.6,0.3,1.5,0.3,2.1,0l0,0
			C353.6,129.5,353.6,129,353,128.6z"/>
		<rect x="350.3" y="127.6" class="skills1" width="3.2" height="1.6"/>
		<path class="skills6" d="M353,127l-0.1-0.1c-0.6-0.4-1.5-0.4-2.1,0l0,0c-0.6,0.3-0.6,0.9,0,1.2l0.1,0.1c0.6,0.3,1.5,0.3,2.1,0l0,0
			C353.6,127.9,353.6,127.4,353,127z"/>
	</g>
	<g>
		<path class="skills1" d="M170.1,206l-0.1-0.1c-0.6-0.4-1.5-0.4-2.1,0l0,0c-0.6,0.3-0.6,0.9,0,1.2l0.1,0.1c0.6,0.3,1.5,0.3,2.1,0l0,0
			C170.7,206.9,170.7,206.3,170.1,206z"/>
		<rect x="167.4" y="204.9" class="skills1" width="3.2" height="1.6"/>
		<path class="skills6" d="M170.1,204.4l-0.1-0.1c-0.6-0.4-1.5-0.4-2.1,0l0,0c-0.6,0.3-0.6,0.9,0,1.2l0.1,0.1c0.6,0.3,1.5,0.3,2.1,0l0,0
			C170.7,205.3,170.7,204.7,170.1,204.4z"/>
	</g>
	<rect x="356.6" y="108.7" class="skills1" width="4.6" height="2.1"/>
	<rect x="374.6" y="110.1" class="skills1" width="4.6" height="2.1"/>
	<path class="skills6" d="M379.2,110.1c0,0-6-5-22.6-1.4c0,0-0.7,1,5.3,1.9c0,0-5.7,1.9-11.6-3s-22-0.5-28.4-5c0,0,7.8,4.6,14.2,5.2
		s10.6,8,23.8,8.3c13.1,0.4,12.7,0.9,12.7,0.9L379.2,110.1z"/>
	<line class="skills8" x1="55.5" y1="257.6" x2="57.5" y2="258.7"/>
	<g>
		<polygon class="skills3" points="58.1,253.6 58.1,251.1 60.1,252.3 		"/>
		<polygon class="skills3" points="53.4,249.8 57.2,252.1 58.1,251.1 53.4,248.4 		"/>
		<polygon class="skills3" points="58.4,253.3 57.2,254.2 57.2,252.1 58.1,251.1 		"/>
	</g>
	<g>
		<polygon class="skills3" points="69,259.9 69,257.4 71,258.5 		"/>
		<polygon class="skills3" points="60.4,253.9 68.1,258.3 69,257.4 60.4,252.5 		"/>
		<polygon class="skills3" points="69.2,259.6 68.1,260.5 68.1,258.3 69,257.4 		"/>
	</g>
	<path class="skills1" d="M100.3,265.6c0,0-5-3.5-13.6-1.6c0,0-0.4,0.5,2.7,1c0,0-2.9,1-6-1.6c-3.1-2.5-11.4-0.2-14.7-2.6
		c0,0,4,2.4,7.4,2.7s5.5,4.4,12.3,4.3c4.7,0,4.2,0.5,4.2,0.5L100.3,265.6z"/>
	<path class="skills6" d="M100.4,263.5c0,0-5.2-3.3-13.8-1.4c0,0-0.4,0.5,2.7,1c0,0-2.9,1-6-1.6c-3.1-2.5-11.4-0.2-14.7-2.6
		c0,0,4,2.4,7.4,2.7s5.5,4.2,12.3,4.3c4.3,0.1,3.9,0.5,3.9,0.5L100.4,263.5z"/>
	<path class="skills1" d="M68.6,258.8v2c0,0,2.6,1.5,3.8,1.6s5.8-0.2,5.8-0.2s-0.7-0.6-2.2-0.7S70.2,259.7,68.6,258.8z"/>
	<g>
		<path class="skills4" d="M292.7,81l-0.4-0.2c-1.9-1.1-4.9-1.1-6.9,0l0,0c-1.9,1.1-1.9,2.8,0,3.9l0.4,0.2c1.9,1.1,4.9,1.1,6.9,0l0,0
			C294.7,83.9,294.7,82,292.7,81z"/>
		<rect x="284" y="80.6" class="skills4" width="1.5" height="2.3"/>
		<rect x="292.7" y="80.8" class="skills4" width="1.5" height="2.3"/>
		<path class="skills5" d="M292.7,79l-0.4-0.2c-1.9-1.1-4.9-1.1-6.9,0l0,0c-1.9,1.1-1.9,2.8,0,3.9l0.4,0.2c1.9,1.1,4.9,1.1,6.9,0l0,0
			C294.7,81.9,294.7,80,292.7,79z"/>
	</g>
	<g>
		<path class="skills4" d="M284.6,171.4l-0.4-0.2c-1.9-1.1-4.9-1.1-6.9,0l0,0c-1.9,1.1-1.9,2.8,0,3.9l0.4,0.2c1.9,1.1,4.9,1.1,6.9,0l0,0
			C286.5,174.3,286.5,172.5,284.6,171.4z"/>
		<rect x="275.9" y="171" class="skills4" width="1.5" height="2.3"/>
		<rect x="284.6" y="171.2" class="skills4" width="1.5" height="2.3"/>
		<path class="skills5" d="M284.6,169.4l-0.4-0.2c-1.9-1.1-4.9-1.1-6.9,0l0,0c-1.9,1.1-1.9,2.8,0,3.9l0.4,0.2c1.9,1.1,4.9,1.1,6.9,0l0,0
			C286.5,172.3,286.5,170.5,284.6,169.4z"/>
	</g>
	<rect x="326.4" y="69.6" transform="matrix(0.866 -0.5 0.5 0.866 9.174 174.8485)" class="skills4" width="9" height="1.4"/>
	<g>
		<g>
			<g>
				<path class="skills1" d="M381.2,78.1l-37.6,21.8c-0.8,0.5-1.8,0.5-2.6,0L315.2,85v0.9h-1.5c0.1,0.8,0.5,1.5,1.3,2l26.1,15
					c0.8,0.5,1.8,0.5,2.6,0l37.9-22c0.8-0.5,1.3-1.3,1.3-2.2h-1.6L381.2,78.1L381.2,78.1z"/>
				<path class="skills1" d="M315.2,85l-0.3-0.2c-0.8-0.5-1.2-1.2-1.3-2l0,0v2.7v0.2v0.2l0,0h1.5L315.2,85L315.2,85z"/>
				<path class="skills1" d="M382.8,75.6L382.8,75.6L382.8,75.6z"/>
				<path class="skills1" d="M381.5,77.9l-0.3,0.2v0.6h1.6l0,0v-3.1C382.8,76.5,382.3,77.4,381.5,77.9z"/>
				<path class="skills6" d="M381.4,73.4L354.6,58c-0.8-0.5-1.8-0.5-2.6,0l-37.2,22.3c-0.9,0.6-1.3,1.5-1.2,2.5c0.1,0.8,0.5,1.6,1.3,2
					l0.3,0.2L341,99.9c0.8,0.5,1.8,0.5,2.6,0l37.6-21.8l0.3-0.2c0.9-0.5,1.3-1.4,1.3-2.3l0,0C382.7,74.8,382.3,73.9,381.4,73.4z"/>
			</g>
			<g>
				<path class="skills1" d="M359.6,58.4c0,0.1-0.1,0.2-0.1,0.3c-0.1,0.1-0.2,0.3-0.3,0.4l-0.1,0.1H359h-0.1l-3.9,2.2l-4,2.3
					c-0.2,0.1-0.4,0.2-0.6,0.2s-0.4-0.1-0.6-0.2l-12.4-7.1l-0.1-0.1c-0.4-0.2-0.6-0.6-0.6-1l-5,24.4c0,0.4,0.2,0.7,0.6,0.9l12.5,7.2
					c0.4,0.2,0.9,0.2,1.2,0l18.1-10.5c0.4-0.2,0.6-0.6,0.6-1.1l0,0L359.6,58C359.6,58.2,359.6,58.3,359.6,58.4z"/>
				<path class="skills6" d="M359,57l-12.8-7.4c-0.4-0.2-0.9-0.2-1.3,0l-7.6,4.8c-0.4,0.3-0.6,0.7-0.6,1.2c0,0.4,0.2,0.8,0.6,1l0.1,0.1
					l12.4,7.1c0.2,0.1,0.4,0.2,0.6,0.2s0.4-0.1,0.6-0.2l4-2.3l3.9-2.2h0.1h0.1c0.1,0,0.1-0.1,0.1-0.1c0.1-0.1,0.3-0.2,0.3-0.4
					c0.1-0.1,0.1-0.2,0.1-0.3s0-0.2,0-0.3l0,0C359.6,57.7,359.4,57.3,359,57z"/>
			</g>
		</g>
		<g>
			<path class="skills5" d="M301.2,55.1L273,38.8l0.2,0.1c-5.3-3-4.6-14,1.5-24.6C280.8,3.8,290-2.3,295.2,0.8l0,0l28.3,16.3"/>
			<ellipse transform="matrix(0.5 -0.866 0.866 0.5 124.4978 288.1174)" class="skills7" cx="311.8" cy="36.2" rx="22" ry="11"/>
			<ellipse transform="matrix(0.5 -0.866 0.866 0.5 124.1318 289.4836)" class="skills4" cx="312.8" cy="37.2" rx="15.6" ry="7.8"/>
			<path class="skills6" d="M375.4,78.5L310.2,41l-0.3-0.2c-1.2-0.7-1.1-3.3,0.3-5.8s3.6-3.9,4.8-3.2l0,0l65.6,37.8"/>
			<path class="skills5" d="M403.9,114.4l-28.2-16.3l0.2,0.1c-5.3-3-4.6-14,1.5-24.6c6.1-10.5,15.3-16.6,20.5-13.5l0,0l28.3,16.3"/>
			<ellipse transform="matrix(0.5 -0.866 0.866 0.5 124.5015 406.7055)" class="skills7" cx="414.5" cy="95.5" rx="22" ry="11"/>
			<ellipse transform="matrix(0.5 -0.866 0.866 0.5 124.2355 408.1447)" class="skills4" cx="415.6" cy="96.5" rx="15.6" ry="7.8"/>
		</g>
	</g>
	<g>
		<path class="skills4" d="M228.8,181.6L228.8,181.6c-0.6-0.3-1.3-0.3-1.8,0l0,0c-0.5,0.3-0.5,0.7,0,1h0.1c0.5,0.3,1.2,0.3,1.7,0l0,0
			C229.3,182.4,229.3,181.9,228.8,181.6z"/>
		<rect x="226.6" y="180.1" class="skills4" width="2.6" height="2"/>
		<path class="skills5" d="M228.8,179.6L228.8,179.6c-0.6-0.3-1.3-0.3-1.8,0l0,0c-0.5,0.3-0.5,0.7,0,1h0.1c0.5,0.3,1.2,0.3,1.7,0l0,0
			C229.3,180.4,229.3,179.9,228.8,179.6z"/>
	</g>
	<g>
		<path class="skills4" d="M294,158L294,158c-0.6-0.3-1.3-0.3-1.8,0l0,0c-0.5,0.3-0.5,0.7,0,1h0.1c0.5,0.3,1.2,0.3,1.7,0l0,0
			C294.5,158.7,294.5,158.3,294,158z"/>
		<rect x="291.8" y="156.5" class="skills4" width="2.6" height="2"/>
		<path class="skills5" d="M294,156L294,156c-0.6-0.3-1.3-0.3-1.8,0l0,0c-0.5,0.3-0.5,0.7,0,1h0.1c0.5,0.3,1.2,0.3,1.7,0l0,0
			C294.5,156.7,294.5,156.3,294,156z"/>
	</g>
</g>
</svg>
