<!-- Generator: Adobe Illustrator 21.1.0, SVG Export Plug-In  -->
<svg class="section__content--svg-small" version="1.1"
	 xmlns="http://www.w3.org/2000/svg" xmlns:xlink="http://www.w3.org/1999/xlink" xmlns:a="http://ns.adobe.com/AdobeSVGViewerExtensions/3.0/"
	 x="0px" y="0px" width="309px" height="467.1px" viewBox="0 0 309 467.1" style="enable-background:new 0 0 309 467.1;"
	 xml:space="preserve">
<style type="text/css">
	.contacts0{opacity:0.2;fill:#231F20;enable-background:new    ;}
	.contacts1{fill:#372067;}
	.contacts2{fill:#CCCCCC;}
	.contacts3{fill:#EDEDED;}
	.contacts4{fill:#00FFA3;}
	.contacts5{fill:#00C6A3;}
	.contacts6{fill:none;}
	.contacts7{fill:#008E73;}
	.contacts8{fill:#E0E0E0;}
</style>
<defs>
</defs>
<g>
	<path class="contacts0" d="M5.2,370l146.3-84.7c1.8-1,4-1,6,0l148.6,86.1c1.8,1,2.9,3.1,2.9,5.1l0,0c0,2.1-1.2,4-2.9,5.1l-146.3,84.7
		c-0.9,0.6-1.8,0.9-2.9,0.9c-1.1,0-2.1-0.4-2.9-0.9L5.5,380.1c-1.8-1-2.9-3.1-2.9-5.1l0,0C2.2,373,3.3,371,5.2,370z"/>
	<g>
		<path class="contacts1" d="M306.5,299.5L306.5,299.5L306.5,299.5z"/>
		<path class="contacts2" d="M3,303.1l148.6,86.1c0.9,0.6,1.8,0.9,2.9,0.9c1,0,2.1-0.4,2.9-0.9l146.2-84.5c1.8-1,2.9-3.1,2.9-5.1v8.5l0,0
			l0,0c0,2.1-1.2,4-2.9,5.1l-146.2,84.7c-0.9,0.6-1.8,0.9-2.9,0.9c-1,0-2.1-0.4-2.9-0.9L3,311.7c-1.8-1-2.9-3.1-2.9-5.1l0,0l0,0
			v-8.5C0,300,1.1,301.9,3,303.1z"/>
		<path class="contacts1" d="M0,297.8L0,297.8L0,297.8z"/>
		<path class="contacts3" d="M3,292.8l146.3-84.7c1.8-1,4-1,6,0l148.6,86.1c1.8,1,2.9,3.1,2.9,5.1l0,0c0,2.1-1.2,4-2.9,5.1l-146.3,84.7
			c-0.9,0.6-1.8,0.9-2.9,0.9s-2.1-0.4-2.9-0.9L3.2,302.9c-1.8-1-2.9-3.1-2.9-5.1l0,0C0,295.8,1.1,293.8,3,292.8z"/>
	</g>
	<g>
		<path class="contacts2" d="M172.3,10.2l9.6-5.3C193-2,207.4-1.5,221.2,5.9c22.3,12.2,42,48.4,43.6,86.7v12.8v189.4l0,0l-9.6,5.3v-49.8"
			/>
		<polygon class="contacts2" points="64.3,250.2 64.3,298.4 54.7,303.9 54.7,244.8 		"/>
		<path class="contacts3" d="M246.8,249.6v45.8l0,0l8.5,4.8v-1.1V110.2V97.5c-2.1-38.3-18.1-74-41-86.2C195.2,1.1,171.2,3.8,159,21.9"/>
		<path class="contacts4" d="M91.8,61.3l77.3-44.7l1.1-0.5c12.2-8,28.2-7.4,42-0.5c21.3,11.2,36.7,44.7,38.3,80.3v11.7v139.9l-88.9,51.6"
			/>
		<g>
			<polyline class="contacts5" points="169.1,131.7 237.7,91.8 241.5,89.7 241.5,116.4 169.1,158.5 			"/>
			<line class="contacts6" x1="169.1" y1="131.7" x2="169.1" y2="154.1"/>
			<polyline class="contacts7" points="169.1,131.7 237.7,91.8 237.7,114.2 169.1,154.1 			"/>
		</g>
		<path class="contacts2" d="M150.9,274.8l0.7,85l9.6-5.9V164.5v-12.8c-1.6-38.3-21.8-74.5-43.6-86.7c-13.3-7.4-27.7-6.5-39.4,0.4
			l-9.6,5.3"/>
		<path class="contacts8" d="M143.6,354.4v-58.5l0,0l-88.9-50.5v58.5l-8.5-4.8l0,0c0,0-1.1-137.8,0-184.1c1.1-46.3,37.2-57.5,64.4-43.1
			c22.9,12.2,39.4,47.9,41,86.2v12.8v188.9L143.6,354.4z"/>
	</g>
	<g>
		<g>
			<polygon class="contacts5" points="186.5,216 240.5,184.8 240.5,147.9 186.5,179.2 			"/>
			<polygon class="contacts5" points="186.5,216 212,183.9 217.9,181.9 240.5,184.8 			"/>
			<polygon class="contacts4" points="216.3,185.3 186.5,183.6 186.5,179.2 240.5,147.9 240.5,154.1 			"/>
		</g>
		<polygon class="contacts7" points="186.5,216 182.3,213.3 182.3,176.5 186.5,179.2 		"/>
		<polygon class="contacts7" points="240.5,147.9 236.2,145.2 182.3,176.5 186.5,179.2 		"/>
	</g>
	<g>
		<g>
			<g>
				<g>
					<path class="contacts2" d="M112.9,199.6c-4.4,0-9-1.4-14.9-4.7c-14.6-8.1-25-25.7-25-41.6c0-13.3,6.4-21.6,16.6-21.6
						c4.3,0,9.1,1.4,14.3,4.4c14.1,8,24,24,24,39c0,9.3-3.6,14.9-9.6,14.9l0,0c-1.9,0-4-0.6-6.1-1.9c-2.9-1.6-6.1-5.3-6.4-10.4
						c-1.6,1.4-3.3,2.3-5.3,2.3c-1.9,0-3.9-0.6-6.1-1.9c-5.4-3-9.1-9.9-9.1-16.6c0-8,4.3-13.1,11-13.1c2.9,0,6,1,9.4,2.9
						c3.3,1.9,6.4,4.3,8.9,6.9c0.1,0.1,0.3,0.4,0.1,0.6l-2.9,14.1c-1.1,5.4-0.4,8.9,2.1,10.3c0.7,0.4,1.6,0.7,2.3,0.7
						c2.6,0,5.4-2.9,5.6-11c0-12.9-7.6-25.4-19.3-32.1c-3.9-2.1-7.6-3.3-10.9-3.3c-8,0-12.6,6.4-12.6,17.7
						c0,13.7,8.1,27.7,20.6,34.6c4.4,2.4,8.4,3.9,11.6,3.9h0.4c0.3,0,0.6,0.1,0.7,0.6l1.3,4.4c0,0.3,0,0.4-0.1,0.6
						C113.3,199.6,113,199.6,112.9,199.6L112.9,199.6z M99,155.1c-4.1,0-6.9,3.6-6.9,9.3c0,3.9,1.9,7.3,5,9c0.9,0.6,1.9,0.7,2.7,0.7
						c2.9,0,5.6-2.9,6.3-6.4l1.7-8.4c-1.1-1-2.4-1.9-3.6-2.6C102.3,155.6,100.6,155.1,99,155.1z"/>
				</g>
			</g>
		</g>
		<g>
			<g>
				<g>
					<path class="contacts3" d="M85.7,134.3c4,0,8.7,1.3,14,4.3c14.1,8,23.7,23.9,23.6,38.4c0,9.6-3.7,14.1-8.9,14.1
						c-1.7,0-3.7-0.6-5.7-1.7c-3.3-1.9-6.3-5.9-6-11l-0.3-0.1c-1.6,2-3.6,3-5.7,3c-1.7,0-3.6-0.6-5.7-1.9c-4.7-2.7-8.7-9-8.7-15.9
						c0-7.6,4-12.4,10.3-12.4c2.7,0,5.7,0.9,9,2.7c3.6,2,6.6,4.4,8.7,6.7l-2.9,14.1c-1.3,5.9-0.3,9.4,2.4,11.1
						c0.9,0.6,1.7,0.7,2.6,0.7c3.3,0,6.1-3.7,6.3-11.7c0-12.6-7-25.6-19.7-32.7c-4-2.3-7.7-3.4-11.1-3.4c-7.9,0-13.3,6.1-13.3,18.4
						c0,14.4,8.9,28.4,20.9,35.1c4.4,2.6,8.6,3.9,11.9,3.9c0.1,0,0.3,0,0.4,0l1.3,4.4c-4.4,0-9-1.6-14.6-4.7
						c-13.3-7.6-24.7-24.3-24.6-41C69.9,142.4,75.9,134.3,85.7,134.3 M96,176.6c3.4,0,6.3-3.3,6.9-7l1.7-8.9c-0.9-0.7-2.1-1.9-4-2.9
						c-1.9-1.1-3.7-1.6-5.4-1.6c-4.4,0-7.6,3.7-7.6,9.9c0,3.9,1.7,7.6,5.4,9.6C94,176.4,95,176.6,96,176.6"/>
				</g>
			</g>
		</g>
		<g>
			<path class="contacts2" d="M109,201.4c-0.1,0-0.1,0-0.3,0c-0.1-0.1-0.3-0.3-0.4-0.4l-1.3-4.4c-0.1-0.3,0-0.7,0.4-0.9l3.9-1.9
				c0.1,0,0.1,0,0.3,0c0.1,0,0.1,0,0.3,0c0.1,0.1,0.3,0.3,0.4,0.4l1.3,4.4c0.1,0.3,0,0.7-0.4,0.9l-3.9,1.9
				C109.2,201.4,109.2,201.4,109,201.4z"/>
		</g>
	</g>
</g>
</svg>
