<svg xmlns="http://www.w3.org/2000/svg" viewBox="0 0 20.56 15.44"><title>logo-b</title><g id="Livello_2" data-name="Livello 2"><g id="Livello_1-2" data-name="Livello 1"><path d="M2.18,11.7a1.4,1.4,0,0,0,.38,1,1.24,1.24,0,0,0,1.85,0,1.4,1.4,0,0,0,.38-1v-1.4H7v1.4a3.75,3.75,0,0,1-1,2.65,3.25,3.25,0,0,1-2.47,1.09A3.25,3.25,0,0,1,1,14.35,3.73,3.73,0,0,1,0,11.7V3.76A3.73,3.73,0,0,1,1,1.11,3.25,3.25,0,0,1,3.48,0,3.24,3.24,0,0,1,5.95,1.11,3.75,3.75,0,0,1,7,3.76v1.4H4.79V3.76a1.41,1.41,0,0,0-.38-1,1.24,1.24,0,0,0-1.85,0,1.41,1.41,0,0,0-.38,1Z"/><path d="M11.92,7V8.46H9.16V7Z"/><path d="M14.9,0h5.66V2.34H17.07V7h2.61V9.36H17.07V13.1h3.48v2.34H14.9Z"/></g></g></svg>